<svg xmlns="http://www.w3.org/2000/svg" viewBox="0 0 788 498" role="img"><path d="M482.5 488.0 C481.5 486.4 484.1 483.7 485.3 484.9 C486.4 486.0 485.5 489.0 484.1 489.0 C483.6 489.0 482.8 488.5 482.5 488.0 Z M493.4 487.9 C492.4 486.2 494.7 484.3 496.1 485.7 C497.3 486.9 496.5 489.0 495.0 489.0 C494.5 489.0 493.8 488.5 493.4 487.9 Z M474.0 485.5 C474.0 484.5 474.7 484.0 475.8 484.2 C477.9 484.6 477.7 486.4 475.6 486.8 C474.6 487.0 474.0 486.5 474.0 485.5 Z M465.7 485.3 C464.3 484.0 465.1 482.0 467.0 482.0 C468.1 482.0 469.0 482.4 469.0 482.9 C469.0 484.2 466.4 486.1 465.7 485.3 Z M361.0 482.5 C361.0 481.7 361.7 481.0 362.5 481.0 C363.3 481.0 364.0 481.7 364.0 482.5 C364.0 483.3 363.3 484.0 362.5 484.0 C361.7 484.0 361.0 483.3 361.0 482.5 Z M370.0 482.5 C370.0 481.5 370.7 481.0 371.8 481.2 C373.9 481.6 373.7 483.4 371.6 483.8 C370.6 484.0 370.0 483.5 370.0 482.5 Z M377.6 483.1 C377.3 482.6 377.7 481.7 378.4 481.1 C380.0 479.8 381.6 481.3 380.5 483.0 C379.7 484.2 378.3 484.3 377.6 483.1 Z M243.7 482.3 C243.3 482.0 243.0 481.1 243.0 480.3 C243.0 478.6 245.6 478.6 246.3 480.4 C247.1 482.5 245.2 483.9 243.7 482.3 Z M232.7 481.4 C231.3 480.0 232.0 477.9 233.8 478.2 C234.7 478.4 235.5 479.2 235.5 479.9 C235.5 481.5 233.7 482.4 232.7 481.4 Z M353.7 481.4 C352.8 480.4 353.9 479.0 355.6 479.0 C356.4 479.0 357.0 479.7 357.0 480.5 C357.0 482.0 354.9 482.6 353.7 481.4 Z M386.0 480.5 C386.0 479.5 386.7 479.0 387.8 479.2 C389.9 479.6 389.7 481.4 387.6 481.8 C386.6 482.0 386.0 481.5 386.0 480.5 Z M504.5 481.1 C503.7 479.6 504.8 478.0 506.6 478.0 C507.5 478.0 508.0 478.7 507.8 479.7 C507.4 481.7 505.4 482.5 504.5 481.1 Z M254.4 479.9 C253.4 478.2 255.7 476.3 257.1 477.7 C258.3 478.9 257.5 481.0 256.0 481.0 C255.5 481.0 254.8 480.5 254.4 479.9 Z M456.4 479.9 C455.4 478.2 457.7 476.3 459.1 477.7 C460.3 478.9 459.5 481.0 458.0 481.0 C457.5 481.0 456.8 480.5 456.4 479.9 Z M472.5 477.9 C469.2 476.8 465.0 475.2 463.3 474.4 C459.0 472.5 451.1 464.5 446.1 457.2 C441.5 450.4 431.9 440.6 423.9 434.4 C417.5 429.5 407.6 424.5 406.1 425.5 C405.5 425.8 404.8 428.2 404.4 430.8 C403.5 436.9 402.2 439.3 396.2 446.1 C391.4 451.4 391.1 452.0 390.4 458.9 C389.1 472.1 384.6 475.8 369.9 475.9 C360.4 476.0 360.4 476.0 356.2 472.5 C353.3 470.0 351.9 467.9 351.5 465.5 C351.2 463.6 350.7 460.3 350.4 458.3 C350.0 455.5 348.3 453.1 343.0 447.8 C334.8 439.6 333.0 436.1 333.0 428.1 C333.0 423.0 332.7 422.0 331.3 422.0 C327.7 422.0 321.0 426.4 312.4 434.3 C289.4 455.4 285.1 458.7 274.0 464.4 C265.7 468.6 259.3 470.0 247.5 470.0 C231.5 470.0 222.8 467.1 216.2 459.6 C208.4 450.7 210.1 437.0 220.2 427.3 C223.4 424.3 231.1 421.0 235.0 421.0 C236.5 421.0 237.0 420.3 237.0 418.5 C237.0 417.0 237.6 416.0 238.4 416.0 C240.1 416.0 241.3 418.7 239.9 419.5 C238.4 420.5 239.7 421.7 242.7 422.3 C246.6 423.1 253.7 428.4 256.0 432.3 C259.1 437.3 258.7 445.5 255.1 451.2 C249.3 460.3 239.9 464.1 231.5 460.6 C224.5 457.6 223.2 450.5 228.7 444.8 C231.9 441.5 235.7 441.2 238.8 444.0 C242.3 447.3 241.1 454.0 237.0 454.0 C234.3 454.0 233.5 452.2 235.4 450.1 C236.9 448.5 236.9 448.2 235.5 447.0 C234.3 446.0 233.7 446.0 232.4 447.0 C225.8 452.5 231.3 459.0 240.6 456.6 C251.3 453.7 257.1 442.5 252.1 434.3 C249.2 429.6 241.7 425.6 236.0 425.7 C227.9 425.8 219.5 431.6 215.9 439.5 C210.0 452.4 220.1 463.6 239.5 465.5 C243.5 465.9 246.1 465.4 252.5 462.9 C265.5 457.7 272.5 452.3 289.5 434.7 C314.0 409.2 316.5 403.9 332.5 342.0 C338.3 319.7 344.5 278.6 343.8 266.5 C343.5 261.0 343.3 260.5 341.1 260.2 C336.9 259.6 314.1 264.9 311.6 267.1 C310.7 267.9 313.0 279.1 316.0 288.5 C323.6 312.3 324.0 345.1 316.9 363.4 C309.4 382.5 301.1 391.1 280.0 401.3 C271.0 405.7 264.4 407.0 248.5 407.7 C233.9 408.3 227.0 407.2 210.7 401.6 C193.0 395.5 181.1 387.9 164.7 372.1 C160.3 368.0 152.0 357.0 152.0 355.5 C152.0 355.1 150.7 352.9 149.0 350.5 C147.4 348.1 146.0 345.9 146.0 345.6 C146.0 345.3 144.4 341.5 142.4 337.3 C138.1 328.0 132.9 314.8 130.2 306.5 C128.3 300.5 128.3 300.5 122.8 300.7 C119.8 300.8 112.5 302.4 106.5 304.3 C78.6 313.2 63.6 316.5 51.5 316.5 C39.3 316.5 34.0 314.8 27.5 308.8 C21.1 303.0 19.6 299.1 20.3 290.3 C20.9 282.2 27.5 268.4 32.6 264.5 C35.3 262.5 35.9 261.4 35.4 259.6 C35.0 257.8 35.3 257.1 36.9 256.7 C38.0 256.5 39.1 256.7 39.3 257.3 C39.5 258.1 41.2 258.0 45.1 256.8 C54.6 253.9 62.7 256.4 69.9 264.6 C75.4 270.9 78.3 278.7 78.4 287.5 C78.4 293.9 78.2 294.9 74.8 300.0 C72.3 303.7 69.6 306.3 66.5 307.9 C64.0 309.2 62.1 310.5 62.3 310.6 C63.1 311.5 81.1 307.4 87.5 305.0 C88.6 304.6 91.5 303.7 94.0 303.1 C99.9 301.5 117.5 296.1 122.0 294.5 C126.3 292.9 126.2 293.4 122.5 271.0 C119.8 254.7 119.8 254.1 120.3 220.0 C120.9 185.5 121.0 183.7 126.0 149.5 C126.4 146.2 128.3 139.0 130.0 133.5 C131.8 128.0 133.5 122.4 134.0 121.0 C137.7 109.3 149.1 84.5 155.4 74.7 C159.7 67.9 175.6 52.3 183.8 46.7 C186.9 44.5 190.2 42.2 191.0 41.5 C194.3 38.7 208.7 31.7 216.9 29.0 C230.5 24.5 240.3 22.8 257.0 22.3 C280.4 21.5 294.6 23.9 314.2 31.9 C324.8 36.2 329.0 38.5 336.9 44.1 C353.1 55.5 361.4 63.4 369.0 74.2 C371.9 78.5 374.7 82.0 375.1 82.0 C375.5 82.0 376.1 80.9 376.4 79.6 C377.1 76.8 384.2 66.9 391.8 58.3 C402.1 46.4 426.0 31.8 438.5 29.6 C461.0 25.7 474.9 24.0 485.2 24.0 C498.5 24.0 505.5 25.3 519.1 30.6 C533.3 36.0 535.6 37.0 548.0 43.3 C557.7 48.1 561.3 50.7 570.3 58.9 C576.3 64.4 582.7 71.0 584.7 73.6 C586.7 76.3 589.6 80.1 591.0 82.0 C597.0 89.9 601.8 98.0 605.4 106.0 C607.5 110.7 610.7 117.6 612.6 121.3 C614.5 125.0 616.0 129.1 616.0 130.3 C616.0 131.6 616.9 134.3 618.0 136.5 C619.1 138.7 620.0 141.5 620.0 142.8 C620.0 144.1 620.4 145.9 621.0 146.9 C622.3 149.4 625.6 162.3 626.8 170.0 C627.6 175.0 629.3 216.5 629.2 230.5 C629.1 252.5 627.2 271.3 624.0 282.7 C622.9 286.7 622.0 291.1 622.0 292.6 C622.0 294.0 621.5 296.1 620.9 297.2 C619.9 299.0 620.6 300.1 627.0 306.5 C633.5 313.1 641.2 318.1 642.5 316.8 C642.8 316.5 642.1 314.3 641.0 311.9 C638.9 307.2 638.4 298.8 639.9 294.6 C641.9 289.6 649.2 283.3 655.2 281.6 C662.2 279.6 665.1 279.6 669.8 281.6 C685.2 288.0 688.8 310.1 676.4 322.6 C668.7 330.5 657.1 334.3 640.5 334.4 C630.5 334.5 621.8 332.5 613.8 328.4 C612.3 327.6 610.9 327.0 610.6 327.0 C610.4 327.0 608.8 330.0 607.0 333.7 C597.0 355.2 582.6 371.9 563.5 384.4 C548.4 394.3 542.9 397.2 531.9 400.9 C507.7 409.1 488.1 409.7 467.6 402.9 C455.1 398.7 448.0 394.7 439.3 386.8 C435.2 383.1 431.4 380.0 431.0 380.0 C429.0 380.0 421.7 370.9 418.1 364.0 C407.8 344.1 404.0 322.9 407.0 301.7 C408.8 289.8 412.1 274.9 414.6 267.8 C416.0 263.7 416.0 263.5 413.8 261.9 C411.8 260.3 408.7 259.2 400.5 256.9 C398.9 256.4 394.4 255.1 390.7 254.0 C373.4 248.8 346.1 249.2 322.5 255.2 C309.8 258.4 307.9 259.3 309.7 261.1 C310.5 261.9 312.5 261.7 317.2 260.2 C323.7 258.1 330.6 256.7 342.4 255.1 C354.3 253.4 375.8 256.1 398.0 262.1 C408.9 265.0 411.0 266.0 411.0 268.1 C411.0 270.5 409.8 270.5 403.2 268.0 C393.7 264.4 394.0 263.9 393.8 280.2 C393.3 325.7 393.6 337.2 395.9 346.5 C397.1 351.4 398.8 358.4 399.7 362.0 C401.4 369.4 405.8 383.0 406.9 384.5 C407.4 385.1 408.8 388.6 410.1 392.5 C411.5 396.7 413.9 401.0 415.9 403.3 C417.9 405.4 421.0 409.6 423.0 412.5 C433.0 427.5 465.0 462.3 471.8 465.6 C485.8 472.2 501.8 470.1 506.5 461.0 C509.0 456.1 510.2 449.1 509.0 445.5 C507.5 440.9 502.2 436.3 496.7 434.8 C492.3 433.7 491.6 433.7 487.7 435.8 C482.2 438.8 479.8 442.3 479.2 448.0 C478.7 453.6 481.0 459.3 484.8 461.8 C486.9 463.2 487.7 463.2 491.4 461.9 C494.4 460.9 495.6 459.9 495.8 458.2 C496.1 456.3 495.8 455.9 494.3 456.4 C493.3 456.7 491.9 456.5 491.1 456.1 C488.9 454.7 491.6 452.0 495.1 452.0 C501.1 452.0 502.8 460.1 497.5 463.6 C490.7 468.0 482.0 467.0 478.3 461.4 C473.1 453.4 472.7 446.1 477.2 439.4 C481.4 433.3 486.8 430.4 493.5 430.7 C499.8 430.9 502.5 432.0 507.3 436.1 C516.1 443.7 516.2 454.2 507.5 467.8 C504.2 473.0 502.5 474.6 497.6 477.0 C490.3 480.7 481.7 481.0 472.5 477.9 Z M348.6 478.3 C347.5 477.2 348.0 476.0 349.5 476.0 C350.3 476.0 351.0 476.4 351.0 476.9 C351.0 478.2 349.4 479.1 348.6 478.3 Z M219.2 476.3 C219.4 475.3 220.2 474.5 221.0 474.5 C223.2 474.5 222.8 477.4 220.7 477.8 C219.3 478.1 218.9 477.7 219.2 476.3 Z M392.2 475.8 C392.5 475.1 393.3 474.5 394.0 474.5 C394.7 474.5 395.5 475.1 395.8 475.8 C396.0 476.5 395.3 477.0 394.0 477.0 C392.7 477.0 392.0 476.5 392.2 475.8 Z M265.2 474.8 C265.8 473.0 268.0 472.7 268.0 474.4 C268.0 475.3 267.3 476.0 266.4 476.0 C265.5 476.0 265.0 475.5 265.2 474.8 Z M493.1 474.3 C494.4 472.8 494.2 472.7 490.8 473.3 C485.9 474.0 473.5 471.1 467.9 467.8 C459.5 462.9 434.6 435.5 419.5 414.8 C416.8 411.0 414.2 408.0 413.8 408.0 C413.3 408.0 412.7 408.8 412.3 409.8 C412.0 410.7 409.9 413.4 407.8 415.6 C405.6 417.9 404.2 420.0 404.7 420.3 C405.2 420.7 407.9 421.7 410.6 422.6 C420.7 426.0 439.2 441.7 449.4 455.5 C456.5 465.3 461.8 469.8 470.1 473.0 C479.0 476.5 490.8 477.2 493.1 474.3 Z M510.4 474.9 C509.4 473.2 511.7 471.3 513.1 472.7 C514.3 473.9 513.5 476.0 512.0 476.0 C511.5 476.0 510.8 475.5 510.4 474.9 Z M449.7 474.4 C448.4 473.1 449.0 472.0 451.1 472.0 C452.2 472.0 453.0 472.5 452.8 473.2 C452.3 474.6 450.6 475.3 449.7 474.4 Z M344.7 472.4 C343.8 471.4 344.9 470.0 346.6 470.0 C347.4 470.0 348.0 470.7 348.0 471.5 C348.0 473.0 345.9 473.6 344.7 472.4 Z M380.3 470.8 C384.3 469.3 386.0 465.2 386.0 457.4 C386.0 450.2 384.7 448.1 380.3 448.0 C375.6 448.0 371.8 458.9 375.5 462.0 C377.4 463.6 379.2 462.3 378.4 459.8 C377.9 458.2 378.2 457.9 380.2 458.2 C383.7 458.7 383.9 463.3 380.6 465.5 C378.5 466.9 377.5 467.0 374.6 466.0 C371.7 465.1 370.6 465.2 368.0 466.5 C364.2 468.5 360.5 467.8 359.0 465.0 C357.5 462.1 358.7 459.1 361.6 458.4 C364.6 457.6 365.8 458.6 364.2 460.2 C363.5 460.9 363.0 462.0 363.0 462.7 C363.0 464.8 365.8 464.2 367.5 461.7 C369.3 458.9 368.1 453.3 365.0 450.5 C363.1 448.8 362.8 448.8 358.4 450.5 C354.4 452.0 353.9 452.5 354.5 454.4 C354.9 455.5 355.5 458.8 355.7 461.5 C356.3 467.2 358.7 470.6 363.4 472.0 C367.0 473.0 376.2 472.4 380.3 470.8 Z M210.4 470.6 C209.6 468.4 210.7 467.3 212.2 468.8 C213.1 469.7 213.1 470.3 212.2 471.2 C211.3 472.1 210.9 471.9 210.4 470.6 Z M276.0 469.0 C276.0 468.4 276.7 468.0 277.5 468.0 C278.3 468.0 279.0 468.4 279.0 469.0 C279.0 469.6 278.3 470.0 277.5 470.0 C276.7 470.0 276.0 469.6 276.0 469.0 Z M393.4 468.9 C392.4 467.2 394.7 465.3 396.1 466.7 C397.3 467.9 396.5 470.0 395.0 470.0 C394.5 470.0 393.8 469.5 393.4 468.9 Z M442.7 468.4 C441.8 467.4 442.9 466.0 444.6 466.0 C445.4 466.0 446.0 466.7 446.0 467.5 C446.0 469.0 443.9 469.6 442.7 468.4 Z M516.0 466.5 C516.0 465.5 516.7 465.0 517.8 465.2 C519.9 465.6 519.7 467.4 517.6 467.8 C516.6 468.0 516.0 467.5 516.0 466.5 Z M344.7 466.2 C343.6 464.2 343.1 460.1 343.9 459.6 C344.6 459.1 348.0 464.1 348.0 465.5 C348.0 466.2 345.0 466.8 344.7 466.2 Z M286.2 464.4 C286.3 463.5 287.1 462.5 287.8 462.2 C288.7 461.9 289.1 462.4 288.8 463.6 C288.7 464.5 287.9 465.5 287.2 465.8 C286.3 466.1 285.9 465.6 286.2 464.4 Z M275.3 459.4 C283.4 454.5 289.4 449.6 301.0 438.4 C311.8 427.8 317.6 423.3 324.0 420.0 C326.5 418.8 328.6 417.6 328.8 417.5 C329.0 417.3 328.4 415.8 327.6 414.1 C326.7 412.5 326.0 409.8 326.0 408.1 C326.0 406.5 325.5 404.8 324.9 404.4 C323.2 403.4 316.9 409.2 311.9 416.5 C304.8 426.8 276.8 454.7 268.7 459.4 C265.0 461.5 262.0 463.5 262.0 463.8 C262.0 465.2 269.8 462.6 275.3 459.4 Z M203.0 461.5 C203.0 460.7 203.9 460.0 205.0 460.0 C206.1 460.0 207.0 460.7 207.0 461.5 C207.0 462.3 206.1 463.0 205.0 463.0 C203.9 463.0 203.0 462.3 203.0 461.5 Z M396.4 460.9 C395.4 459.2 397.7 457.3 399.1 458.7 C400.3 459.9 399.5 462.0 398.0 462.0 C397.5 462.0 396.8 461.5 396.4 460.9 Z M436.2 460.8 C436.5 460.1 437.5 459.3 438.4 459.2 C439.6 458.9 440.1 459.3 439.8 460.2 C439.5 460.9 438.5 461.7 437.6 461.8 C436.4 462.1 435.9 461.7 436.2 460.8 Z M519.4 458.9 C518.4 457.2 520.7 455.3 522.1 456.7 C523.3 457.9 522.5 460.0 521.0 460.0 C520.5 460.0 519.8 459.5 519.4 458.9 Z M294.6 458.1 C294.3 457.6 294.7 456.7 295.4 456.1 C297.0 454.8 298.6 456.3 297.5 458.0 C296.7 459.2 295.3 459.3 294.6 458.1 Z M341.5 457.0 C341.1 456.4 341.2 455.4 341.8 454.8 C342.4 454.2 343.0 454.2 343.5 455.0 C343.9 455.6 343.8 456.6 343.2 457.2 C342.6 457.8 342.0 457.8 341.5 457.0 Z M399.4 453.9 C398.6 452.5 400.5 450.6 401.9 451.4 C402.5 451.8 403.0 452.5 403.0 453.0 C403.0 454.3 400.1 455.0 399.4 453.9 Z M262.0 452.5 C261.0 451.3 261.1 450.9 262.3 450.4 C264.0 449.8 266.0 450.6 266.0 452.0 C266.0 453.5 263.1 453.9 262.0 452.5 Z M429.2 452.8 C429.5 452.1 430.3 451.5 431.0 451.5 C431.7 451.5 432.5 452.1 432.8 452.8 C433.0 453.5 432.3 454.0 431.0 454.0 C429.7 454.0 429.0 453.5 429.2 452.8 Z M199.7 452.4 C198.7 451.3 200.0 450.0 202.1 450.0 C203.1 450.0 204.0 450.7 204.0 451.5 C204.0 453.0 200.9 453.6 199.7 452.4 Z M302.2 450.8 C302.7 449.3 305.0 449.0 305.1 450.5 C305.1 451.1 304.4 451.7 303.4 451.8 C302.4 452.1 301.9 451.7 302.2 450.8 Z M520.7 451.4 C519.8 450.4 520.9 449.0 522.6 449.0 C523.4 449.0 524.0 449.7 524.0 450.5 C524.0 452.0 521.9 452.6 520.7 451.4 Z M337.0 449.5 C337.0 448.7 337.7 448.0 338.5 448.0 C339.3 448.0 340.0 448.7 340.0 449.5 C340.0 450.3 339.3 451.0 338.5 451.0 C337.7 451.0 337.0 450.3 337.0 449.5 Z M461.0 448.0 C461.0 446.9 461.6 446.0 462.3 446.0 C464.2 446.0 465.0 447.0 464.3 448.6 C463.5 450.7 461.0 450.3 461.0 448.0 Z M358.1 445.9 C364.0 442.1 366.0 439.2 366.0 434.0 C366.0 428.4 360.3 418.0 351.6 407.6 C349.2 404.7 349.2 404.7 346.7 406.6 C339.4 412.0 334.8 428.6 338.5 436.3 C340.5 440.6 349.2 449.0 351.6 449.0 C352.6 449.0 355.5 447.6 358.1 445.9 Z M332.0 446.1 C332.0 444.9 332.6 444.0 333.6 444.0 C334.5 444.0 335.0 444.7 334.8 445.7 C334.3 448.2 332.0 448.5 332.0 446.1 Z M403.0 447.0 C403.0 446.4 403.7 446.0 404.5 446.0 C405.3 446.0 406.0 446.4 406.0 447.0 C406.0 447.6 405.3 448.0 404.5 448.0 C403.7 448.0 403.0 447.6 403.0 447.0 Z M393.3 443.1 C398.9 436.9 400.0 434.0 400.0 425.3 C400.0 416.2 398.5 411.1 394.5 407.0 C390.9 403.2 388.4 403.1 387.7 406.8 C387.4 408.3 385.8 411.1 384.1 413.0 C377.1 420.9 373.5 433.2 376.4 438.9 C377.9 441.7 385.6 446.8 388.6 447.0 C389.3 447.0 391.4 445.2 393.3 443.1 Z M422.2 444.8 C422.7 443.3 425.0 443.0 425.1 444.5 C425.1 445.1 424.4 445.7 423.4 445.8 C422.4 446.1 421.9 445.7 422.2 444.8 Z M265.0 443.5 C264.0 442.3 264.1 441.9 265.3 441.4 C267.0 440.8 269.0 441.6 269.0 443.0 C269.0 444.5 266.1 444.9 265.0 443.5 Z M310.0 443.6 C310.0 442.7 310.7 442.0 311.6 442.0 C312.5 442.0 313.0 442.5 312.8 443.2 C312.2 445.0 310.0 445.3 310.0 443.6 Z M455.0 442.5 C454.0 441.3 454.1 440.9 455.5 440.4 C457.8 439.5 459.5 441.4 457.7 442.9 C456.6 443.8 456.0 443.7 455.0 442.5 Z M274.5 442.0 C273.8 440.8 274.7 439.0 276.1 439.0 C277.3 439.0 277.3 441.7 276.1 442.5 C275.6 442.8 274.9 442.6 274.5 442.0 Z M328.5 441.9 C327.5 440.4 328.6 439.6 330.5 440.4 C331.4 440.7 331.8 441.4 331.5 442.0 C330.7 443.3 329.3 443.3 328.5 441.9 Z M519.1 441.6 C517.9 440.2 518.6 439.0 520.7 439.0 C522.2 439.0 522.5 441.6 521.1 442.4 C520.6 442.7 519.7 442.4 519.1 441.6 Z M200.5 441.0 C199.7 439.8 202.5 438.6 204.0 439.5 C204.5 439.8 205.0 440.5 205.0 441.1 C205.0 442.3 201.3 442.3 200.5 441.0 Z M407.2 440.4 C407.6 438.3 409.4 438.1 409.8 440.2 C410.0 441.3 409.5 442.0 408.5 442.0 C407.5 442.0 407.0 441.4 407.2 440.4 Z M351.8 440.3 C350.9 440.1 349.8 438.9 349.4 437.7 C348.8 435.9 348.6 425.0 348.9 420.0 C349.1 418.3 350.9 418.9 355.9 422.5 C360.7 426.0 362.0 428.5 362.0 434.5 C362.0 438.3 356.4 441.6 351.8 440.3 Z M380.6 438.7 C377.1 435.2 377.3 432.6 381.3 428.6 C383.1 426.8 385.9 423.2 387.6 420.6 C391.9 413.8 393.5 414.7 393.6 424.0 C393.7 436.1 392.3 439.4 386.2 440.6 C383.7 441.1 382.6 440.7 380.6 438.7 Z M416.2 438.8 C416.7 437.3 419.0 437.0 419.1 438.5 C419.1 439.1 418.4 439.7 417.4 439.8 C416.4 440.1 415.9 439.7 416.2 438.8 Z M464.2 438.8 C464.9 436.9 468.0 436.6 468.0 438.4 C468.0 439.4 467.1 440.0 465.9 440.0 C464.7 440.0 464.0 439.5 464.2 438.8 Z M317.6 438.3 C316.5 437.2 317.0 436.0 318.5 436.0 C319.3 436.0 320.0 436.4 320.0 436.9 C320.0 438.2 318.4 439.1 317.6 438.3 Z M326.2 436.9 C326.4 436.3 327.0 435.9 327.5 435.9 C328.0 435.9 328.6 436.3 328.8 436.9 C329.0 437.5 328.4 438.0 327.5 438.0 C326.6 438.0 326.0 437.5 326.2 436.9 Z M356.8 436.8 C358.7 434.9 358.3 431.0 356.2 431.0 C351.4 431.0 350.4 437.3 355.1 437.9 C355.4 438.0 356.1 437.5 356.8 436.8 Z M388.3 435.6 C389.7 433.5 389.7 433.0 388.5 432.0 C385.0 429.1 380.2 433.1 383.0 436.5 C384.8 438.7 386.6 438.3 388.3 435.6 Z M449.2 435.3 C449.4 434.3 450.2 433.5 451.0 433.5 C453.2 433.5 452.8 436.4 450.7 436.8 C449.3 437.1 448.9 436.7 449.2 435.3 Z M410.2 434.8 C410.7 433.3 413.0 433.0 413.1 434.5 C413.1 435.1 412.4 435.7 411.4 435.8 C410.4 436.1 409.9 435.7 410.2 434.8 Z M262.0 433.5 C261.0 432.3 261.1 431.9 262.5 431.4 C264.8 430.5 266.5 432.4 264.7 433.9 C263.6 434.8 263.0 434.7 262.0 433.5 Z M281.2 433.8 C281.9 431.9 285.0 431.6 285.0 433.4 C285.0 434.4 284.1 435.0 282.9 435.0 C281.7 435.0 281.0 434.5 281.2 433.8 Z M517.6 434.3 C516.4 433.1 517.0 431.0 518.5 431.0 C519.3 431.0 520.0 431.6 520.0 432.4 C520.0 434.1 518.6 435.2 517.6 434.3 Z M205.0 432.0 C205.0 430.5 205.5 430.0 206.8 430.2 C207.7 430.4 208.5 431.2 208.5 432.0 C208.5 432.8 207.7 433.6 206.8 433.8 C205.5 434.0 205.0 433.5 205.0 432.0 Z M324.5 433.0 C324.2 432.4 324.6 431.7 325.5 431.4 C327.4 430.6 328.5 431.4 327.5 432.9 C326.7 434.3 325.3 434.3 324.5 433.0 Z M469.0 431.5 C469.0 430.7 469.7 430.0 470.5 430.0 C471.3 430.0 472.0 430.7 472.0 431.5 C472.0 432.3 471.3 433.0 470.5 433.0 C469.7 433.0 469.0 432.3 469.0 431.5 Z M442.0 429.6 C442.0 428.8 442.4 427.9 442.8 427.6 C444.1 426.8 446.3 428.7 445.6 429.9 C444.6 431.5 442.0 431.3 442.0 429.6 Z M356.0 427.5 C356.0 426.7 355.3 426.0 354.5 426.0 C352.9 426.0 352.5 427.2 353.7 428.3 C354.8 429.5 356.0 429.1 356.0 427.5 Z M512.4 427.9 C511.6 426.5 513.5 424.6 514.9 425.4 C515.5 425.8 516.0 426.8 516.0 427.6 C516.0 429.2 513.4 429.5 512.4 427.9 Z M254.7 427.4 C253.3 425.9 254.1 424.0 256.1 424.0 C257.5 424.0 258.0 424.5 257.8 425.7 C257.5 427.5 255.8 428.4 254.7 427.4 Z M211.7 426.4 C210.3 425.0 211.0 423.9 213.0 424.2 C214.2 424.4 215.1 424.9 215.1 425.5 C215.1 426.7 212.7 427.3 211.7 426.4 Z M290.0 425.5 C290.0 424.7 290.7 424.0 291.5 424.0 C292.3 424.0 293.0 424.7 293.0 425.5 C293.0 426.3 292.3 427.0 291.5 427.0 C290.7 427.0 290.0 426.3 290.0 425.5 Z M475.0 425.6 C475.0 424.6 475.9 424.0 477.1 424.0 C479.5 424.0 479.2 426.3 476.7 426.8 C475.7 427.0 475.0 426.5 475.0 425.6 Z M505.0 423.6 C505.0 422.6 505.9 422.0 507.1 422.0 C509.5 422.0 509.2 424.3 506.7 424.8 C505.7 425.0 505.0 424.5 505.0 423.6 Z M436.7 422.4 C435.3 421.0 436.0 418.9 437.8 419.2 C438.7 419.4 439.5 420.2 439.5 420.9 C439.5 422.5 437.7 423.4 436.7 422.4 Z M483.7 422.3 C483.3 422.0 483.0 421.1 483.0 420.3 C483.0 418.8 485.6 418.5 486.4 419.9 C487.1 421.0 484.6 423.2 483.7 422.3 Z M495.0 421.5 C495.0 420.5 495.7 420.0 496.8 420.2 C498.9 420.6 498.7 422.4 496.6 422.8 C495.6 423.0 495.0 422.5 495.0 421.5 Z M219.5 421.1 C218.7 419.6 219.8 418.0 221.6 418.0 C222.5 418.0 223.0 418.7 222.8 419.7 C222.4 421.7 220.4 422.5 219.5 421.1 Z M247.0 420.7 C247.0 418.8 248.0 418.0 249.6 418.7 C251.7 419.5 251.3 422.0 249.0 422.0 C247.9 422.0 247.0 421.4 247.0 420.7 Z M229.0 418.5 C228.0 417.3 228.1 416.9 229.3 416.4 C231.4 415.6 233.0 416.7 232.3 418.5 C231.6 420.4 230.6 420.4 229.0 418.5 Z M254.0 417.1 C254.0 415.8 256.6 413.9 257.3 414.7 C258.7 416.0 257.9 418.0 256.0 418.0 C254.9 418.0 254.0 417.6 254.0 417.1 Z M297.2 416.3 C297.7 413.8 300.0 413.5 300.0 415.9 C300.0 417.1 299.4 418.0 298.4 418.0 C297.5 418.0 297.0 417.3 297.2 416.3 Z M497.6 416.5 C497.0 414.8 499.3 413.4 501.0 414.5 C501.8 415.0 501.8 415.6 500.9 416.6 C499.4 418.4 498.4 418.4 497.6 416.5 Z M506.7 417.3 C506.4 416.8 506.5 415.8 507.0 415.1 C508.0 413.4 511.3 414.5 510.8 416.3 C510.2 417.8 507.4 418.5 506.7 417.3 Z M266.3 415.4 C265.6 413.5 266.5 412.6 268.5 413.3 C270.4 414.1 270.4 415.6 268.5 416.4 C267.6 416.7 266.7 416.3 266.3 415.4 Z M477.7 416.3 C476.5 415.1 477.0 413.2 478.7 412.6 C481.1 411.7 482.6 413.5 481.0 415.5 C479.6 417.1 478.7 417.4 477.7 416.3 Z M487.5 416.0 C486.6 414.5 487.9 413.0 490.1 413.0 C492.3 413.0 492.5 414.1 490.8 415.8 C489.3 417.3 488.3 417.3 487.5 416.0 Z M516.0 415.1 C516.0 413.6 516.6 413.0 518.1 413.0 C519.5 413.0 520.0 413.5 519.8 414.7 C519.3 417.3 516.0 417.6 516.0 415.1 Z M218.0 415.0 C218.0 414.4 218.9 414.0 220.1 414.0 C221.2 414.0 221.8 414.4 221.5 415.0 C221.2 415.6 220.2 416.0 219.4 416.0 C218.6 416.0 218.0 415.6 218.0 415.0 Z M337.1 412.9 C340.8 403.8 352.2 396.2 358.4 398.6 C360.7 399.5 360.4 402.7 358.0 403.5 C355.7 404.2 355.3 406.5 357.4 407.3 C359.3 408.0 365.4 404.0 365.8 401.7 C366.0 400.8 364.8 398.6 363.2 397.0 C360.4 394.3 359.5 394.0 353.8 394.0 C346.9 394.0 339.2 395.8 333.3 398.6 C329.6 400.5 329.5 400.6 329.9 405.5 C330.3 411.1 332.4 416.0 334.4 416.0 C335.1 416.0 336.3 414.6 337.1 412.9 Z M430.6 415.1 C429.9 414.0 432.4 411.8 433.3 412.7 C433.7 413.0 434.0 413.9 434.0 414.7 C434.0 416.2 431.4 416.5 430.6 415.1 Z M525.0 413.9 C525.0 412.5 525.5 412.0 526.7 412.2 C529.3 412.7 529.6 416.0 527.1 416.0 C525.6 416.0 525.0 415.4 525.0 413.9 Z M207.4 413.9 C207.1 413.3 207.2 412.4 207.6 412.0 C208.8 410.8 211.4 412.5 210.6 413.9 C209.7 415.3 208.3 415.3 207.4 413.9 Z M274.7 414.4 C273.8 413.4 274.9 412.0 276.6 412.0 C277.4 412.0 278.0 412.7 278.0 413.5 C278.0 415.0 275.9 415.6 274.7 414.4 Z M410.5 405.8 C411.1 403.5 410.6 402.7 406.8 400.0 C400.2 395.1 396.1 393.7 388.9 393.7 C383.4 393.7 381.7 394.2 378.2 396.5 C373.2 399.8 371.9 403.2 374.5 406.0 C376.7 408.4 382.5 408.7 383.4 406.5 C383.9 405.0 383.5 404.7 379.2 403.4 C377.3 402.9 377.8 401.2 380.1 399.9 C385.6 397.0 397.5 402.0 401.0 408.6 C404.1 414.4 404.0 414.4 407.1 411.4 C408.6 409.8 410.2 407.3 410.5 405.8 Z M464.5 413.1 C463.7 411.6 464.8 410.0 466.6 410.0 C467.5 410.0 468.0 410.7 467.8 411.7 C467.4 413.7 465.4 414.5 464.5 413.1 Z M284.2 410.4 C284.4 409.3 285.3 408.4 286.4 408.2 C287.7 407.9 288.1 408.3 287.8 409.6 C287.6 410.7 286.7 411.6 285.6 411.8 C284.3 412.1 283.9 411.7 284.2 410.4 Z M536.7 411.3 C535.4 410.1 536.0 409.0 538.0 409.0 C539.1 409.0 540.0 409.7 540.0 410.5 C540.0 412.0 537.9 412.6 536.7 411.3 Z M197.2 409.4 C197.4 408.3 198.3 407.4 199.4 407.2 C200.7 406.9 201.1 407.3 200.8 408.6 C200.6 409.7 199.7 410.6 198.6 410.8 C197.3 411.1 196.9 410.7 197.2 409.4 Z M301.0 410.1 C301.0 408.8 303.6 406.9 304.3 407.7 C305.7 409.0 304.9 411.0 303.0 411.0 C301.9 411.0 301.0 410.6 301.0 410.1 Z M453.5 410.0 C453.1 409.3 453.2 408.4 453.8 407.8 C455.2 406.4 458.3 407.6 457.8 409.3 C457.2 410.9 454.4 411.4 453.5 410.0 Z M295.0 406.1 C295.0 404.9 295.6 404.0 296.6 404.0 C297.5 404.0 298.0 404.7 297.8 405.7 C297.3 408.2 295.0 408.5 295.0 406.1 Z M548.4 406.9 C547.4 405.2 549.7 403.3 551.1 404.7 C552.3 405.9 551.5 408.0 550.0 408.0 C549.5 408.0 548.8 407.5 548.4 406.9 Z M426.0 405.5 C426.0 404.5 426.7 404.0 427.8 404.2 C429.9 404.6 429.7 406.4 427.6 406.8 C426.6 407.0 426.0 406.5 426.0 405.5 Z M188.5 405.1 C187.7 403.6 188.8 402.0 190.6 402.0 C191.5 402.0 192.0 402.7 191.8 403.7 C191.4 405.7 189.4 406.5 188.5 405.1 Z M443.7 405.3 C442.9 404.6 444.8 402.0 446.1 402.0 C446.6 402.0 447.0 402.9 447.0 404.0 C447.0 405.9 445.0 406.7 443.7 405.3 Z M267.0 401.6 C271.1 400.6 277.4 398.2 281.0 396.2 C284.6 394.2 288.8 391.8 290.4 391.0 C296.3 388.0 305.1 378.1 308.6 370.5 C315.2 356.2 316.5 349.6 316.5 329.5 C316.5 310.9 315.2 302.0 310.1 285.5 C309.1 282.2 306.7 272.0 304.9 262.8 C301.5 246.2 300.4 243.6 298.1 247.9 C297.3 249.3 297.5 251.2 298.5 254.7 C301.4 264.2 306.8 287.7 308.4 297.5 C311.6 318.3 312.0 322.2 312.0 334.1 C312.0 349.6 309.6 359.5 303.6 368.4 C292.5 384.9 267.1 398.0 246.4 398.0 C231.4 398.0 218.7 394.9 204.7 387.9 C193.6 382.4 188.7 378.8 178.9 369.0 C168.9 359.0 164.1 352.1 157.7 339.0 C153.0 329.3 144.0 306.6 144.0 304.3 C144.0 303.7 143.5 301.9 142.8 300.5 C141.9 298.6 140.9 298.0 138.3 298.0 C132.8 298.0 132.8 299.4 138.2 314.0 C140.4 320.0 143.9 328.6 147.6 336.8 C148.9 339.7 150.0 342.3 150.0 342.6 C150.0 342.9 150.9 344.4 151.9 345.8 C152.9 347.3 155.1 350.9 156.7 353.7 C160.9 361.4 167.2 368.5 177.4 377.2 C192.6 390.1 203.5 395.6 225.5 401.5 C233.2 403.6 236.3 403.9 247.0 403.6 C254.1 403.4 262.7 402.5 267.0 401.6 Z M513.9 401.3 C522.5 399.5 531.8 396.7 537.7 393.9 C540.1 392.9 542.2 392.0 542.4 392.0 C543.2 392.0 557.3 383.7 563.9 379.3 C571.8 374.1 587.0 359.4 592.0 352.0 C596.8 345.0 606.0 326.6 606.0 324.1 C606.0 323.1 605.3 321.7 604.5 321.0 C603.3 320.0 602.8 320.4 601.4 323.7 C596.7 334.9 589.9 347.1 585.1 352.9 C574.2 366.1 551.9 383.6 543.0 386.0 C541.1 386.5 537.7 387.9 535.5 389.1 C533.3 390.3 530.1 391.7 528.5 392.1 C526.9 392.5 523.7 393.4 521.5 393.9 C519.3 394.5 513.0 395.7 507.5 396.5 C497.5 398.1 489.8 397.6 480.5 395.0 C478.9 394.5 475.5 393.6 473.0 393.0 C470.5 392.3 465.3 390.3 461.4 388.4 C447.0 381.6 436.9 373.2 429.1 361.5 C420.1 348.0 418.9 343.5 418.2 320.5 C417.6 299.1 418.5 290.9 423.9 267.0 C425.5 260.0 430.2 247.2 435.0 237.0 C437.7 231.2 440.1 225.7 440.4 224.8 C441.1 222.6 444.6 222.4 445.3 224.5 C445.7 225.3 445.3 228.3 444.5 231.2 C440.6 245.6 439.0 251.0 437.0 257.0 C430.8 275.9 428.0 310.5 431.5 325.5 C434.2 337.1 434.8 339.0 438.1 345.5 C445.5 360.2 456.3 369.8 471.0 374.7 C478.7 377.2 480.8 377.5 494.0 377.5 C505.9 377.5 509.4 377.2 513.5 375.6 C521.8 372.4 539.0 360.4 539.0 357.9 C539.0 357.4 537.5 357.0 535.6 357.0 C533.0 357.0 530.9 358.1 526.8 361.6 C515.7 371.0 500.9 375.9 487.2 374.7 C470.1 373.1 443.7 352.4 440.0 337.7 C439.5 336.0 438.0 330.0 436.6 324.5 C433.6 312.7 433.4 304.2 435.6 289.1 C437.1 278.9 441.2 261.4 442.9 258.1 C443.9 256.2 447.3 246.2 449.0 240.0 C449.7 237.5 450.6 234.2 451.1 232.6 C452.4 228.4 452.2 224.6 450.5 221.4 C449.7 219.8 449.3 217.5 449.6 216.3 C450.4 213.3 449.6 213.4 445.2 216.9 C440.7 220.5 437.3 221.4 433.7 220.1 C427.9 217.9 418.8 201.0 420.9 196.3 C422.0 193.9 424.9 193.3 427.9 195.0 C429.2 195.6 430.4 195.4 432.0 194.3 C434.0 192.9 434.2 192.2 433.5 187.6 C432.5 181.1 432.5 171.2 433.4 168.0 C434.0 165.9 433.3 164.5 428.8 159.6 C422.2 152.3 414.4 146.0 411.9 146.0 C410.5 146.0 410.0 146.7 410.0 148.5 C410.0 152.9 416.5 168.3 422.3 177.9 C425.4 183.0 428.0 187.5 428.0 188.0 C428.0 189.6 425.9 190.2 424.5 189.0 C423.4 188.1 422.2 188.3 419.1 190.1 C416.8 191.3 414.8 193.1 414.5 194.0 C413.7 196.4 417.3 204.2 422.9 212.5 C425.5 216.3 428.2 221.0 428.8 222.9 C431.4 230.3 429.8 239.0 422.1 260.0 C417.7 272.1 416.2 277.2 413.0 291.5 C410.7 301.5 409.7 319.0 410.9 327.3 C413.1 342.8 419.0 359.4 425.6 368.8 C431.1 376.5 447.6 390.7 455.5 394.4 C473.9 403.3 493.5 405.6 513.9 401.3 Z M306.7 402.4 C305.8 401.4 306.9 400.0 308.6 400.0 C309.4 400.0 310.0 400.7 310.0 401.5 C310.0 403.0 307.9 403.6 306.7 402.4 Z M558.2 401.3 C558.4 400.3 559.2 399.5 560.0 399.5 C562.2 399.5 561.8 402.4 559.7 402.8 C558.3 403.1 557.9 402.7 558.2 401.3 Z M179.2 400.4 C179.6 398.3 181.4 398.1 181.8 400.2 C182.0 401.3 181.5 402.0 180.5 402.0 C179.5 402.0 179.0 401.4 179.2 400.4 Z M328.2 397.1 C338.9 391.3 349.1 389.2 369.5 388.3 C381.6 387.8 390.1 389.0 403.3 392.7 C404.8 393.2 405.0 392.8 404.4 390.4 C404.0 388.8 402.5 384.8 401.0 381.4 C399.5 378.1 396.9 369.6 395.2 362.4 C393.4 355.3 391.5 347.5 390.8 345.0 C389.9 341.9 389.5 328.8 389.3 302.5 C389.1 264.5 389.1 264.5 385.9 263.7 C384.1 263.2 382.3 263.3 381.8 263.8 C380.4 265.2 379.1 322.4 380.1 341.0 C380.9 356.4 381.4 360.5 384.0 372.0 C385.8 380.0 386.2 383.7 385.4 384.2 C384.9 384.5 381.4 384.1 377.5 383.4 C368.4 381.8 353.3 381.7 347.5 383.2 C344.4 384.0 342.7 384.1 342.0 383.4 C341.0 382.4 341.5 377.3 344.0 363.5 C346.7 348.8 347.5 342.5 351.0 308.0 C352.1 297.3 353.4 285.6 353.9 282.0 C354.4 278.4 355.1 272.0 355.4 267.8 C356.0 260.2 355.9 260.0 353.5 259.4 C348.6 258.2 348.0 259.2 348.0 269.3 C348.0 280.9 343.8 313.2 340.4 328.5 C339.5 332.4 338.0 339.1 337.0 343.5 C333.5 358.9 324.2 390.5 320.5 399.2 C319.5 401.6 319.8 401.6 328.2 397.1 Z M434.0 399.6 C434.0 398.8 434.4 397.9 434.8 397.6 C436.1 396.8 438.3 398.7 437.6 399.9 C436.6 401.5 434.0 401.3 434.0 399.6 Z M421.2 396.4 C421.6 394.3 423.4 394.1 423.8 396.2 C424.0 397.3 423.5 398.0 422.5 398.0 C421.5 398.0 421.0 397.4 421.2 396.4 Z M566.5 397.0 C565.7 395.7 566.8 394.0 568.5 394.0 C569.9 394.0 571.2 396.4 570.3 397.4 C569.3 398.3 567.2 398.1 566.5 397.0 Z M170.7 394.4 C169.8 393.4 170.9 392.0 172.6 392.0 C173.4 392.0 174.0 392.7 174.0 393.5 C174.0 395.0 171.9 395.6 170.7 394.4 Z M424.7 392.4 C423.8 391.4 424.9 390.0 426.6 390.0 C427.4 390.0 428.0 390.7 428.0 391.5 C428.0 393.0 425.9 393.6 424.7 392.4 Z M574.7 392.4 C573.3 391.0 574.0 388.9 575.8 389.2 C576.7 389.4 577.5 390.2 577.5 390.9 C577.5 392.5 575.7 393.4 574.7 392.4 Z M163.2 386.3 C163.6 384.2 166.5 383.8 166.5 386.0 C166.5 386.8 165.7 387.6 164.7 387.8 C163.3 388.1 162.9 387.7 163.2 386.3 Z M580.2 384.2 C580.4 383.3 581.2 382.5 582.0 382.5 C582.8 382.5 583.6 383.3 583.8 384.2 C584.0 385.5 583.5 386.0 582.0 386.0 C580.5 386.0 580.0 385.5 580.2 384.2 Z M259.8 383.0 C262.4 382.4 266.7 381.4 269.5 380.8 C274.5 379.7 282.3 375.8 289.6 370.9 C294.3 367.7 301.0 360.6 301.0 358.7 C301.0 358.1 301.7 356.3 302.5 354.7 C304.4 351.0 306.4 324.8 305.6 313.5 C304.8 303.9 300.0 278.1 297.7 271.5 C296.9 269.3 295.5 264.0 294.6 259.7 C292.9 252.0 291.1 249.5 288.8 251.8 C287.5 253.1 289.3 263.0 295.0 284.5 C301.8 310.3 303.2 323.3 300.9 338.3 C296.0 370.2 266.7 385.1 231.0 373.9 C223.0 371.3 217.3 368.0 209.0 361.1 C200.9 354.2 199.2 352.4 195.1 345.2 C193.2 342.1 190.3 337.2 188.7 334.5 C180.8 321.7 175.3 308.5 173.5 297.9 C172.6 293.2 171.5 291.6 169.6 292.3 C163.1 294.8 177.0 336.5 190.4 354.7 C202.7 371.5 226.3 383.8 246.3 383.9 C251.2 384.0 257.2 383.5 259.8 383.0 Z M418.0 382.6 C418.0 381.8 418.4 380.9 418.8 380.6 C420.1 379.8 422.3 381.7 421.6 382.9 C420.6 384.5 418.0 384.3 418.0 382.6 Z M155.6 379.2 C155.4 378.8 155.5 377.8 156.0 377.0 C156.7 375.9 157.2 375.8 158.1 376.7 C158.7 377.3 158.9 378.3 158.6 378.9 C157.8 380.2 156.3 380.3 155.6 379.2 Z M586.5 378.0 C585.7 376.6 586.8 375.0 588.6 375.0 C589.4 375.0 590.0 375.9 590.0 377.0 C590.0 379.1 587.6 379.8 586.5 378.0 Z M413.2 374.8 C413.8 373.0 416.0 372.7 416.0 374.4 C416.0 375.3 415.3 376.0 414.4 376.0 C413.5 376.0 413.0 375.5 413.2 374.8 Z M273.5 369.1 C284.7 364.0 291.7 355.6 294.9 343.5 C296.8 336.5 297.3 322.7 296.1 312.4 C294.8 302.2 289.4 279.5 287.7 277.3 C287.0 276.3 285.3 277.1 280.8 280.2 C271.5 286.7 262.2 298.1 255.0 311.8 C251.4 318.6 249.6 319.5 247.8 315.2 C243.6 305.1 241.8 301.9 238.5 298.7 C229.0 289.4 218.3 287.1 195.9 289.5 C188.5 290.3 181.5 291.0 180.4 291.0 C177.4 291.0 177.0 292.6 178.6 299.0 C181.3 309.6 185.2 319.0 191.4 329.2 C194.8 334.9 198.4 341.2 199.3 343.3 C203.4 351.8 220.4 365.8 230.8 369.1 C241.0 372.4 244.6 372.9 256.0 372.6 C265.4 372.3 267.3 372.0 273.5 369.1 Z M149.7 371.4 C148.3 369.9 149.1 368.0 151.1 368.0 C152.5 368.0 153.0 368.5 152.8 369.7 C152.5 371.5 150.8 372.4 149.7 371.4 Z M499.5 370.5 C508.1 369.3 525.0 360.2 525.0 356.6 C525.0 356.0 522.9 354.5 520.2 353.3 C513.6 350.2 501.1 339.2 496.4 332.3 C489.4 322.1 483.1 306.7 481.1 294.5 C477.5 273.2 477.9 273.9 467.2 274.1 C462.4 274.1 455.3 273.9 451.3 273.5 C445.0 272.8 444.1 273.0 443.2 274.6 C441.3 278.3 439.5 293.7 439.5 306.0 C439.6 318.9 441.2 327.5 446.0 340.4 C451.4 354.7 479.4 373.4 492.5 371.4 C493.6 371.2 496.7 370.8 499.5 370.5 Z M594.3 370.4 C593.6 368.5 594.5 367.6 596.5 368.3 C598.4 369.1 598.4 370.6 596.5 371.4 C595.6 371.7 594.7 371.3 594.3 370.4 Z M142.7 359.5 C141.9 357.7 143.8 356.4 145.2 357.8 C146.3 358.9 145.5 361.0 144.0 361.0 C143.6 361.0 143.0 360.3 142.7 359.5 Z M601.7 360.3 C600.4 359.1 601.0 358.0 603.0 358.0 C604.1 358.0 605.0 358.7 605.0 359.5 C605.0 361.0 602.9 361.6 601.7 360.3 Z M543.4 351.5 C556.0 348.8 570.6 340.0 585.0 326.4 C588.0 323.5 592.2 319.9 594.2 318.3 C598.4 315.1 599.1 313.4 595.8 314.5 C594.5 314.9 591.8 315.4 589.7 315.7 C586.5 316.1 585.6 315.8 583.0 313.0 C580.5 310.3 580.0 309.0 580.0 304.6 C580.0 300.0 580.3 299.1 583.0 297.2 C588.1 293.4 586.9 285.0 580.3 278.8 C573.9 272.7 564.4 270.5 557.2 273.5 C548.7 277.1 547.0 282.8 554.1 284.2 C566.4 286.6 573.0 290.3 575.9 296.4 C578.3 301.3 578.5 303.7 576.6 310.5 C574.0 320.4 571.3 323.7 561.5 329.1 C556.1 332.1 554.7 332.4 547.0 332.5 C539.5 332.5 537.9 332.2 533.8 329.8 C523.3 323.5 514.4 308.6 511.1 291.0 C509.7 283.7 508.9 230.0 510.0 218.0 C515.9 155.5 514.5 130.3 503.9 108.5 C495.4 90.9 484.9 81.7 467.1 76.0 C463.6 74.9 459.3 74.0 457.6 74.0 C454.0 74.0 441.6 77.3 437.9 79.2 C433.2 81.7 422.2 89.9 421.7 91.5 C420.9 93.4 420.7 93.5 427.5 90.4 C432.3 88.2 434.8 87.7 441.4 87.7 C448.3 87.7 450.5 88.1 456.0 90.7 C464.3 94.5 473.0 102.5 479.1 111.8 C484.7 120.4 486.1 125.2 483.6 127.9 C482.7 128.9 475.3 132.8 467.2 136.6 C441.9 148.3 430.8 154.0 431.3 155.3 C432.0 157.3 436.6 156.3 443.8 152.7 C466.8 140.9 481.2 133.4 485.8 130.7 C491.0 127.5 491.1 127.5 490.5 123.5 C489.0 113.6 482.8 101.0 477.3 96.7 C469.6 90.5 458.1 84.8 452.0 84.0 C448.9 83.7 447.5 83.0 447.5 82.0 C447.5 78.4 464.7 80.4 474.7 85.1 C481.5 88.3 491.7 97.8 495.5 104.5 C502.0 115.9 506.1 135.6 506.4 157.5 C506.6 173.1 505.9 195.3 504.6 211.5 C504.3 215.9 503.5 226.3 502.9 234.5 C501.4 254.6 502.6 279.4 505.6 292.7 C507.8 302.8 512.7 314.2 518.0 322.0 C525.8 333.3 533.6 338.2 547.5 340.5 C557.0 342.0 558.0 342.4 556.1 344.3 C555.3 345.1 551.3 345.5 544.1 345.5 C533.7 345.5 533.1 345.4 525.9 341.8 C520.0 338.9 516.5 336.2 510.4 329.8 C506.0 325.2 501.7 319.9 500.8 318.0 C493.6 302.3 490.4 293.1 489.0 283.3 C486.3 264.6 489.1 266.7 466.5 266.6 C454.2 266.6 446.4 266.9 446.2 267.5 C445.8 268.9 453.7 269.8 467.6 269.9 C481.6 270.0 480.5 269.1 483.5 283.0 C487.4 301.5 488.6 306.1 492.1 314.6 C497.0 326.7 502.3 334.3 511.1 341.8 C523.7 352.5 529.9 354.4 543.4 351.5 Z M607.4 351.9 C606.4 350.2 608.7 348.3 610.1 349.7 C611.3 350.9 610.5 353.0 609.0 353.0 C608.5 353.0 607.8 352.5 607.4 351.9 Z M137.0 346.5 C136.0 345.3 136.1 344.9 137.5 344.4 C139.4 343.6 141.5 345.3 140.6 346.9 C139.6 348.4 138.5 348.3 137.0 346.5 Z M612.5 344.0 C611.8 342.8 612.7 341.0 614.1 341.0 C615.3 341.0 615.3 343.7 614.1 344.5 C613.6 344.8 612.9 344.6 612.5 344.0 Z M624.4 342.9 C623.4 341.2 625.7 339.3 627.1 340.7 C628.3 341.9 627.5 344.0 626.0 344.0 C625.5 344.0 624.8 343.5 624.4 342.9 Z M635.2 342.4 C635.6 340.3 637.4 340.1 637.8 342.2 C638.0 343.3 637.5 344.0 636.5 344.0 C635.5 344.0 635.0 343.4 635.2 342.4 Z M646.7 343.3 C646.3 343.0 646.0 342.1 646.0 341.3 C646.0 339.8 648.6 339.5 649.4 340.9 C650.1 342.0 647.6 344.2 646.7 343.3 Z M655.4 340.9 C655.1 340.3 655.3 339.3 655.9 338.7 C656.8 337.8 657.3 337.9 658.0 339.0 C658.9 340.5 658.4 342.0 657.0 342.0 C656.5 342.0 655.8 341.5 655.4 340.9 Z M617.0 338.6 C617.0 336.5 619.1 335.5 620.0 337.1 C620.5 337.8 620.6 338.8 620.4 339.2 C619.5 340.6 617.0 340.1 617.0 338.6 Z M664.4 337.9 C663.4 336.2 665.7 334.3 667.1 335.7 C668.3 336.9 667.5 339.0 666.0 339.0 C665.5 339.0 664.8 338.5 664.4 337.9 Z M130.7 335.4 C129.8 334.4 130.9 333.0 132.6 333.0 C133.4 333.0 134.0 333.7 134.0 334.5 C134.0 336.0 131.9 336.6 130.7 335.4 Z M672.6 333.1 C671.9 332.0 674.4 329.8 675.3 330.7 C675.7 331.0 676.0 331.9 676.0 332.7 C676.0 334.2 673.4 334.5 672.6 333.1 Z M657.4 328.5 C666.3 326.4 674.4 319.9 677.7 312.3 C681.2 303.7 678.0 290.8 671.1 286.3 C663.3 281.1 650.5 285.5 645.4 295.3 C642.3 301.2 644.6 312.7 649.8 317.4 C651.5 318.9 652.8 319.1 657.2 318.5 C661.6 317.9 663.1 317.1 666.2 313.8 C669.6 310.3 670.0 309.4 670.0 304.5 C670.0 298.1 667.4 294.4 662.3 293.4 C655.9 292.2 651.9 300.2 655.2 307.5 C656.6 310.7 661.3 310.7 661.8 307.5 C662.5 303.3 662.9 302.9 665.0 304.0 C667.8 305.5 667.5 308.6 664.4 311.5 C658.5 316.9 650.9 312.9 649.5 303.7 C648.2 295.3 652.5 290.0 660.4 290.0 C669.1 290.0 675.0 296.0 675.0 305.0 C675.0 309.8 673.3 313.5 669.3 317.1 C664.7 321.4 662.6 322.0 652.6 322.0 C640.1 322.0 634.5 319.6 624.7 310.1 C616.2 302.0 612.5 299.9 605.9 299.7 C599.0 299.4 598.3 298.3 600.3 291.0 C602.7 282.5 602.5 279.1 599.1 273.8 C594.0 265.8 587.4 264.2 583.0 269.7 C580.4 273.0 580.4 273.1 584.1 276.9 C587.6 280.6 590.9 287.4 591.0 290.8 C591.0 293.7 588.8 298.0 586.1 300.2 C583.6 302.3 583.4 306.2 585.6 309.5 C587.7 312.8 590.0 312.6 596.9 308.8 C602.3 305.8 602.9 305.7 605.9 306.9 C609.9 308.6 609.8 311.7 605.7 311.2 C601.9 310.7 602.3 312.3 607.2 317.6 C613.5 324.5 622.0 328.7 632.5 330.3 C637.0 331.0 650.7 330.0 657.4 328.5 Z M549.7 323.2 C551.1 320.1 552.6 316.6 553.0 315.5 C553.5 314.4 555.2 309.8 557.0 305.3 C558.7 300.7 560.4 295.5 560.7 293.6 C561.3 289.9 561.1 289.8 553.8 288.6 C549.6 287.8 545.0 283.2 545.0 279.6 C545.0 274.9 556.4 268.0 564.3 268.0 C567.6 268.0 567.6 268.0 570.8 254.2 C575.2 234.9 576.2 227.0 576.2 209.1 C576.3 179.4 570.9 151.2 560.8 129.1 C549.3 103.9 543.6 94.7 532.9 84.4 C520.1 72.1 510.6 67.0 489.9 61.4 C473.6 57.0 446.5 61.0 431.3 70.1 C422.9 75.2 421.1 76.8 414.5 85.0 C406.6 94.8 404.3 100.3 398.9 121.0 C397.9 125.0 395.5 142.6 393.5 161.6 C393.1 165.8 393.2 166.1 395.3 165.8 C397.3 165.5 397.5 164.9 397.8 158.4 C398.0 153.0 398.5 150.8 399.9 149.6 C401.5 148.1 401.7 146.8 401.3 139.2 C400.6 126.6 403.5 115.0 411.1 99.4 C416.9 87.6 434.7 74.3 448.8 71.4 C460.3 69.0 465.8 69.9 478.9 76.3 C490.9 82.1 502.0 93.2 507.7 105.0 C512.4 114.6 514.4 120.9 516.5 133.0 C518.6 145.1 518.4 180.3 516.1 205.0 C515.1 215.7 514.5 224.8 514.9 225.1 C516.0 226.2 526.3 230.0 526.8 229.6 C527.0 229.3 526.7 227.7 526.1 225.9 C523.3 217.8 526.7 205.4 532.8 201.4 C536.3 199.1 545.8 199.1 552.7 201.4 C569.7 207.1 570.4 230.1 554.1 240.8 C544.5 247.0 533.3 247.3 521.0 241.7 C518.0 240.3 515.2 239.4 514.8 239.6 C513.7 240.3 513.9 264.7 515.0 280.0 C516.0 293.6 518.1 301.6 523.4 311.4 C527.7 319.4 535.9 327.3 541.0 328.3 C546.6 329.3 547.0 329.1 549.7 323.2 Z M559.3 326.0 C561.7 324.8 565.1 322.5 566.8 320.7 C570.7 316.6 573.4 307.5 572.5 301.7 C571.8 297.9 568.7 293.0 566.9 293.0 C566.5 293.0 565.8 294.0 565.5 295.2 C565.1 296.5 564.2 298.9 563.5 300.5 C561.8 304.4 553.0 327.0 553.0 327.6 C553.0 328.5 555.2 327.9 559.3 326.0 Z M679.2 326.8 C679.7 325.3 682.0 325.0 682.1 326.5 C682.1 327.1 681.4 327.7 680.4 327.8 C679.4 328.1 678.9 327.7 679.2 326.8 Z M47.3 325.4 C46.6 323.5 47.5 322.6 49.5 323.3 C51.4 324.1 51.4 325.6 49.5 326.4 C48.6 326.7 47.7 326.3 47.3 325.4 Z M58.2 324.3 C58.4 323.3 59.6 322.4 60.8 322.2 C62.7 321.9 63.1 322.3 62.8 323.7 C62.6 324.7 61.4 325.6 60.2 325.8 C58.3 326.1 57.9 325.7 58.2 324.3 Z M126.5 325.0 C125.7 323.6 126.8 322.0 128.6 322.0 C129.4 322.0 130.0 322.9 130.0 324.0 C130.0 326.1 127.6 326.8 126.5 325.0 Z M35.3 322.4 C34.6 320.5 35.5 319.6 37.5 320.3 C39.4 321.1 39.4 322.6 37.5 323.4 C36.6 323.7 35.7 323.3 35.3 322.4 Z M68.6 323.1 C67.9 322.0 70.4 319.8 71.3 320.7 C71.7 321.0 72.0 321.9 72.0 322.7 C72.0 324.2 69.4 324.5 68.6 323.1 Z M685.5 322.0 C685.1 321.4 685.2 320.4 685.8 319.8 C686.4 319.2 687.0 319.2 687.5 320.0 C687.9 320.6 687.8 321.6 687.2 322.2 C686.6 322.8 686.0 322.8 685.5 322.0 Z M78.2 319.3 C78.4 318.3 79.2 317.5 80.0 317.5 C82.2 317.5 81.8 320.4 79.7 320.8 C78.3 321.1 77.9 320.7 78.2 319.3 Z M22.7 318.3 C21.4 317.1 22.0 316.0 24.0 316.0 C25.1 316.0 26.0 316.7 26.0 317.5 C26.0 319.0 23.9 319.6 22.7 318.3 Z M88.0 316.0 C88.0 314.1 90.0 313.3 91.3 314.7 C92.1 315.4 90.2 318.0 88.9 318.0 C88.4 318.0 88.0 317.1 88.0 316.0 Z M98.7 314.3 C98.3 314.0 98.0 313.1 98.0 312.3 C98.0 310.8 100.6 310.5 101.4 311.9 C102.1 313.0 99.6 315.2 98.7 314.3 Z M124.0 313.5 C124.0 312.7 124.7 312.0 125.5 312.0 C126.3 312.0 127.0 312.7 127.0 313.5 C127.0 314.3 126.3 315.0 125.5 315.0 C124.7 315.0 124.0 314.3 124.0 313.5 Z M687.7 314.4 C686.8 313.4 687.9 312.0 689.6 312.0 C690.4 312.0 691.0 312.7 691.0 313.5 C691.0 315.0 688.9 315.6 687.7 314.4 Z M54.0 312.1 C54.0 311.6 52.3 310.9 50.3 310.5 C42.6 309.1 31.9 301.3 29.4 295.3 C27.4 290.5 27.6 283.1 30.0 279.2 C32.3 275.4 32.5 274.0 30.6 274.0 C28.1 274.0 24.0 285.1 24.0 291.9 C24.0 299.1 25.5 302.4 30.4 306.8 C33.6 309.6 36.0 310.6 43.5 312.3 C47.1 313.1 54.0 313.0 54.0 312.1 Z M14.4 310.9 C13.4 309.2 15.7 307.3 17.1 308.7 C18.3 309.9 17.5 312.0 16.0 312.0 C15.5 312.0 14.8 311.5 14.4 310.9 Z M107.0 309.5 C107.0 308.5 107.7 308.0 108.8 308.2 C110.9 308.6 110.7 310.4 108.6 310.8 C107.6 311.0 107.0 310.5 107.0 309.5 Z M115.4 307.9 C114.4 306.2 116.7 304.3 118.1 305.7 C119.3 306.9 118.5 309.0 117.0 309.0 C116.5 309.0 115.8 308.5 115.4 307.9 Z M252.9 306.2 C257.2 296.8 271.5 280.8 280.7 275.0 C285.0 272.2 286.9 270.5 286.2 269.8 C283.7 267.3 268.4 278.9 261.0 289.0 C252.0 301.3 252.6 300.9 249.3 297.8 C247.8 296.3 243.8 293.5 240.6 291.6 C233.9 287.6 229.6 286.7 234.5 290.3 C241.1 295.1 245.3 299.6 247.6 304.2 C248.9 306.8 250.4 309.0 250.9 309.0 C251.3 309.0 252.2 307.8 252.9 306.2 Z M61.0 304.9 C66.6 302.4 69.6 299.6 72.3 294.5 C74.8 289.6 74.9 284.3 72.6 276.9 C70.6 270.0 66.8 264.9 61.7 262.0 C58.5 260.2 56.6 259.8 50.6 260.2 C44.1 260.5 42.9 260.9 38.2 264.3 C35.3 266.4 33.0 268.8 33.0 269.6 C33.0 271.7 34.3 271.3 40.0 267.5 C46.5 263.1 51.4 262.9 57.7 266.6 C63.4 269.9 66.0 275.6 66.0 284.6 C66.0 289.5 65.5 291.8 63.8 294.3 C61.1 298.5 55.9 302.0 52.4 302.0 C46.6 302.0 39.9 293.8 41.8 289.0 C43.9 283.5 51.6 282.6 53.8 287.5 C55.9 292.1 52.3 295.4 50.0 290.9 C49.1 289.3 48.6 289.1 47.4 290.1 C45.3 291.9 45.7 294.8 48.4 296.5 C50.6 298.0 51.1 298.0 53.8 296.6 C63.4 291.7 64.7 276.1 56.0 270.2 C49.2 265.6 41.1 268.2 35.1 277.0 C32.5 280.8 32.0 282.5 32.0 287.4 C32.0 293.9 33.7 297.2 39.6 301.6 C46.8 307.1 53.8 308.2 61.0 304.9 Z M121.7 306.3 C120.4 305.1 121.0 304.0 123.0 304.0 C124.1 304.0 125.0 304.7 125.0 305.5 C125.0 307.0 122.9 307.6 121.7 306.3 Z M76.4 304.9 C75.6 303.5 77.5 301.6 78.9 302.4 C79.5 302.8 80.0 303.8 80.0 304.6 C80.0 306.2 77.4 306.5 76.4 304.9 Z M688.0 304.0 C688.0 302.5 688.5 302.0 689.8 302.2 C690.7 302.4 691.5 303.2 691.5 304.0 C691.5 304.8 690.7 305.6 689.8 305.8 C688.5 306.0 688.0 305.5 688.0 304.0 Z M630.4 303.9 C629.6 302.5 631.5 300.6 632.9 301.4 C633.5 301.8 634.0 302.8 634.0 303.6 C634.0 305.2 631.4 305.5 630.4 303.9 Z M85.2 303.3 C83.2 302.5 83.8 300.0 86.0 300.0 C87.3 300.0 88.0 300.7 88.0 302.0 C88.0 304.0 87.5 304.3 85.2 303.3 Z M12.7 300.3 C11.7 299.4 11.9 296.0 12.9 296.0 C13.4 296.0 14.3 296.7 15.0 297.5 C16.7 299.6 14.6 302.3 12.7 300.3 Z M92.7 299.4 C91.8 298.4 92.9 297.0 94.6 297.0 C95.4 297.0 96.0 297.7 96.0 298.5 C96.0 300.0 93.9 300.6 92.7 299.4 Z M101.1 296.6 C100.3 295.6 100.2 295.0 101.0 294.5 C102.3 293.7 104.0 294.8 104.0 296.6 C104.0 298.4 102.6 298.4 101.1 296.6 Z M616.4 296.2 C617.0 295.2 619.4 284.3 622.1 270.0 C623.9 261.0 624.1 255.4 624.2 230.5 C624.2 178.8 623.5 170.6 617.3 150.0 C611.5 130.4 608.6 123.1 597.9 101.5 C592.1 89.7 579.8 73.9 568.2 63.1 C562.7 58.0 556.6 52.8 554.8 51.7 C544.6 45.5 521.8 35.5 506.0 30.3 C493.2 26.1 470.8 27.1 439.5 33.2 C429.5 35.1 422.5 38.4 410.6 46.4 C401.5 52.5 392.4 61.3 385.4 70.5 C381.5 75.6 377.0 85.5 377.0 88.9 C377.0 91.2 375.9 92.2 374.4 91.2 C373.8 90.8 371.5 87.3 369.2 83.5 C361.3 70.0 354.6 63.0 335.1 48.2 C327.6 42.5 311.8 34.9 299.5 31.1 C286.2 26.9 273.9 25.6 256.0 26.5 C240.8 27.2 234.8 28.0 226.5 30.5 C223.8 31.4 219.9 32.5 218.0 33.1 C214.6 34.1 212.4 35.0 204.2 38.7 C191.7 44.3 166.5 65.7 159.3 76.9 C149.1 92.7 135.2 127.3 131.1 146.5 C127.5 164.0 123.7 210.2 124.1 233.0 C124.4 253.2 128.8 286.7 131.5 289.7 C132.7 291.1 138.8 289.9 140.0 288.0 C140.5 287.1 139.4 274.1 137.0 254.0 C135.2 239.3 133.7 206.9 134.4 197.5 C135.2 186.5 137.3 172.4 140.7 156.5 C142.1 149.9 143.6 142.7 144.0 140.5 C146.9 127.0 158.1 100.8 166.1 89.0 C171.5 80.9 182.8 67.7 185.4 66.3 C186.6 65.7 188.1 64.0 188.7 62.7 C190.0 59.8 201.5 51.0 208.5 47.5 C211.2 46.1 214.6 44.3 216.0 43.5 C229.2 35.7 245.9 31.7 263.9 32.1 C283.8 32.5 294.3 34.8 312.0 42.8 C315.0 44.1 319.1 45.9 321.0 46.8 C338.7 54.7 368.5 83.6 373.5 97.5 C375.9 104.3 376.8 104.2 379.0 97.0 C381.6 88.7 390.7 73.8 398.5 65.2 C418.0 43.6 442.0 33.6 474.5 33.6 C489.6 33.7 494.8 34.5 509.5 39.5 C529.0 46.1 548.5 56.9 562.4 68.9 C577.6 82.1 591.7 103.4 598.5 123.6 C603.3 137.7 609.9 163.3 613.0 180.0 C615.2 191.6 617.5 230.3 616.5 241.0 C614.5 263.5 611.9 276.2 608.0 282.0 C607.0 283.4 606.0 286.9 605.6 289.7 C604.9 295.4 604.4 294.8 611.5 296.3 C614.9 297.1 615.9 297.0 616.4 296.2 Z M83.2 294.8 C83.8 293.0 86.0 292.7 86.0 294.4 C86.0 295.3 85.3 296.0 84.4 296.0 C83.5 296.0 83.0 295.5 83.2 294.8 Z M688.0 294.0 C688.0 292.9 688.4 292.0 688.9 292.0 C690.2 292.0 692.1 294.6 691.3 295.3 C690.0 296.7 688.0 295.9 688.0 294.0 Z M108.7 294.3 C107.4 293.1 108.0 292.0 110.0 292.0 C111.1 292.0 112.0 292.7 112.0 293.5 C112.0 295.0 109.9 295.6 108.7 294.3 Z M628.0 293.0 C628.0 291.5 628.5 291.0 629.8 291.2 C630.7 291.4 631.5 292.2 631.5 293.0 C631.5 293.8 630.7 294.6 629.8 294.8 C628.5 295.0 628.0 294.5 628.0 293.0 Z M635.0 291.6 C635.0 290.6 635.9 290.0 637.1 290.0 C639.5 290.0 639.2 292.3 636.7 292.8 C635.7 293.0 635.0 292.5 635.0 291.6 Z M118.7 291.4 C117.3 290.0 118.0 287.9 119.8 288.2 C120.7 288.4 121.5 289.2 121.5 289.9 C121.5 291.5 119.7 292.4 118.7 291.4 Z M577.9 288.6 C574.0 285.0 565.7 282.0 559.7 282.0 C555.6 282.0 554.3 280.8 556.5 279.0 C561.7 274.6 585.8 284.8 583.7 290.4 C582.8 292.7 582.0 292.4 577.9 288.6 Z M255.2 282.8 C263.9 274.1 274.1 266.0 279.9 263.0 C283.0 261.3 284.0 260.2 284.0 258.4 C284.0 253.8 278.6 255.7 267.4 264.3 C260.8 269.3 250.0 280.3 250.0 281.9 C250.0 282.5 249.4 283.0 248.6 283.0 C246.8 283.0 237.4 280.1 233.3 278.4 C231.6 277.6 229.7 277.0 229.1 277.0 C228.5 277.0 228.0 276.2 228.0 275.2 C228.0 274.0 229.5 272.7 232.2 271.5 C234.6 270.5 239.3 268.4 242.8 266.8 C246.2 265.3 249.3 264.0 249.5 264.0 C249.8 264.0 252.8 262.6 256.2 261.0 C259.6 259.4 262.8 258.0 263.4 258.0 C264.0 258.0 267.2 256.6 270.5 255.0 C273.8 253.3 276.8 252.0 277.1 252.0 C277.9 252.0 290.3 246.2 313.5 235.0 C322.9 230.5 332.8 225.9 335.6 224.9 C341.3 222.7 344.8 220.5 343.8 219.5 C343.0 218.7 331.8 221.7 326.6 224.2 C324.4 225.2 322.3 226.0 321.8 226.0 C321.4 226.0 316.7 228.2 311.3 230.8 C305.9 233.4 298.4 236.9 294.5 238.4 C283.0 242.9 273.2 247.5 244.5 261.5 C232.9 267.1 222.0 272.3 220.2 273.0 C216.0 274.6 216.1 275.6 220.8 277.1 C225.9 278.8 242.1 286.5 244.5 288.4 C245.6 289.2 246.8 290.0 247.2 290.0 C247.6 290.0 251.2 286.7 255.2 282.8 Z M85.5 288.0 C84.8 286.8 85.7 285.0 87.1 285.0 C88.3 285.0 88.3 287.7 87.1 288.5 C86.6 288.8 85.9 288.6 85.5 288.0 Z M167.5 285.9 C170.2 285.3 182.4 284.5 194.5 284.2 C216.5 283.5 216.5 283.5 211.0 281.8 C208.0 280.9 202.8 279.6 199.5 279.0 C189.1 276.9 187.8 273.7 196.2 271.0 C198.6 270.2 203.0 268.2 206.0 266.4 C209.0 264.7 225.2 256.3 242.0 247.8 C258.8 239.3 274.5 231.2 277.0 229.8 C279.5 228.4 286.0 225.3 291.5 223.0 C302.8 218.2 314.6 212.9 320.3 210.0 C322.5 208.9 324.6 208.0 325.1 208.0 C326.7 208.0 335.4 203.7 339.7 200.8 C344.5 197.6 346.7 194.3 345.2 192.8 C344.3 191.9 317.2 205.1 283.2 222.9 C277.0 226.2 269.8 229.7 267.2 230.9 C264.6 232.0 260.5 234.1 258.0 235.4 C255.5 236.7 249.0 240.1 243.5 242.8 C212.4 258.1 155.5 287.2 155.2 288.0 C155.0 288.4 156.6 288.4 158.7 287.9 C160.8 287.4 164.8 286.5 167.5 285.9 Z M14.0 286.0 C13.1 284.4 13.2 283.8 14.5 283.4 C16.6 282.6 18.4 284.4 17.7 286.4 C16.8 288.6 15.3 288.4 14.0 286.0 Z M684.0 286.7 C684.0 284.6 685.2 283.9 686.7 285.1 C688.6 286.7 688.3 288.0 686.0 288.0 C684.9 288.0 684.0 287.4 684.0 286.7 Z M630.7 286.4 C629.3 284.9 630.1 283.0 632.1 283.0 C633.5 283.0 634.0 283.5 633.8 284.7 C633.5 286.5 631.8 287.4 630.7 286.4 Z M639.4 284.9 C638.6 283.5 640.5 281.6 641.9 282.4 C642.5 282.8 643.0 283.8 643.0 284.6 C643.0 286.2 640.4 286.5 639.4 284.9 Z M592.2 282.8 C591.5 282.1 591.0 281.0 591.0 280.2 C591.0 279.4 590.0 278.0 588.8 277.0 C586.9 275.5 586.7 274.8 587.6 273.3 C588.2 272.3 589.7 271.4 590.8 271.2 C594.4 270.7 597.6 280.4 594.7 282.9 C593.7 283.7 593.0 283.6 592.2 282.8 Z M117.0 281.5 C117.0 280.7 117.7 280.0 118.5 280.0 C119.3 280.0 120.0 280.7 120.0 281.5 C120.0 282.3 119.3 283.0 118.5 283.0 C117.7 283.0 117.0 282.3 117.0 281.5 Z M678.2 280.8 C678.9 278.9 682.0 278.6 682.0 280.4 C682.0 281.4 681.1 282.0 679.9 282.0 C678.7 282.0 678.0 281.5 678.2 280.8 Z M646.2 279.3 C646.4 278.3 647.2 277.5 648.0 277.5 C650.2 277.5 649.8 280.4 647.7 280.8 C646.3 281.1 645.9 280.7 646.2 279.3 Z M85.5 277.9 C84.5 276.4 85.8 275.4 87.1 276.7 C87.8 277.4 87.8 278.0 87.2 278.4 C86.6 278.7 85.8 278.5 85.5 277.9 Z M654.0 277.5 C654.0 276.7 654.7 276.0 655.5 276.0 C656.3 276.0 657.0 276.7 657.0 277.5 C657.0 278.3 656.3 279.0 655.5 279.0 C654.7 279.0 654.0 278.3 654.0 277.5 Z M252.2 271.8 C255.4 268.3 258.0 265.2 258.0 264.8 C258.0 264.4 255.4 265.3 252.2 266.9 C249.1 268.5 244.1 270.8 241.2 272.0 C238.4 273.2 236.0 274.6 236.0 275.0 C236.0 275.6 242.1 277.5 245.5 277.9 C246.0 277.9 249.1 275.2 252.2 271.8 Z M631.7 277.4 C630.3 275.9 631.1 274.0 633.1 274.0 C634.5 274.0 635.0 274.5 634.8 275.7 C634.5 277.5 632.8 278.4 631.7 277.4 Z M670.5 277.0 C669.7 275.6 670.8 274.0 672.6 274.0 C673.4 274.0 674.0 274.9 674.0 276.0 C674.0 278.1 671.6 278.8 670.5 277.0 Z M169.5 275.8 C171.9 274.7 172.1 274.2 171.5 271.1 C170.2 263.7 169.8 225.4 170.9 214.5 C174.1 184.3 181.2 147.6 185.0 142.5 C185.4 141.9 186.3 139.2 187.0 136.5 C192.5 116.2 210.0 89.3 226.7 75.5 C242.6 62.4 262.2 56.9 281.0 60.3 C285.7 61.1 291.4 62.1 293.8 62.4 C305.8 64.1 326.9 75.6 336.6 85.6 C343.0 92.3 349.3 104.3 350.9 112.9 C352.2 119.7 351.8 154.4 350.0 189.5 C349.5 199.4 348.8 213.0 348.4 219.8 C347.8 232.0 347.8 232.0 350.5 232.0 C355.5 232.0 356.8 230.5 357.4 223.8 C360.9 184.5 361.7 131.2 359.0 117.8 C355.1 98.6 354.6 97.0 349.9 90.0 C345.4 83.3 340.8 78.9 331.0 71.6 C312.6 58.0 288.9 50.1 266.3 50.0 C250.4 50.0 234.6 56.8 221.2 69.4 C212.8 77.4 208.5 83.3 199.6 98.8 C190.5 114.8 185.8 124.6 182.8 134.0 C181.1 139.2 178.7 146.5 177.4 150.2 C172.3 164.7 168.9 182.9 167.4 202.5 C164.6 240.0 164.3 245.9 165.1 254.1 C165.5 258.7 165.9 265.8 165.9 269.8 C166.0 273.7 166.2 277.0 166.5 277.0 C166.7 277.0 168.1 276.5 169.5 275.8 Z M663.0 275.4 C663.0 274.5 663.7 274.0 664.7 274.2 C667.2 274.7 667.5 277.0 665.1 277.0 C663.9 277.0 663.0 276.4 663.0 275.4 Z M19.7 273.4 C18.3 271.9 19.1 270.0 21.1 270.0 C22.5 270.0 23.0 270.5 22.8 271.7 C22.5 273.5 20.8 274.4 19.7 273.4 Z M115.0 272.5 C115.0 271.5 115.7 271.0 116.8 271.2 C118.9 271.6 118.7 273.4 116.6 273.8 C115.6 274.0 115.0 273.5 115.0 272.5 Z M187.0 267.1 C192.2 264.5 198.3 261.3 200.5 260.0 C202.7 258.8 220.6 249.7 240.2 239.9 C259.9 230.0 276.0 221.6 276.0 221.2 C276.0 220.8 275.5 218.8 274.9 216.8 C273.9 213.0 272.7 212.1 271.5 214.0 C270.7 215.2 253.9 223.3 249.0 224.8 C247.1 225.4 242.0 226.5 237.7 227.1 C230.0 228.4 229.9 228.4 225.4 234.0 C222.9 237.0 218.2 241.8 214.9 244.6 C204.6 253.4 202.1 253.9 199.3 247.3 C197.1 242.3 197.2 227.2 199.5 219.5 C201.1 213.9 201.1 213.8 198.4 207.3 C194.1 196.5 195.9 185.9 202.6 181.5 C204.3 180.4 207.0 177.3 208.5 174.7 C212.8 167.0 220.4 158.5 227.7 153.3 C235.3 147.9 243.2 140.1 242.4 138.8 C242.1 138.4 240.8 138.0 239.6 138.0 C232.6 138.0 223.3 129.7 220.9 121.3 C218.9 114.6 219.4 106.3 222.0 100.7 C224.4 95.6 227.6 92.5 234.8 88.2 C239.2 85.7 240.2 85.5 251.5 85.5 C263.3 85.5 263.6 85.6 269.5 89.0 C272.8 90.9 277.4 94.4 279.8 96.7 C284.1 101.1 284.1 101.1 288.2 97.6 C295.9 91.0 300.2 89.6 312.5 89.6 C324.5 89.6 326.9 90.4 333.4 96.1 C338.6 100.6 340.2 104.5 340.7 113.5 C341.1 120.4 340.8 122.5 338.5 129.0 C335.4 137.5 335.3 138.8 337.1 144.7 C338.3 148.6 338.2 149.4 336.3 153.3 C335.2 155.7 332.0 160.0 329.3 163.0 C322.2 170.9 319.0 176.0 319.0 179.6 C319.0 182.9 315.7 189.8 310.0 198.8 C308.2 201.7 307.0 204.3 307.3 204.6 C308.0 205.3 344.8 187.2 345.7 185.7 C347.0 183.6 348.1 119.6 347.0 113.1 C343.6 93.8 328.0 77.9 303.8 69.2 C294.9 65.9 280.2 63.5 270.5 63.5 C251.6 63.7 233.1 72.9 219.3 88.8 C216.1 92.5 213.3 95.7 213.0 96.0 C210.8 98.0 198.0 119.3 198.0 121.0 C198.0 121.3 196.9 123.9 195.6 126.6 C194.3 129.4 192.6 133.6 192.0 136.1 C191.3 138.5 190.0 142.1 189.0 144.1 C185.1 151.7 178.2 187.0 176.0 210.6 C175.5 216.1 175.0 230.5 174.9 242.6 C174.8 263.2 175.4 272.0 176.9 272.0 C177.2 272.0 181.8 269.8 187.0 267.1 Z M580.5 261.8 C585.4 246.2 586.4 237.5 586.4 211.0 C586.4 185.6 586.1 182.5 581.0 159.0 C576.4 137.5 572.9 127.1 564.7 110.0 C556.2 92.5 548.3 81.4 536.3 70.5 C530.5 65.2 524.1 60.1 522.1 59.3 C520.1 58.5 517.0 57.2 515.1 56.3 C510.9 54.4 507.8 53.4 496.0 50.4 C483.3 47.2 466.3 47.0 453.9 50.1 C443.2 52.7 423.1 62.4 416.3 68.3 C401.1 81.4 393.5 94.7 387.6 119.0 C383.0 138.0 379.6 187.7 381.2 214.5 C382.2 231.0 382.8 233.0 386.8 233.0 C388.1 233.0 388.2 229.4 387.6 205.9 C386.9 179.0 387.7 165.2 391.0 145.9 C391.6 142.9 392.0 138.4 392.0 135.9 C392.0 133.5 393.0 128.1 394.1 124.0 C395.3 119.9 396.8 113.6 397.7 110.0 C401.6 92.5 414.3 75.7 431.2 65.6 C438.1 61.5 440.6 60.6 453.4 58.0 C485.6 51.4 516.4 60.8 538.6 83.9 C542.6 88.1 547.8 94.5 550.1 98.0 C554.2 104.3 565.9 127.9 567.5 133.0 C567.9 134.4 569.1 137.3 570.1 139.5 C572.5 145.0 574.9 153.3 576.1 160.5 C579.3 180.1 580.1 187.0 580.6 201.0 C581.4 220.7 579.9 236.4 575.5 254.5 C572.4 267.0 572.2 268.6 573.6 269.7 C576.4 271.8 577.9 270.0 580.5 261.8 Z M83.0 269.0 C83.0 268.4 83.7 268.0 84.5 268.0 C85.3 268.0 86.0 268.4 86.0 269.0 C86.0 269.6 85.3 270.0 84.5 270.0 C83.7 270.0 83.0 269.6 83.0 269.0 Z M114.0 264.5 C114.0 263.7 114.7 263.0 115.5 263.0 C116.3 263.0 117.0 263.7 117.0 264.5 C117.0 265.3 116.3 266.0 115.5 266.0 C114.7 266.0 114.0 265.3 114.0 264.5 Z M633.7 265.4 C632.3 264.0 633.0 261.9 634.8 262.2 C635.7 262.4 636.5 263.2 636.5 263.9 C636.5 265.5 634.7 266.4 633.7 265.4 Z M76.5 263.0 C75.5 261.3 77.7 259.3 79.0 260.6 C79.8 261.4 79.6 262.1 78.6 262.9 C77.6 263.8 77.0 263.8 76.5 263.0 Z M28.5 261.1 C27.7 259.6 28.8 258.0 30.6 258.0 C31.5 258.0 32.0 258.7 31.8 259.7 C31.4 261.7 29.4 262.5 28.5 261.1 Z M484.5 255.9 C485.6 254.8 485.7 253.5 485.0 250.5 C482.8 241.5 484.0 204.2 487.1 184.4 C487.6 181.1 488.0 176.3 488.0 173.7 C488.0 171.2 488.9 163.8 490.0 157.3 C491.1 150.9 491.6 145.2 491.2 144.8 C490.7 144.3 486.3 146.2 481.4 148.9 C476.5 151.6 467.0 156.4 460.2 159.6 C453.5 162.8 448.0 165.9 448.0 166.5 C448.0 167.2 449.1 168.3 450.4 169.0 C453.1 170.4 452.2 170.7 469.4 162.3 C474.3 160.0 478.6 158.0 479.0 158.0 C480.1 158.0 482.1 163.0 481.5 164.1 C480.1 166.2 478.0 204.2 478.0 226.2 C478.0 243.9 477.7 250.1 476.8 250.6 C476.1 251.1 470.0 251.3 463.3 251.1 C451.7 250.8 451.1 250.9 450.0 253.0 C447.7 257.2 450.9 258.0 469.8 257.5 C479.5 257.3 483.6 256.9 484.5 255.9 Z M112.5 255.9 C111.5 254.4 112.6 253.6 114.5 254.4 C115.4 254.7 115.8 255.4 115.5 256.0 C114.7 257.3 113.3 257.3 112.5 255.9 Z M67.2 254.8 C67.8 253.0 70.0 252.7 70.0 254.4 C70.0 255.3 69.3 256.0 68.4 256.0 C67.5 256.0 67.0 255.5 67.2 254.8 Z M635.0 253.0 C635.0 251.5 635.5 251.0 636.8 251.2 C637.7 251.4 638.5 252.2 638.5 253.0 C638.5 253.8 637.7 254.6 636.8 254.8 C635.5 255.0 635.0 254.5 635.0 253.0 Z M41.8 253.4 C40.6 252.3 42.2 250.0 44.2 250.0 C45.5 250.0 46.0 250.6 45.8 251.7 C45.5 253.5 42.9 254.6 41.8 253.4 Z M56.2 250.8 C56.7 249.3 59.0 249.0 59.1 250.5 C59.1 251.1 58.4 251.7 57.4 251.8 C56.4 252.1 55.9 251.7 56.2 250.8 Z M318.5 248.7 C322.4 247.4 329.6 245.7 334.5 245.0 C339.4 244.4 345.9 243.4 348.9 242.9 C356.0 241.7 373.2 241.7 380.1 242.9 C383.1 243.5 388.9 244.4 393.0 245.1 C397.1 245.7 401.4 246.6 402.5 247.1 C403.6 247.5 407.8 248.9 411.9 250.1 C419.1 252.3 419.3 252.3 420.6 250.5 C421.4 249.5 422.0 247.6 422.0 246.5 C422.0 244.6 420.9 244.0 413.8 242.2 C401.7 239.1 382.0 235.9 370.5 235.3 C355.7 234.5 334.6 238.0 313.4 244.7 C307.6 246.5 306.3 247.8 307.4 250.6 C308.1 252.4 307.9 252.4 318.5 248.7 Z M111.2 246.8 C111.5 246.1 112.3 245.5 113.0 245.5 C113.7 245.5 114.5 246.1 114.8 246.8 C115.0 247.5 114.3 248.0 113.0 248.0 C111.7 248.0 111.0 247.5 111.2 246.8 Z M214.3 239.0 C219.8 233.8 223.6 229.2 225.4 225.5 C228.0 220.0 230.2 211.6 229.2 210.5 C227.9 209.2 227.1 210.3 225.5 215.4 C223.6 221.5 217.3 229.8 212.9 231.9 C210.8 233.0 209.2 233.1 207.2 232.4 C204.8 231.6 204.5 230.9 204.2 226.7 C204.0 223.9 204.4 221.2 205.1 220.4 C206.6 218.6 205.4 217.2 203.8 218.8 C202.5 220.1 201.2 228.0 201.1 235.0 C201.0 241.0 202.7 247.0 204.6 247.0 C205.4 247.0 209.8 243.4 214.3 239.0 Z M473.8 238.1 C474.0 233.5 473.7 229.3 473.3 228.9 C472.9 228.5 468.9 228.0 464.6 227.9 C456.7 227.7 456.7 227.7 455.0 234.6 C454.1 238.4 453.0 242.5 452.6 243.7 C452.0 245.6 452.3 245.9 455.7 246.2 C457.8 246.4 462.6 246.5 466.5 246.5 C473.5 246.5 473.5 246.5 473.8 238.1 Z M635.6 242.3 C634.3 240.9 635.1 239.0 637.0 239.0 C638.1 239.0 639.0 239.6 639.0 240.4 C639.0 241.9 636.6 243.2 635.6 242.3 Z M546.4 240.6 C558.3 235.6 564.6 221.7 559.5 211.5 C556.7 205.9 552.3 203.7 544.0 203.6 C536.6 203.5 534.2 204.8 531.3 210.3 C529.0 214.8 529.4 225.4 532.0 229.0 C533.9 231.7 534.7 232.0 539.7 232.0 C544.9 232.0 545.5 231.7 549.6 227.6 C555.0 222.3 555.5 217.9 551.4 213.5 C549.3 211.2 548.3 210.8 545.3 211.3 C540.3 212.2 538.0 214.6 538.0 219.1 C538.0 223.2 540.4 225.5 543.4 224.4 C545.4 223.6 545.4 222.6 543.5 221.0 C541.6 219.4 542.5 218.0 545.5 218.0 C547.8 218.0 550.0 220.5 550.0 222.9 C550.0 225.0 545.6 228.0 542.5 228.0 C538.2 228.0 535.3 225.6 533.9 221.1 C531.8 214.0 537.4 207.5 545.6 207.5 C549.6 207.5 550.6 208.0 554.1 211.7 C557.4 215.3 558.0 216.6 558.0 220.4 C558.0 224.1 557.4 225.6 554.8 228.6 C550.8 233.1 544.9 235.9 539.3 236.0 C537.1 236.0 531.0 234.7 526.0 233.0 C515.2 229.5 514.0 229.4 514.0 231.9 C514.0 234.5 515.8 235.7 524.2 239.1 C532.4 242.3 540.9 242.9 546.4 240.6 Z M425.4 234.1 C426.6 226.9 425.1 221.6 419.6 213.5 C417.2 210.0 414.2 204.9 413.0 202.3 C411.7 199.7 410.6 197.4 410.4 197.2 C410.3 197.0 407.5 198.8 404.2 201.2 C400.8 203.6 396.7 206.3 395.0 207.2 C391.9 208.9 391.9 208.9 392.2 221.2 C392.5 235.0 391.5 233.7 404.0 236.0 C407.0 236.6 412.2 237.7 415.5 238.4 C424.0 240.4 424.4 240.3 425.4 234.1 Z M111.5 238.0 C110.7 236.7 111.9 234.8 113.1 235.5 C114.3 236.3 114.3 239.0 113.1 239.0 C112.5 239.0 111.8 238.6 111.5 238.0 Z M334.0 234.8 C341.8 232.6 342.5 232.2 342.8 229.7 C343.0 228.2 342.7 227.0 342.2 227.0 C341.7 227.0 336.6 229.0 331.0 231.5 C314.4 238.7 315.4 239.8 334.0 234.8 Z M637.3 229.4 C636.6 227.5 638.4 225.5 639.9 226.4 C641.5 227.4 641.2 229.7 639.5 230.4 C638.6 230.7 637.7 230.3 637.3 229.4 Z M112.1 228.6 C110.9 227.2 111.6 226.0 113.7 226.0 C115.2 226.0 115.5 228.6 114.1 229.4 C113.6 229.7 112.7 229.4 112.1 228.6 Z M214.0 226.0 C214.0 225.6 212.8 224.5 211.4 223.5 C209.2 222.1 208.6 222.0 207.9 223.1 C206.6 225.2 206.8 228.8 208.2 229.3 C209.6 229.7 214.0 227.2 214.0 226.0 Z M239.8 222.5 C243.8 221.6 249.0 220.2 251.3 219.3 C263.2 214.6 278.1 204.7 276.2 202.8 C275.6 202.2 274.4 202.3 273.1 203.1 C271.3 204.3 270.9 204.2 269.6 202.5 C268.7 201.4 268.0 199.5 268.0 198.4 C268.0 195.5 274.3 190.0 277.6 190.0 C280.5 190.0 285.5 194.6 288.2 199.8 C291.3 205.5 296.2 202.7 299.5 193.4 C300.7 189.9 300.7 189.4 299.2 188.3 C293.6 184.3 293.1 181.7 296.0 174.4 C298.6 168.1 298.8 160.4 296.5 158.1 C294.5 156.1 288.1 158.1 283.5 162.1 C278.6 166.4 274.0 176.5 274.0 182.7 C274.0 187.3 273.7 187.8 270.3 190.1 C268.2 191.5 265.0 195.2 262.8 199.0 C260.7 202.6 257.3 207.0 255.2 208.8 C250.8 212.8 240.7 218.6 236.5 219.6 C232.9 220.4 230.8 221.9 231.6 223.1 C232.2 224.2 231.2 224.3 239.8 222.5 Z M473.8 217.9 C474.1 212.6 473.9 212.1 471.3 210.3 C468.0 207.9 462.6 206.0 459.4 206.0 C456.2 206.0 455.7 204.7 455.9 196.8 C456.3 183.1 450.4 171.7 441.8 169.6 C439.7 169.1 438.8 169.5 437.6 171.2 C435.6 174.0 435.6 177.1 437.5 183.4 C439.0 188.4 438.9 190.5 436.7 194.8 C435.2 197.9 430.6 200.2 427.5 199.4 C424.3 198.6 424.3 199.7 427.4 205.8 C430.4 211.8 435.2 217.0 437.7 217.0 C438.7 217.0 442.0 215.2 444.9 213.0 C450.8 208.5 454.5 207.2 456.9 208.7 C459.1 210.0 462.3 216.9 461.6 218.7 C460.6 221.2 457.7 219.7 456.8 216.3 C455.9 212.7 454.3 211.3 452.8 212.8 C452.2 213.4 452.2 214.0 452.9 214.4 C453.5 214.8 454.0 216.2 454.0 217.5 C454.0 218.9 455.1 220.7 456.7 222.0 C458.9 223.7 460.5 224.0 466.4 223.8 C473.5 223.5 473.5 223.5 473.8 217.9 Z M218.4 221.4 C221.0 220.4 220.2 218.6 216.2 216.5 C214.2 215.4 210.4 212.5 207.8 210.1 C203.0 205.7 203.0 205.7 204.1 208.9 C205.0 211.3 215.0 222.0 216.5 222.0 C216.7 222.0 217.5 221.7 218.4 221.4 Z M111.7 218.3 C110.4 217.1 111.0 216.0 113.0 216.0 C114.1 216.0 115.0 216.7 115.0 217.5 C115.0 219.0 112.9 219.6 111.7 218.3 Z M285.1 217.3 C287.2 216.0 288.0 214.8 288.0 212.8 C288.0 209.6 288.6 209.4 291.1 211.6 C292.7 213.0 293.2 213.0 296.9 211.1 C299.7 209.6 301.2 208.1 301.6 206.2 C302.5 202.6 305.2 197.3 310.0 189.9 C312.7 185.6 314.0 182.6 314.0 180.2 C314.0 175.0 317.2 169.2 324.9 160.5 C332.3 152.0 334.2 148.1 332.7 143.7 C331.5 140.0 329.5 140.3 325.1 144.8 C318.5 151.3 310.0 168.5 310.0 175.1 C310.0 177.4 308.1 178.5 306.7 177.1 C304.1 174.5 313.6 151.7 320.5 144.1 C324.5 139.7 324.7 139.0 322.2 139.0 C317.7 139.1 310.7 142.9 305.5 147.9 C300.3 152.9 298.8 156.1 301.0 157.5 C302.8 158.6 302.1 171.1 300.0 175.9 C297.3 181.7 297.4 182.5 301.4 184.8 C304.8 186.8 304.8 186.9 303.9 191.1 C302.5 197.3 300.2 201.7 296.8 204.5 C291.6 208.9 286.8 207.3 283.6 200.2 C281.5 195.6 277.7 193.1 275.2 194.6 C272.5 196.3 272.6 198.0 275.4 198.0 C277.1 198.0 278.6 198.9 279.7 200.6 C281.3 203.1 281.3 203.4 279.7 206.1 C278.3 208.6 278.3 209.7 279.3 214.0 C279.9 216.7 280.9 219.0 281.3 219.0 C281.8 219.0 283.5 218.2 285.1 217.3 Z M636.5 218.0 C636.1 217.3 636.2 216.4 636.8 215.8 C638.2 214.4 641.3 215.6 640.8 217.3 C640.2 218.9 637.4 219.4 636.5 218.0 Z M241.2 212.8 C247.5 209.6 259.0 199.2 259.0 196.6 C259.0 195.9 260.5 193.3 262.2 190.9 C265.5 186.5 265.5 186.5 265.2 175.5 C265.0 167.5 265.3 162.9 266.6 158.5 C269.4 148.5 271.7 137.0 271.0 137.0 C270.6 137.0 268.6 139.0 266.6 141.5 C261.4 147.8 257.7 150.2 237.0 161.1 C229.8 164.9 218.0 175.9 218.0 178.9 C218.0 180.1 219.7 181.8 222.4 183.4 C226.9 186.0 226.9 186.0 230.2 184.1 C235.3 181.2 240.0 180.0 247.5 179.7 C252.6 179.4 254.6 178.9 255.6 177.6 C256.3 176.6 257.3 176.1 257.9 176.5 C259.9 177.7 259.0 183.6 255.9 189.8 C252.4 196.8 246.2 202.8 238.4 206.6 C233.5 209.0 233.0 209.5 233.0 212.6 C233.0 214.5 233.4 216.0 233.9 216.0 C234.4 216.0 237.7 214.6 241.2 212.8 Z M223.0 212.2 C223.0 210.5 218.3 208.0 215.2 208.0 C213.0 208.0 214.0 210.5 216.8 212.2 C220.4 214.5 223.0 214.5 223.0 212.2 Z M111.7 209.3 C110.4 208.1 111.0 207.0 113.0 207.0 C114.1 207.0 115.0 207.7 115.0 208.5 C115.0 210.0 112.9 210.6 111.7 209.3 Z M215.9 200.9 C218.3 198.2 220.0 195.7 219.7 195.4 C218.9 194.6 210.0 203.0 210.0 204.6 C210.0 206.9 211.3 206.1 215.9 200.9 Z M232.8 204.1 C235.7 203.0 240.2 200.6 242.8 198.8 C247.6 195.3 254.4 186.6 253.7 184.6 C253.1 182.7 241.9 183.6 235.8 185.9 C229.8 188.2 227.7 190.8 232.8 189.5 C239.5 187.9 241.6 187.8 242.9 189.4 C244.1 190.8 243.7 191.6 240.2 194.9 C235.7 199.3 228.7 202.0 222.3 202.0 C218.2 202.0 216.7 203.4 218.7 205.3 C220.0 206.6 227.6 206.0 232.8 204.1 Z M474.0 200.0 C474.0 196.8 474.5 189.4 475.0 183.8 C475.6 178.1 476.2 171.4 476.5 168.8 C476.7 166.1 476.5 164.0 476.0 164.0 C474.7 164.0 458.9 171.7 456.6 173.5 C454.9 174.8 454.9 175.1 456.2 177.2 C458.5 180.7 459.2 183.8 459.9 192.9 C460.5 201.3 460.5 201.3 465.2 202.9 C467.8 203.8 470.2 204.8 470.6 205.2 C471.0 205.7 471.9 206.0 472.7 206.0 C473.6 206.0 474.0 204.3 474.0 200.0 Z M635.7 204.6 C634.9 202.5 637.3 200.7 638.8 202.2 C639.6 203.0 639.7 203.7 638.9 204.7 C637.4 206.4 636.4 206.4 635.7 204.6 Z M403.4 196.6 C405.5 194.9 408.4 192.3 409.9 190.9 C411.3 189.5 413.9 187.8 415.7 187.1 C420.2 185.3 421.3 183.8 419.6 181.5 C418.3 179.7 418.1 179.7 414.4 182.0 C412.2 183.2 408.5 185.4 406.0 186.8 C394.0 193.4 392.0 195.0 392.0 198.4 C392.0 200.2 392.3 201.9 392.6 202.3 C393.5 203.1 398.6 200.4 403.4 196.6 Z M208.0 201.1 C208.0 200.6 207.4 199.0 206.6 197.5 C204.9 194.2 203.5 195.9 205.1 199.4 C206.3 201.9 208.0 202.9 208.0 201.1 Z M111.7 198.4 C110.4 197.1 111.0 196.0 113.1 196.0 C114.2 196.0 115.0 196.5 114.8 197.2 C114.3 198.6 112.6 199.3 111.7 198.4 Z M228.2 195.4 C227.9 193.1 218.4 184.0 216.4 184.0 C213.8 184.0 215.0 186.6 218.2 188.1 C220.3 189.0 222.4 191.1 223.8 193.8 C226.2 198.1 228.8 199.0 228.2 195.4 Z M212.0 194.8 C212.0 194.1 211.5 192.8 211.0 192.0 C210.2 190.8 210.0 191.1 210.0 193.2 C210.0 194.8 210.4 196.0 211.0 196.0 C211.6 196.0 212.0 195.4 212.0 194.8 Z M236.0 194.0 C236.8 193.5 237.2 192.8 236.9 192.5 C236.1 191.7 233.0 193.0 233.0 194.1 C233.0 195.2 234.1 195.2 236.0 194.0 Z M216.5 191.0 C216.0 190.2 215.4 190.2 214.8 190.8 C214.2 191.4 214.1 192.4 214.5 193.0 C215.0 193.8 215.6 193.8 216.2 193.2 C216.8 192.6 216.9 191.6 216.5 191.0 Z M445.0 191.5 C444.4 190.7 444.1 189.6 444.5 189.0 C444.9 188.4 443.8 185.9 442.1 183.3 C438.6 178.1 438.4 176.8 440.5 175.0 C442.3 173.5 445.4 175.5 448.1 179.9 C452.0 186.3 449.2 196.6 445.0 191.5 Z M635.7 191.4 C634.8 190.5 636.1 188.0 637.5 188.0 C638.9 188.0 640.2 190.5 639.3 191.4 C638.9 191.7 638.1 192.0 637.5 192.0 C636.9 192.0 636.1 191.7 635.7 191.4 Z M204.8 186.4 C203.8 185.4 202.0 187.0 202.0 188.8 C202.0 190.3 202.1 190.3 203.7 188.7 C204.6 187.8 205.1 186.8 204.8 186.4 Z M113.6 188.3 C112.5 187.2 113.0 186.0 114.5 186.0 C115.3 186.0 116.0 186.4 116.0 186.9 C116.0 188.2 114.4 189.1 113.6 188.3 Z M215.9 174.7 C220.8 166.1 228.8 160.0 247.7 150.6 C251.1 148.9 254.0 147.1 254.0 146.5 C254.0 145.5 247.7 140.0 246.6 140.0 C246.2 140.0 246.0 140.6 246.0 141.3 C246.0 143.0 235.7 152.9 230.0 156.8 C227.5 158.4 223.9 161.3 222.1 163.1 C219.1 166.2 217.3 168.5 211.8 176.9 C210.8 178.3 210.0 180.8 210.0 182.5 C210.1 185.5 210.1 185.5 211.9 182.0 C212.9 180.1 214.6 176.8 215.9 174.7 Z M283.9 178.8 C283.3 171.9 286.1 163.4 289.2 162.4 C293.5 161.1 297.0 168.1 293.4 171.1 C292.5 171.9 290.7 174.2 289.4 176.2 C287.0 179.9 284.1 181.3 283.9 178.8 Z M113.7 178.4 C112.8 177.4 113.9 176.0 115.6 176.0 C116.4 176.0 117.0 176.7 117.0 177.5 C117.0 179.0 114.9 179.6 113.7 178.4 Z M277.6 162.2 C279.5 160.0 281.0 157.8 281.0 157.3 C280.9 156.2 275.2 150.0 274.2 150.0 C272.4 150.0 267.4 175.2 268.7 177.3 C269.0 177.9 270.4 175.6 271.7 172.2 C273.0 168.9 275.7 164.4 277.6 162.2 Z M633.0 176.5 C633.0 174.4 636.0 173.4 637.0 175.1 C638.1 176.8 637.3 178.0 634.9 178.0 C633.9 178.0 633.0 177.3 633.0 176.5 Z M398.8 174.1 C410.4 168.3 412.9 166.3 410.0 164.5 C409.0 163.9 393.5 171.3 392.5 173.0 C391.8 174.2 392.7 176.0 394.1 176.0 C394.7 176.0 396.8 175.2 398.8 174.1 Z M115.1 167.6 C113.9 166.2 114.6 165.0 116.7 165.0 C118.2 165.0 118.5 167.6 117.1 168.4 C116.6 168.7 115.7 168.4 115.1 167.6 Z M631.7 164.4 C630.3 162.9 631.1 161.0 633.1 161.0 C634.5 161.0 635.0 161.5 634.8 162.7 C634.5 164.5 632.8 165.4 631.7 164.4 Z M406.3 160.6 C407.9 159.3 408.0 158.7 406.9 155.1 C406.2 152.8 405.4 151.0 405.0 151.0 C403.3 151.0 402.0 153.8 402.0 157.7 C402.0 162.3 403.1 163.0 406.3 160.6 Z M116.1 157.6 C114.9 156.2 115.6 155.0 117.7 155.0 C119.2 155.0 119.5 157.6 118.1 158.4 C117.6 158.7 116.7 158.4 116.1 157.6 Z M290.1 153.0 C293.0 151.4 292.5 150.4 287.5 148.1 C279.5 144.3 276.3 146.1 281.6 151.4 C284.4 154.2 286.9 154.6 290.1 153.0 Z M440.8 144.4 C448.3 140.8 455.4 137.5 456.5 137.0 C472.6 129.9 480.0 125.9 480.0 124.3 C480.0 122.1 474.0 112.0 469.3 106.2 C465.6 101.7 456.8 95.3 451.0 92.9 C449.0 92.1 444.3 91.5 440.0 91.5 C423.0 91.6 410.6 103.0 406.5 122.7 C404.2 133.3 404.9 147.3 407.4 143.1 C407.8 142.5 409.6 142.0 411.3 142.0 C414.6 142.0 418.3 143.9 423.5 148.4 C425.1 149.8 426.6 150.9 426.8 151.0 C426.9 151.0 433.2 148.0 440.8 144.4 Z M628.7 149.3 C627.3 148.0 628.1 146.0 630.0 146.0 C631.3 146.0 632.0 146.7 632.0 148.0 C632.0 149.9 630.0 150.7 628.7 149.3 Z M118.1 148.0 C116.5 147.1 117.5 145.0 119.6 145.0 C121.1 145.0 121.6 147.5 120.2 148.4 C119.8 148.6 118.8 148.5 118.1 148.0 Z M303.0 143.6 C308.3 138.4 317.0 134.0 322.0 134.0 C324.6 134.0 325.4 130.4 324.6 123.3 C323.8 116.1 320.2 109.1 316.0 106.2 C309.5 101.8 296.0 103.9 290.2 110.2 C288.0 112.7 288.0 112.7 291.4 126.1 C293.3 133.5 295.1 141.6 295.5 144.2 C295.8 146.9 296.4 149.0 296.8 149.0 C297.1 149.0 299.9 146.6 303.0 143.6 Z M290.6 142.2 C290.4 141.3 289.9 138.9 289.5 137.0 C288.9 133.6 288.2 131.1 284.5 118.6 C282.8 112.8 282.8 112.8 287.0 108.5 C289.4 106.1 294.0 102.9 297.2 101.5 C302.2 99.2 304.0 98.9 308.4 99.4 C322.6 101.3 329.4 110.0 329.5 126.5 C329.5 130.3 329.9 133.7 330.5 133.9 C331.1 134.1 332.5 131.4 333.8 127.9 C338.3 115.1 334.2 101.1 324.5 96.1 C320.2 93.9 318.2 93.5 310.4 93.5 C301.9 93.5 301.1 93.7 295.6 97.0 C292.4 98.9 288.6 102.2 287.1 104.2 C283.9 108.8 282.4 108.9 280.2 104.8 C277.9 100.4 272.9 95.8 267.2 92.7 C260.6 89.2 246.3 88.1 239.9 90.6 C233.5 93.2 229.3 96.9 226.5 102.4 C219.5 116.3 228.4 134.0 242.3 134.0 C251.6 134.0 262.0 128.0 263.6 121.6 C264.4 118.2 263.2 116.8 261.8 119.5 C258.2 125.9 249.2 131.0 243.8 129.7 C239.4 128.6 232.4 123.1 230.1 118.9 C227.1 113.5 227.6 107.4 231.7 101.7 C240.4 89.2 255.8 87.5 266.1 97.9 C272.9 104.6 275.4 113.3 275.5 129.7 C275.5 142.0 275.5 142.0 280.0 142.0 C282.5 142.0 285.2 142.5 286.0 143.0 C288.5 144.6 291.2 144.2 290.6 142.2 Z M262.6 139.3 C266.9 134.6 269.7 128.5 270.6 122.2 C271.7 113.4 266.9 101.6 260.4 97.3 C256.4 94.7 256.5 96.6 260.5 100.4 C264.3 104.0 268.0 112.1 268.0 116.9 C268.0 124.0 261.9 132.8 255.3 135.2 C251.3 136.7 251.1 138.2 254.6 140.9 C258.2 143.7 258.7 143.6 262.6 139.3 Z M120.0 136.5 C120.0 135.5 120.7 135.0 121.8 135.2 C123.9 135.6 123.7 137.4 121.6 137.8 C120.6 138.0 120.0 137.5 120.0 136.5 Z M624.2 134.4 C624.6 132.3 626.4 132.1 626.8 134.2 C627.0 135.3 626.5 136.0 625.5 136.0 C624.5 136.0 624.0 135.4 624.2 134.4 Z M122.4 127.9 C121.7 126.7 123.9 124.8 125.2 125.6 C125.6 125.9 126.0 126.8 126.0 127.6 C126.0 129.3 123.4 129.5 122.4 127.9 Z M252.9 122.9 C253.8 122.2 255.7 120.3 256.9 118.4 C259.4 114.8 259.1 112.3 256.1 109.6 C254.5 108.1 253.9 108.1 252.1 109.2 C250.8 110.0 250.0 111.5 250.0 113.2 C250.0 116.4 247.6 118.0 242.6 118.0 C239.1 118.0 235.8 115.2 234.5 110.9 C233.6 108.0 232.0 108.6 232.0 111.9 C232.0 115.7 235.8 121.1 240.0 123.3 C243.7 125.2 249.4 125.0 252.9 122.9 Z M619.3 122.5 C619.0 121.6 619.0 120.7 619.3 120.4 C620.2 119.5 622.0 121.0 622.0 122.6 C622.0 124.5 620.1 124.4 619.3 122.5 Z M125.4 117.9 C124.4 116.2 126.7 114.3 128.1 115.7 C129.3 116.9 128.5 119.0 127.0 119.0 C126.5 119.0 125.8 118.5 125.4 117.9 Z M244.4 114.4 C245.3 114.1 246.0 112.8 246.0 111.5 C246.0 110.3 246.9 108.1 248.1 106.6 C251.0 103.0 255.0 103.1 258.9 107.1 C260.7 108.9 262.0 109.6 262.0 108.8 C262.0 107.3 257.2 102.4 253.0 99.7 C251.5 98.6 248.5 98.0 245.3 98.0 C240.7 98.0 239.9 98.3 238.1 100.9 C235.1 105.1 235.6 108.4 239.8 113.2 C241.4 115.2 242.0 115.3 244.4 114.4 Z M614.7 110.4 C613.3 109.0 614.0 106.9 615.8 107.2 C616.7 107.4 617.5 108.2 617.5 108.9 C617.5 110.5 615.7 111.4 614.7 110.4 Z M128.7 109.4 C127.3 108.0 128.0 105.9 129.8 106.2 C130.7 106.4 131.5 107.2 131.5 107.9 C131.5 109.5 129.7 110.4 128.7 109.4 Z M608.4 99.9 C607.4 98.2 610.7 95.3 612.1 96.7 C612.8 97.4 613.0 98.6 612.7 99.4 C612.0 101.2 609.4 101.5 608.4 99.9 Z M132.2 98.4 C132.6 96.3 134.4 96.1 134.8 98.2 C135.0 99.3 134.5 100.0 133.5 100.0 C132.5 100.0 132.0 99.4 132.2 98.4 Z M136.4 89.9 C136.1 89.3 136.2 88.4 136.8 87.8 C138.1 86.5 140.0 87.6 140.0 89.6 C140.0 91.2 137.4 91.5 136.4 89.9 Z M602.2 88.3 C602.7 85.7 606.0 85.4 606.0 87.9 C606.0 89.4 605.4 90.0 603.9 90.0 C602.5 90.0 602.0 89.5 602.2 88.3 Z M140.5 81.0 C139.7 79.6 140.8 78.0 142.6 78.0 C143.4 78.0 144.0 78.9 144.0 80.0 C144.0 82.1 141.6 82.8 140.5 81.0 Z M595.5 80.0 C595.1 79.4 595.4 78.3 596.0 77.4 C597.0 76.3 597.6 76.2 598.6 77.1 C599.7 78.0 599.7 78.6 598.9 79.6 C597.5 81.3 596.4 81.4 595.5 80.0 Z M146.7 72.4 C145.3 71.0 146.0 68.9 147.8 69.2 C148.7 69.4 149.5 70.2 149.5 70.9 C149.5 72.5 147.7 73.4 146.7 72.4 Z M587.4 70.6 C586.7 68.7 587.7 67.0 589.6 67.0 C590.6 67.0 591.0 67.8 590.8 69.2 C590.4 71.8 588.2 72.8 587.4 70.6 Z M370.5 68.1 C369.7 66.6 370.8 65.0 372.6 65.0 C373.5 65.0 374.0 65.7 373.8 66.7 C373.4 68.7 371.4 69.5 370.5 68.1 Z M152.5 63.1 C151.7 61.6 152.8 60.0 154.6 60.0 C155.5 60.0 156.0 60.7 155.8 61.7 C155.4 63.7 153.4 64.5 152.5 63.1 Z M375.7 63.4 C374.3 61.9 375.1 60.0 377.1 60.0 C378.5 60.0 379.0 60.5 378.8 61.7 C378.5 63.5 376.8 64.4 375.7 63.4 Z M366.2 61.3 C366.4 60.3 367.2 59.5 368.0 59.5 C370.2 59.5 369.8 62.4 367.7 62.8 C366.3 63.1 365.9 62.7 366.2 61.3 Z M578.7 61.6 C577.9 59.6 580.7 57.3 582.2 58.8 C583.6 60.2 582.5 63.0 580.6 63.0 C579.9 63.0 579.0 62.4 578.7 61.6 Z M383.4 57.5 C382.7 55.8 383.8 53.8 385.1 54.5 C386.3 55.3 386.3 59.0 385.0 59.0 C384.4 59.0 383.7 58.3 383.4 57.5 Z M360.7 57.4 C359.3 55.9 360.1 54.0 362.1 54.0 C363.5 54.0 364.0 54.5 363.8 55.7 C363.5 57.5 361.8 58.4 360.7 57.4 Z M160.0 55.0 C160.0 53.9 160.7 53.0 161.5 53.0 C162.3 53.0 163.0 53.9 163.0 55.0 C163.0 56.1 162.3 57.0 161.5 57.0 C160.7 57.0 160.0 56.1 160.0 55.0 Z M569.4 53.9 C569.1 53.3 569.4 52.2 570.1 51.4 C571.9 49.7 574.5 51.2 573.7 53.4 C573.0 55.2 570.4 55.5 569.4 53.9 Z M353.2 50.3 C353.4 49.3 354.2 48.5 355.0 48.5 C357.2 48.5 356.8 51.4 354.7 51.8 C353.3 52.1 352.9 51.7 353.2 50.3 Z M389.4 50.9 C389.1 50.3 389.4 49.2 390.2 48.4 C391.5 47.1 391.8 47.1 392.9 48.4 C393.6 49.2 393.9 50.4 393.5 51.0 C392.7 52.3 390.3 52.3 389.4 50.9 Z M168.7 47.4 C167.8 46.4 168.9 45.0 170.6 45.0 C171.4 45.0 172.0 45.7 172.0 46.5 C172.0 48.0 169.9 48.6 168.7 47.4 Z M346.2 44.3 C346.4 43.3 347.2 42.5 348.0 42.5 C350.2 42.5 349.8 45.4 347.7 45.8 C346.3 46.1 345.9 45.7 346.2 44.3 Z M399.3 44.9 C397.9 43.5 398.7 41.0 400.5 41.0 C402.3 41.0 403.1 43.7 401.6 44.9 C400.7 45.6 400.0 45.6 399.3 44.9 Z M559.0 44.6 C559.0 43.1 561.4 41.8 562.4 42.7 C563.7 44.1 562.9 46.0 561.0 46.0 C559.9 46.0 559.0 45.4 559.0 44.6 Z M178.1 40.6 C176.9 39.2 177.6 38.0 179.7 38.0 C181.2 38.0 181.5 40.6 180.1 41.4 C179.6 41.7 178.7 41.4 178.1 40.6 Z M337.0 38.6 C337.0 36.5 339.1 35.5 340.0 37.1 C340.5 37.8 340.6 38.8 340.4 39.2 C339.5 40.6 337.0 40.1 337.0 38.6 Z M408.2 37.2 C408.4 36.3 409.2 35.5 410.0 35.5 C410.8 35.5 411.6 36.3 411.8 37.2 C412.0 38.5 411.5 39.0 410.0 39.0 C408.5 39.0 408.0 38.5 408.2 37.2 Z M548.2 36.8 C548.4 35.6 549.2 34.5 550.0 34.5 C552.2 34.5 551.9 38.4 549.7 38.8 C548.2 39.1 547.9 38.7 548.2 36.8 Z M186.4 34.9 C185.4 33.2 187.7 31.3 189.1 32.7 C190.3 33.9 189.5 36.0 188.0 36.0 C187.5 36.0 186.8 35.5 186.4 34.9 Z M328.1 34.0 C326.5 33.1 327.5 31.0 329.6 31.0 C331.1 31.0 331.6 33.5 330.2 34.4 C329.8 34.6 328.8 34.5 328.1 34.0 Z M418.3 31.4 C417.5 29.3 419.6 27.2 421.1 28.7 C422.4 30.0 421.6 33.0 420.0 33.0 C419.4 33.0 418.7 32.3 418.3 31.4 Z M536.4 31.9 C535.5 30.4 537.5 28.6 539.4 29.3 C540.3 29.7 540.7 30.6 540.4 31.5 C539.7 33.2 537.4 33.5 536.4 31.9 Z M195.2 31.3 C193.2 30.6 193.8 28.0 196.0 28.0 C197.1 28.0 198.0 28.6 198.0 29.4 C198.0 31.2 196.9 31.9 195.2 31.3 Z M318.6 29.3 C317.4 28.1 318.0 26.0 319.5 26.0 C320.3 26.0 321.0 26.6 321.0 27.4 C321.0 29.1 319.6 30.2 318.6 29.3 Z M430.2 26.3 C430.4 25.3 431.2 24.5 432.0 24.5 C434.2 24.5 433.8 27.4 431.7 27.8 C430.3 28.1 429.9 27.7 430.2 26.3 Z M524.4 26.9 C523.5 25.4 525.5 23.6 527.4 24.3 C528.3 24.7 528.7 25.6 528.4 26.5 C527.7 28.2 525.4 28.5 524.4 26.9 Z M204.0 25.5 C204.0 24.5 204.7 24.0 205.8 24.2 C207.9 24.6 207.7 26.4 205.6 26.8 C204.6 27.0 204.0 26.5 204.0 25.5 Z M308.2 24.3 C308.4 23.3 309.2 22.5 310.0 22.5 C312.2 22.5 311.8 25.4 309.7 25.8 C308.3 26.1 307.9 25.7 308.2 24.3 Z M440.6 24.1 C439.7 22.6 442.9 20.5 444.2 21.8 C444.7 22.3 444.9 23.3 444.6 23.9 C443.7 25.2 441.3 25.3 440.6 24.1 Z M215.2 22.4 C215.6 20.3 217.4 20.1 217.8 22.2 C218.0 23.3 217.5 24.0 216.5 24.0 C215.5 24.0 215.0 23.4 215.2 22.4 Z M299.0 23.0 C297.8 22.3 297.8 21.8 298.8 20.8 C299.7 19.9 300.3 19.9 301.2 20.8 C302.8 22.4 301.0 24.2 299.0 23.0 Z M513.7 23.3 C512.3 22.0 513.1 20.0 515.0 20.0 C516.1 20.0 517.0 20.4 517.0 20.9 C517.0 22.2 514.4 24.1 513.7 23.3 Z M452.2 21.2 C452.4 20.3 453.2 19.5 454.0 19.5 C454.8 19.5 455.6 20.3 455.8 21.2 C456.0 22.5 455.5 23.0 454.0 23.0 C452.5 23.0 452.0 22.5 452.2 21.2 Z M224.7 20.6 C224.0 19.0 224.8 18.0 226.7 18.0 C227.4 18.0 228.0 18.9 228.0 20.0 C228.0 22.3 225.5 22.7 224.7 20.6 Z M464.6 21.3 C463.3 19.9 464.1 18.0 466.0 18.0 C467.1 18.0 468.0 18.6 468.0 19.4 C468.0 20.9 465.6 22.2 464.6 21.3 Z M502.7 21.4 C501.3 19.9 502.1 18.0 504.1 18.0 C505.5 18.0 506.0 18.5 505.8 19.7 C505.5 21.5 503.8 22.4 502.7 21.4 Z M235.4 18.9 C234.4 17.2 236.7 15.3 238.1 16.7 C239.3 17.9 238.5 20.0 237.0 20.0 C236.5 20.0 235.8 19.5 235.4 18.9 Z M278.1 18.6 C277.2 17.6 277.3 17.0 278.4 16.1 C279.4 15.2 280.0 15.3 280.9 16.4 C281.8 17.4 281.7 18.0 280.6 18.9 C279.6 19.8 279.0 19.7 278.1 18.6 Z M288.5 19.1 C288.2 18.6 288.4 17.9 289.0 17.5 C290.2 16.8 292.0 17.7 292.0 19.1 C292.0 20.3 289.3 20.3 288.5 19.1 Z M477.2 18.2 C477.4 17.3 478.2 16.5 479.0 16.5 C479.8 16.5 480.6 17.3 480.8 18.2 C481.0 19.5 480.5 20.0 479.0 20.0 C477.5 20.0 477.0 19.5 477.2 18.2 Z M488.6 19.1 C488.3 18.6 488.6 17.7 489.4 17.1 C490.4 16.3 491.0 16.3 491.9 17.3 C492.5 18.1 492.7 19.0 492.3 19.3 C491.4 20.3 489.2 20.2 488.6 19.1 Z M245.4 16.9 C244.6 15.5 246.5 13.6 247.9 14.4 C249.5 15.4 249.2 18.0 247.6 18.0 C246.8 18.0 245.8 17.5 245.4 16.9 Z M256.4 16.9 C255.6 15.5 257.5 13.6 258.9 14.4 C259.5 14.8 260.0 15.8 260.0 16.6 C260.0 18.2 257.4 18.5 256.4 16.9 Z M267.7 17.4 C266.8 16.4 267.9 15.0 269.6 15.0 C270.4 15.0 271.0 15.7 271.0 16.5 C271.0 18.0 268.9 18.6 267.7 17.4 Z" fill="#1A1613" fill-rule="evenodd"/></svg>