<svg xmlns="http://www.w3.org/2000/svg" viewBox="0 0 1020 432" role="img"><path d="M953.5 430.8 C952.3 430.1 946.3 429.5 938.5 429.4 C901.7 428.8 859.0 427.9 847.0 427.5 C839.6 427.2 813.2 426.8 788.5 426.4 C763.8 426.1 739.5 425.7 734.5 425.5 C729.5 425.3 699.9 424.8 668.5 424.5 C637.1 424.1 611.3 423.6 610.9 423.5 C610.6 423.3 597.4 423.0 581.4 423.0 C555.2 422.8 533.6 422.3 473.5 420.5 C454.8 420.0 313.2 418.8 222.5 418.5 C200.5 418.5 143.1 418.7 95.0 419.0 C7.5 419.7 7.5 419.7 3.7 417.2 C-0.6 414.3 -1.1 411.6 2.4 408.9 C3.7 407.8 5.8 404.9 7.1 402.2 C11.0 394.1 21.5 377.3 34.5 358.5 C41.3 348.6 48.2 338.6 49.7 336.3 C51.2 333.9 57.5 325.4 63.5 317.3 C76.5 300.0 78.4 297.3 86.3 285.5 C89.6 280.6 94.0 274.5 96.0 272.0 C99.6 267.5 107.0 255.7 112.3 245.7 C113.9 242.9 116.2 238.8 117.6 236.8 C118.9 234.7 120.0 232.8 120.0 232.5 C120.0 232.1 121.8 229.2 124.0 226.0 C126.2 222.8 128.0 219.9 128.0 219.5 C128.0 219.2 130.4 215.3 133.4 210.7 C136.3 206.2 140.4 199.3 142.4 195.5 C144.5 191.7 148.3 184.9 150.9 180.5 C157.4 169.5 164.0 157.1 164.0 155.8 C164.0 155.2 168.5 145.7 174.1 134.6 C179.6 123.6 186.2 109.5 188.6 103.5 C191.1 97.5 194.0 90.7 195.0 88.5 C196.1 86.3 199.0 79.1 201.6 72.5 C204.1 65.9 207.5 58.2 209.0 55.5 C210.5 52.8 212.1 49.0 212.5 47.3 C213.2 43.9 217.1 40.0 219.9 40.0 C220.8 40.0 223.2 40.9 225.3 42.0 C227.3 43.1 229.4 44.0 230.0 44.0 C231.1 44.0 238.2 47.4 251.2 54.3 C256.0 56.8 263.3 60.3 267.4 61.9 C271.5 63.5 282.2 68.4 291.2 72.8 C311.4 82.7 320.5 86.9 325.0 88.5 C326.9 89.2 329.9 90.5 331.5 91.4 C333.1 92.3 335.0 93.0 335.7 93.0 C336.3 93.0 338.1 93.6 339.7 94.4 C341.2 95.2 345.9 97.0 350.0 98.5 C354.1 100.0 358.2 101.6 359.1 102.0 C359.9 102.4 363.8 104.0 367.6 105.5 C371.4 106.9 377.0 109.2 380.0 110.4 C383.0 111.7 388.2 113.8 391.5 115.0 C394.8 116.2 399.1 117.8 401.0 118.6 C402.9 119.3 405.6 120.2 407.0 120.5 C408.4 120.9 411.8 122.0 414.5 123.0 C417.2 124.0 423.1 126.0 427.5 127.4 C439.0 131.0 444.8 133.0 450.5 135.1 C453.2 136.1 460.7 138.5 467.0 140.5 C473.3 142.4 484.4 145.9 491.5 148.1 C503.1 151.7 511.0 154.1 526.0 158.6 C528.5 159.3 533.4 160.8 537.0 161.9 C540.6 162.9 545.8 164.1 548.5 164.5 C551.2 164.9 554.3 165.6 555.2 166.1 C556.1 166.6 559.7 167.6 563.2 168.4 C566.7 169.2 574.8 171.2 581.2 172.9 C587.6 174.6 594.2 176.0 595.7 176.0 C597.3 176.0 601.0 176.7 604.0 177.5 C607.0 178.4 612.0 179.7 615.0 180.5 C618.0 181.3 622.5 182.4 625.0 183.0 C636.6 186.0 644.8 188.0 648.0 188.5 C649.9 188.8 654.2 189.7 657.5 190.5 C665.0 192.2 680.2 195.4 690.0 197.5 C694.1 198.3 702.2 199.7 708.0 200.5 C720.1 202.2 731.6 204.5 738.0 206.5 C740.5 207.2 744.5 208.2 747.0 208.5 C749.5 208.9 753.8 209.8 756.5 210.5 C759.2 211.3 767.1 212.9 774.0 214.0 C800.1 218.3 810.7 220.3 818.2 222.1 C822.5 223.2 827.0 224.0 828.2 224.0 C829.4 224.0 834.0 224.9 838.5 225.9 C851.7 229.0 869.3 231.8 892.5 234.5 C904.6 235.9 917.4 237.5 921.0 238.1 C924.6 238.7 935.1 239.6 944.5 240.1 C953.9 240.5 964.1 241.2 967.2 241.6 C970.4 241.9 982.0 241.6 993.0 240.9 C1013.0 239.7 1013.0 239.7 1015.3 241.8 C1016.6 243.0 1018.2 244.0 1018.9 244.0 C1020.4 244.0 1019.9 276.3 1018.1 290.6 C1017.5 295.5 1016.2 327.7 1015.1 362.0 C1013.1 424.4 1013.1 424.4 1010.1 427.2 C1008.4 428.8 1007.0 430.5 1007.0 431.1 C1007.0 432.5 956.0 432.2 953.5 430.8 Z M997.2 414.8 C998.2 413.1 998.5 406.2 998.6 389.0 C998.6 376.1 999.0 351.7 999.5 334.8 C1000.2 308.6 1000.1 304.0 998.9 304.0 C998.1 304.0 996.2 306.5 994.6 309.6 C989.1 320.1 983.9 323.4 982.4 317.3 C981.9 315.6 982.4 314.0 983.9 312.2 C990.7 303.6 995.7 291.4 996.6 281.0 C997.4 272.7 996.1 268.5 991.4 263.9 C988.2 260.8 987.4 260.5 982.4 260.6 C979.4 260.7 975.8 261.2 974.2 261.8 C972.7 262.4 969.0 263.6 966.0 264.4 C955.3 267.4 941.1 279.1 935.5 289.5 C930.4 298.9 931.3 315.0 936.9 315.8 C940.0 316.3 944.0 315.2 944.0 313.9 C944.0 313.3 946.0 308.8 948.4 304.0 C958.4 283.9 970.3 273.4 979.0 277.0 C983.9 279.0 986.3 283.3 985.8 289.0 C985.2 294.5 980.9 303.8 977.4 307.1 C974.3 310.0 974.4 312.1 977.6 316.0 C979.1 317.7 981.8 322.3 983.7 326.3 C990.6 340.7 993.2 353.0 991.0 362.0 C989.9 366.7 990.0 368.0 992.5 377.3 C995.1 387.5 995.1 387.5 992.8 394.0 C991.0 399.1 989.7 401.0 986.5 403.1 C975.2 410.8 958.8 413.1 938.0 409.8 C923.5 407.5 913.7 405.6 902.5 402.8 C873.9 395.6 870.6 395.0 859.5 395.0 C848.7 395.0 848.4 395.1 843.0 398.4 C836.5 402.5 825.8 408.0 824.3 408.0 C823.8 408.0 822.3 409.1 821.0 410.5 C816.9 414.8 813.7 414.7 875.5 413.8 C895.3 413.5 914.4 412.9 918.0 412.5 C922.7 412.0 926.2 412.3 930.7 413.4 C934.0 414.3 939.6 415.0 943.1 415.1 C946.6 415.2 952.0 415.5 955.0 416.0 C958.0 416.4 968.5 416.8 978.2 416.9 C995.6 417.0 996.0 417.0 997.2 414.8 Z M757.8 413.4 C761.1 412.5 760.5 410.3 756.2 408.1 C751.5 405.7 742.5 396.1 740.5 391.4 C739.7 389.5 738.7 388.0 738.3 388.0 C737.9 388.0 734.5 391.1 730.8 394.9 C727.0 398.8 721.1 403.4 717.5 405.5 C713.8 407.5 711.1 409.7 711.3 410.3 C711.5 411.1 716.9 411.7 727.5 412.2 C736.2 412.6 743.8 413.2 744.4 413.4 C746.1 414.1 755.2 414.1 757.8 413.4 Z M657.4 410.0 C663.2 410.0 663.3 410.0 661.5 408.0 C660.6 407.0 657.7 405.3 655.1 404.4 C652.6 403.5 649.5 402.3 648.3 401.7 C646.1 400.7 640.9 401.8 632.2 405.1 C627.8 406.8 630.4 408.5 638.4 409.1 C642.6 409.5 646.4 410.1 646.8 410.4 C647.1 410.8 648.4 410.9 649.5 410.6 C650.6 410.3 654.2 410.0 657.4 410.0 Z M469.9 407.7 C470.7 406.6 470.5 405.9 469.1 404.6 C467.3 403.0 466.5 403.0 461.3 404.1 C454.9 405.4 453.4 406.3 454.4 407.9 C455.4 409.5 468.5 409.3 469.9 407.7 Z M804.5 407.4 C806.7 406.5 810.2 405.4 812.3 404.9 C817.1 403.7 827.3 398.4 847.1 386.7 C850.6 384.7 855.3 381.9 857.5 380.7 C863.0 377.5 862.8 375.0 857.1 373.3 C853.5 372.3 852.3 372.3 850.9 373.3 C849.9 373.9 845.8 377.1 841.8 380.2 C833.6 386.4 829.3 389.2 824.0 391.6 C822.1 392.5 817.9 394.5 814.8 396.0 C806.4 400.2 792.7 403.4 786.5 402.6 C772.3 401.0 760.6 393.7 754.8 383.1 C753.5 380.7 752.4 380.0 750.2 380.0 C742.7 380.0 744.5 388.6 754.0 397.3 C759.4 402.3 763.9 404.5 774.5 407.6 C780.5 409.4 799.6 409.2 804.5 407.4 Z M586.7 406.3 C586.9 405.7 585.8 404.4 584.2 403.6 C582.7 402.8 579.8 400.7 578.0 399.0 C576.2 397.3 573.4 395.2 571.9 394.4 C568.1 392.5 561.1 392.6 557.9 394.8 C551.0 399.4 549.3 400.5 547.2 402.4 C543.0 406.1 544.3 406.9 554.8 407.3 C573.8 407.9 586.3 407.6 586.7 406.3 Z M78.9 404.4 C79.5 403.8 77.9 402.4 73.0 399.8 C71.3 398.8 69.2 396.7 68.2 395.0 C65.9 391.0 64.8 390.7 57.8 392.5 C54.6 393.4 51.0 393.8 50.0 393.5 C47.6 392.7 46.6 389.6 47.9 387.2 C51.1 381.2 73.4 364.7 86.5 358.6 C95.0 354.7 95.3 354.5 95.7 353.4 C95.9 352.9 93.7 351.7 91.0 350.7 C83.7 348.1 82.9 345.8 87.0 338.4 C94.2 325.3 117.8 300.3 132.5 290.2 C139.5 285.4 139.5 285.4 140.2 278.4 C140.5 274.6 141.7 268.3 142.8 264.3 C145.5 254.6 154.0 237.3 158.2 233.0 C163.1 227.9 167.6 224.9 169.4 225.6 C171.0 226.2 171.4 227.1 172.5 232.8 C172.9 234.5 173.5 236.0 173.9 236.0 C174.7 236.0 176.4 226.2 177.9 212.5 C179.8 195.5 188.2 173.6 198.2 159.5 C203.2 152.5 214.4 141.4 220.1 137.9 C225.0 134.9 225.7 132.4 223.1 127.3 C219.8 120.8 217.0 107.5 217.0 98.4 C217.0 84.8 221.5 75.3 230.4 69.6 C235.7 66.3 236.0 65.3 232.5 64.0 C231.1 63.5 228.7 62.1 227.1 60.9 C223.6 58.3 221.3 58.9 220.0 62.7 C219.4 64.3 218.5 66.4 218.0 67.5 C214.5 75.1 211.0 84.1 211.0 85.4 C211.0 86.2 210.6 87.2 210.0 87.5 C209.5 87.8 208.6 90.0 208.0 92.3 C207.4 94.6 206.0 98.3 204.9 100.6 C203.9 102.8 203.0 105.3 203.0 106.2 C203.0 107.0 201.2 111.8 199.0 116.8 C196.8 121.7 195.0 126.3 195.0 127.0 C195.0 127.6 194.4 129.4 193.6 130.8 C192.9 132.3 190.8 136.4 189.1 140.0 C187.3 143.6 184.8 148.3 183.5 150.5 C182.3 152.7 177.9 161.5 173.9 170.0 C169.9 178.5 163.5 190.8 159.9 197.2 C156.2 203.7 152.8 210.0 152.4 211.2 C151.6 214.1 147.6 221.1 143.3 227.2 C141.5 229.8 140.0 232.3 140.0 232.6 C140.0 233.0 137.3 237.9 134.0 243.6 C130.7 249.2 128.0 254.2 128.0 254.7 C128.0 255.2 126.4 258.0 124.4 261.0 C122.4 264.0 119.2 269.4 117.3 273.0 C115.4 276.6 112.6 281.1 111.1 283.0 C109.6 284.9 105.9 290.3 102.7 295.0 C95.4 306.0 88.8 315.1 82.4 323.1 C79.6 326.6 76.5 330.9 75.6 332.5 C74.7 334.1 72.2 338.0 70.0 341.0 C66.1 346.3 61.4 353.1 51.6 367.5 C48.9 371.4 45.1 376.6 43.1 379.2 C41.1 381.8 37.9 386.2 36.0 389.0 C34.1 391.8 31.3 395.7 29.8 397.7 C27.1 401.2 26.3 404.0 27.7 405.4 C28.5 406.2 78.1 405.3 78.9 404.4 Z M186.4 404.5 C235.0 404.3 267.7 403.7 268.2 403.2 C269.4 402.0 265.8 398.5 260.8 395.9 C258.8 394.9 254.5 391.3 251.3 388.1 C245.5 382.1 245.5 382.1 233.0 381.0 C226.1 380.4 218.5 380.0 216.0 380.1 C213.5 380.1 204.1 379.9 195.0 379.5 C180.7 378.8 178.2 378.9 177.0 380.3 C165.0 392.9 162.7 394.8 158.5 396.0 C152.8 397.6 148.9 396.8 142.8 392.8 C137.9 389.7 137.9 389.7 135.2 391.9 C131.3 395.1 124.9 398.0 121.8 398.0 C120.3 398.0 117.0 397.0 114.6 395.8 C110.1 393.7 110.1 393.7 104.3 396.2 C101.1 397.7 96.0 399.1 93.0 399.5 C87.3 400.3 82.0 402.4 82.0 404.0 C82.0 405.4 85.8 405.8 96.0 405.4 C101.2 405.1 141.9 404.8 186.4 404.5 Z M532.5 405.0 C533.2 405.0 537.2 402.2 541.4 398.9 C547.2 394.2 549.0 392.2 548.8 390.6 C548.6 389.1 547.7 388.4 545.8 388.2 C543.6 387.9 541.3 389.3 534.5 395.1 C529.8 399.1 526.0 402.9 526.0 403.6 C526.0 405.1 528.0 406.0 529.8 405.4 C530.6 405.2 531.7 405.0 532.5 405.0 Z M330.5 403.0 C330.5 401.2 324.5 398.1 320.9 398.0 C317.6 398.0 313.1 401.4 314.5 402.9 C315.6 404.0 321.4 404.8 327.0 404.6 C329.4 404.5 330.5 404.0 330.5 403.0 Z M522.7 398.1 C526.6 394.3 531.4 390.0 533.4 388.5 C536.8 385.9 538.3 382.0 536.0 382.0 C535.4 382.0 532.8 383.9 530.2 386.3 C523.6 392.3 515.9 398.5 513.2 399.9 C512.0 400.5 511.0 402.0 511.0 403.0 C511.0 407.0 515.3 405.2 522.7 398.1 Z M700.1 400.9 C706.0 397.2 715.9 386.9 719.4 380.9 C722.7 375.1 726.7 365.2 728.6 358.0 C730.3 351.7 733.1 330.0 732.4 328.9 C731.6 327.5 716.8 320.0 714.9 320.0 C713.1 320.0 713.0 320.6 713.6 329.8 C713.9 335.1 714.6 342.6 715.1 346.5 C717.1 360.0 717.2 363.9 716.1 370.4 C714.0 382.2 706.9 389.5 693.9 393.1 C685.1 395.5 679.8 395.5 670.4 392.9 C664.2 391.2 662.3 391.0 660.0 392.0 C654.4 394.3 655.4 398.4 661.9 399.6 C663.9 400.0 667.1 400.9 669.1 401.7 C674.0 403.6 684.5 404.9 690.5 404.4 C693.7 404.0 697.2 402.8 700.1 400.9 Z M495.5 401.3 C512.2 394.6 522.7 384.5 554.6 344.1 C564.7 331.3 569.0 325.1 568.8 323.6 C567.7 315.7 551.6 329.5 532.3 355.1 C520.6 370.6 501.1 390.9 494.2 394.8 C490.9 396.6 490.0 396.7 488.5 395.7 C487.0 394.5 486.9 393.8 487.9 389.1 C488.7 385.2 488.7 383.3 487.8 381.7 C486.4 379.0 484.0 377.1 481.9 377.0 C480.4 377.0 476.0 382.0 476.0 383.8 C476.0 384.3 474.7 386.4 473.0 388.6 C469.5 393.3 469.2 396.0 472.2 398.7 C478.5 404.4 485.7 405.2 495.5 401.3 Z M971.1 401.8 C983.1 397.8 986.8 393.9 987.2 385.1 C987.6 376.1 985.0 376.2 979.8 385.5 C976.9 390.7 975.6 391.9 970.0 394.8 C964.1 397.8 962.9 398.1 957.0 397.7 C950.3 397.2 930.3 392.2 925.3 389.7 C922.5 388.4 910.5 385.1 893.3 381.0 C881.4 378.1 872.2 378.5 868.5 382.0 C864.4 385.8 865.6 388.0 871.8 388.0 C874.5 388.0 892.0 391.9 901.5 394.6 C904.2 395.4 908.5 396.4 911.0 396.9 C913.5 397.5 918.6 398.6 922.5 399.5 C944.5 404.4 961.1 405.2 971.1 401.8 Z M621.1 401.0 C625.4 399.9 632.6 397.4 636.9 395.5 C641.3 393.6 645.3 392.0 646.0 392.0 C649.1 392.0 667.0 377.0 667.0 374.4 C667.0 372.3 658.8 368.6 655.9 369.3 C654.6 369.6 652.6 371.4 651.6 373.1 C647.7 379.8 642.5 384.3 635.1 387.7 C625.2 392.2 617.6 393.0 612.0 390.1 C607.2 387.6 604.0 387.4 600.1 389.5 C598.5 390.3 595.3 391.2 592.9 391.6 C588.0 392.3 585.0 393.6 585.0 394.9 C585.0 397.7 599.4 402.6 608.3 402.9 C611.0 402.9 616.7 402.1 621.1 401.0 Z M437.5 400.0 C460.3 397.1 458.1 398.3 466.2 384.2 C472.1 373.8 475.2 369.7 483.9 360.8 C493.7 350.6 494.3 349.7 493.4 347.2 C491.6 342.0 489.0 343.2 478.9 353.7 C469.9 363.1 460.7 375.4 454.7 386.0 C452.4 390.0 451.3 391.0 448.7 391.4 C446.9 391.6 442.4 392.4 438.5 393.0 C434.6 393.7 420.9 394.4 408.0 394.7 C383.4 395.2 382.0 395.1 343.2 389.3 C332.6 387.7 331.8 387.7 330.2 389.3 C327.4 392.2 329.8 394.3 338.1 396.3 C344.9 397.9 367.2 400.4 383.0 401.4 C393.3 402.0 428.7 401.1 437.5 400.0 Z M294.6 397.5 C307.4 395.3 314.6 392.0 322.8 384.5 C325.8 381.8 332.0 373.6 332.0 372.4 C332.0 372.1 333.1 370.2 334.5 368.2 C338.8 361.9 337.0 357.0 330.4 357.0 C326.9 357.0 326.7 357.3 325.6 362.2 C324.6 366.6 315.7 376.3 307.7 381.8 C298.6 388.0 295.1 389.5 287.7 390.4 C282.8 391.0 281.2 390.8 276.4 388.6 C269.6 385.5 260.3 382.9 258.4 383.7 C256.3 384.5 256.7 386.6 259.4 388.3 C268.1 394.0 278.9 398.8 283.6 398.9 C284.8 399.0 289.7 398.3 294.6 397.5 Z M83.4 393.9 C88.6 391.6 90.0 389.6 87.9 387.5 C86.7 386.3 85.6 386.3 80.5 387.8 C74.0 389.8 72.3 392.2 75.6 394.7 C77.9 396.4 77.9 396.4 83.4 393.9 Z M797.5 393.5 C801.9 392.7 805.6 392.1 805.8 392.0 C805.9 392.0 806.0 391.1 806.0 390.0 C806.0 388.9 805.9 388.0 805.8 388.0 C800.6 387.6 785.9 385.6 777.6 384.1 C771.6 383.0 766.1 382.4 765.4 382.7 C761.1 384.3 768.0 390.1 776.5 392.1 C779.2 392.7 782.9 393.6 784.5 394.0 C788.7 395.1 788.6 395.1 797.5 393.5 Z M727.2 387.6 C736.7 377.8 744.0 356.9 744.0 339.3 C744.0 333.9 743.7 333.1 741.9 332.5 C738.0 331.2 736.9 333.9 735.8 347.1 C735.3 353.8 734.3 360.5 733.6 361.9 C732.8 363.3 731.9 366.0 731.5 367.9 C730.6 372.2 726.7 380.9 723.5 386.0 C718.9 393.3 720.7 394.1 727.2 387.6 Z M115.4 380.7 C117.6 379.0 120.9 376.3 122.6 374.7 C124.9 372.6 126.4 372.0 127.9 372.5 C131.7 373.7 130.5 377.4 124.5 383.2 C118.6 388.9 117.7 391.0 121.3 391.0 C123.3 391.0 125.0 389.8 132.6 382.8 C134.7 380.9 134.9 380.9 138.1 382.6 C140.0 383.5 142.8 385.3 144.3 386.6 C147.5 389.3 153.6 389.8 157.3 387.9 C158.5 387.2 162.7 383.3 166.6 379.2 L173.8 371.7 L201.1 372.4 C216.2 372.8 233.4 373.8 239.5 374.6 C245.6 375.3 252.1 376.0 254.1 376.0 C256.0 376.0 263.4 377.1 270.4 378.5 C288.4 382.0 297.3 381.7 295.7 377.7 C295.3 376.7 293.3 375.9 290.3 375.5 C287.7 375.2 282.0 374.3 277.8 373.5 C273.5 372.7 266.8 371.7 262.8 371.4 C258.8 371.1 252.1 370.2 248.0 369.3 C243.9 368.5 230.2 367.4 217.5 366.9 C171.4 365.0 169.5 364.7 172.2 359.7 C173.2 357.8 174.0 357.8 191.9 358.6 C202.1 359.0 212.1 359.3 214.0 359.2 C218.8 358.9 240.7 360.9 245.2 362.1 C247.2 362.6 253.7 363.5 259.7 364.0 C265.6 364.6 273.0 365.5 276.0 366.0 C279.0 366.5 285.6 367.4 290.5 368.0 C295.4 368.6 300.9 369.8 302.6 370.7 C306.6 372.6 308.3 371.8 313.9 365.3 C319.0 359.6 319.0 356.8 314.0 355.8 C310.3 355.1 294.7 353.4 276.5 351.9 C270.4 351.3 249.3 350.9 229.5 351.0 C203.0 351.0 190.7 350.6 183.0 349.6 C153.1 345.4 134.9 346.6 114.0 354.2 C105.6 357.3 82.0 369.0 77.4 372.5 C75.1 374.1 71.1 376.7 68.6 378.2 C66.1 379.7 64.0 381.7 64.0 382.6 C64.0 384.0 64.8 384.2 69.0 383.7 C76.8 382.8 82.5 379.8 85.4 375.1 C88.4 370.4 90.3 370.0 92.6 373.5 C94.8 376.8 95.9 376.7 100.8 372.5 C107.1 367.1 119.4 361.5 131.2 358.6 C150.2 353.9 157.0 354.1 157.0 359.0 C157.0 360.9 152.5 363.0 148.3 363.0 C146.9 363.0 140.0 364.3 132.9 366.0 C120.5 368.8 119.5 369.3 108.0 376.6 C97.4 383.4 96.0 384.6 96.0 387.1 C96.0 388.6 96.6 390.0 97.2 390.3 C98.8 390.8 109.8 385.0 115.4 380.7 Z M966.3 388.9 C971.3 386.5 976.5 379.5 977.5 373.8 C978.3 369.5 976.9 368.3 969.3 367.3 C961.5 366.3 951.2 360.9 945.3 354.7 C942.2 351.4 938.7 348.7 936.3 348.0 C934.2 347.3 931.6 346.1 930.5 345.4 C927.7 343.6 900.2 332.8 890.0 329.5 C869.2 322.7 848.6 313.1 842.7 307.4 C839.2 304.0 838.7 303.8 834.0 304.2 C828.7 304.7 825.8 306.4 826.6 308.4 C827.2 310.0 847.1 323.0 851.5 324.7 C853.1 325.3 859.0 327.5 864.5 329.5 C880.6 335.3 912.9 348.9 915.5 351.0 C916.0 351.4 924.1 355.7 933.5 360.4 C942.9 365.2 951.7 370.4 953.2 372.0 C956.2 375.2 956.0 378.5 952.8 379.6 C949.6 380.6 936.1 379.1 929.5 377.0 C916.8 373.0 902.4 369.4 891.0 367.4 C886.9 366.7 880.8 365.4 877.5 364.5 C874.2 363.6 867.9 361.9 863.5 360.8 C859.1 359.7 853.2 358.2 850.5 357.4 C847.8 356.7 843.3 355.6 840.5 355.0 C828.1 352.3 812.4 346.5 795.1 338.3 C788.9 335.3 783.1 333.0 782.3 333.2 C781.4 333.4 780.2 334.3 779.6 335.2 C777.8 338.1 780.0 340.1 788.0 343.0 C800.4 347.6 804.4 349.1 807.5 350.5 C809.1 351.3 814.8 353.2 820.0 354.9 C825.2 356.6 830.9 358.4 832.5 358.9 C840.7 361.6 849.0 364.0 853.5 364.9 C865.2 367.1 884.6 371.3 896.5 374.0 C918.8 379.2 927.0 381.4 929.7 382.8 C931.0 383.5 933.9 384.5 936.2 385.0 C940.0 385.8 945.2 387.3 953.0 389.9 C957.4 391.4 961.8 391.1 966.3 388.9 Z M697.0 385.1 C707.2 380.2 712.4 367.9 709.5 355.3 C708.7 351.8 707.5 341.5 706.9 332.3 C706.2 322.5 705.2 314.5 704.4 313.0 C702.6 309.6 692.6 299.0 691.1 299.0 C690.5 299.0 690.0 299.4 690.0 299.9 C690.0 300.6 693.5 313.7 697.4 327.5 C699.5 334.6 702.5 355.5 702.5 362.0 C702.5 370.0 699.7 376.2 694.1 380.5 C689.5 384.2 689.5 384.2 679.5 383.8 C670.1 383.5 669.5 383.6 669.5 385.5 C669.5 387.2 670.3 387.6 674.5 388.0 C683.0 388.9 691.1 387.9 697.0 385.1 Z M437.7 385.3 C445.3 384.2 447.0 382.8 456.0 369.5 C463.7 358.2 469.9 350.9 478.2 343.1 C481.4 340.1 484.0 336.9 484.0 335.8 C484.0 334.8 482.4 331.8 480.5 329.2 C475.9 323.1 468.5 311.8 465.1 305.7 C463.7 303.1 461.9 299.9 461.3 298.7 C460.6 297.5 460.0 295.8 460.0 295.0 C460.0 292.5 453.2 276.7 451.8 275.8 C451.1 275.4 449.8 275.3 449.0 275.7 C448.2 276.0 444.4 277.4 440.5 278.7 C436.6 280.0 432.6 281.4 431.5 282.0 C428.3 283.5 410.9 290.0 406.0 291.5 C403.5 292.2 395.1 295.1 387.2 297.8 C379.4 300.5 371.3 303.1 369.2 303.5 C367.2 303.9 361.0 305.5 355.5 307.1 C335.0 313.1 321.3 315.1 299.0 315.6 C287.7 315.8 278.0 316.0 277.4 316.0 C276.8 316.0 274.8 319.4 273.0 323.5 C269.2 332.3 269.5 333.3 277.4 335.4 C294.2 339.8 300.7 340.5 337.5 342.0 C378.6 343.6 390.4 341.5 408.7 329.3 C413.3 326.3 418.4 322.1 420.1 319.9 C423.5 315.5 426.3 314.9 430.1 317.8 C431.4 318.8 434.8 320.9 437.5 322.4 C444.0 326.1 447.0 328.9 447.0 331.3 C447.0 332.4 445.3 335.3 443.2 337.9 C441.0 340.4 438.5 343.9 437.4 345.5 C436.4 347.1 434.6 349.7 433.5 351.1 C432.3 352.6 429.4 357.8 427.1 362.6 C418.8 380.3 421.6 378.5 402.4 378.5 C392.8 378.5 382.0 377.9 377.5 377.2 C373.1 376.4 366.1 375.4 362.0 375.0 C341.4 372.6 342.6 372.6 340.7 374.8 C337.7 378.1 338.9 380.4 344.0 381.1 C355.2 382.7 376.6 386.1 377.5 386.5 C379.2 387.2 431.2 386.2 437.7 385.3 Z M589.1 385.1 C599.7 382.1 609.0 376.3 609.0 372.7 C609.0 369.8 606.2 369.6 601.2 372.3 C593.0 376.7 575.3 380.5 570.1 379.0 C564.9 377.5 554.3 371.9 551.9 369.4 C550.7 368.1 548.9 367.0 547.9 367.0 C546.3 367.0 541.0 372.3 541.0 374.0 C541.0 376.7 558.6 384.7 568.0 386.3 C574.2 387.3 583.0 386.8 589.1 385.1 Z M621.8 381.8 C621.1 379.9 618.4 378.6 616.6 379.3 C614.5 380.1 614.5 383.7 616.8 384.3 C619.0 384.8 622.2 383.2 621.8 381.8 Z M506.4 374.4 C510.0 370.4 513.0 366.8 513.0 366.4 C513.0 365.3 502.5 356.0 501.3 356.0 C500.8 356.0 497.3 359.1 493.5 363.0 C486.6 370.0 486.6 370.0 489.1 372.7 C490.5 374.3 492.9 377.2 494.4 379.3 C496.2 381.8 497.6 382.8 498.5 382.3 C499.2 381.8 502.8 378.3 506.4 374.4 Z M831.4 378.0 C844.0 370.6 843.7 368.6 830.0 367.5 C825.3 367.1 818.6 366.2 815.0 365.4 C808.4 364.0 799.5 362.7 783.5 361.0 C778.5 360.4 770.2 359.3 765.0 358.4 C754.5 356.6 755.2 356.7 752.9 356.9 C751.2 357.0 747.0 365.4 747.0 368.8 C747.0 372.5 747.4 372.6 769.0 375.5 C774.8 376.2 783.3 377.5 788.0 378.4 C792.7 379.2 800.5 380.2 805.4 380.6 C810.3 381.0 815.5 381.6 816.9 382.0 C821.5 383.4 822.8 383.1 831.4 378.0 Z M635.7 379.5 C639.6 378.4 639.2 376.1 634.2 370.7 C631.6 367.8 628.1 363.6 626.5 361.2 C620.7 352.5 616.5 350.6 607.8 353.1 C605.3 353.7 604.0 354.7 604.0 355.8 C604.0 357.3 612.3 365.3 627.4 378.5 C629.0 379.9 631.0 380.8 631.9 380.6 C632.8 380.4 634.5 379.9 635.7 379.5 Z M689.1 374.3 C690.9 373.2 692.0 371.7 692.0 370.4 C692.0 368.6 691.2 368.0 687.9 367.5 C685.6 367.1 682.2 366.1 680.4 365.4 C676.0 363.5 671.0 363.6 671.0 365.4 C671.0 366.2 672.2 368.9 673.8 371.4 C676.4 375.8 676.7 375.9 681.3 376.0 C684.2 376.0 687.4 375.3 689.1 374.3 Z M413.8 371.1 C414.8 370.6 416.2 368.4 416.8 366.3 C418.2 361.4 431.4 339.3 434.6 336.2 C438.3 332.7 437.7 330.2 432.8 328.0 C430.4 326.9 428.0 326.0 427.5 326.0 C426.9 326.0 423.6 328.3 420.2 331.1 C407.2 341.6 395.0 346.9 378.3 349.5 C372.4 350.4 367.1 351.6 366.6 352.1 C365.2 353.4 369.7 354.8 379.5 356.1 C384.4 356.7 389.9 357.4 391.6 357.7 C394.3 358.1 395.6 357.3 403.5 350.0 C414.1 340.2 416.3 338.6 418.9 339.5 C423.5 340.9 422.4 344.6 415.8 350.5 C413.4 352.6 408.4 357.2 404.5 360.7 C396.9 367.9 397.6 367.7 386.0 364.5 C383.0 363.7 378.7 363.0 376.4 363.0 C374.1 363.0 369.5 362.3 366.3 361.5 C363.1 360.7 356.9 359.9 352.5 359.8 C344.5 359.5 344.5 359.5 344.2 362.3 C343.8 365.6 343.9 365.7 357.5 367.0 C363.6 367.6 372.3 368.5 377.0 369.1 C393.3 371.2 396.5 371.5 404.3 371.8 C408.6 371.9 412.9 371.6 413.8 371.1 Z M590.6 369.4 C599.1 366.3 600.6 365.0 599.0 362.1 C596.9 358.1 593.5 358.4 587.3 363.1 C584.2 365.5 581.2 367.8 580.6 368.1 C579.5 369.0 580.6 372.0 582.1 372.0 C582.7 372.0 586.5 370.8 590.6 369.4 Z M577.8 362.6 C593.1 349.6 605.6 345.0 625.8 344.8 C636.9 344.8 639.1 345.0 643.3 346.9 C648.8 349.5 651.0 349.1 651.0 345.7 C651.0 342.7 645.6 340.4 635.0 338.9 C612.3 335.6 587.5 344.4 567.7 362.6 C564.6 365.5 564.2 366.4 565.0 368.0 C565.6 369.1 566.8 370.0 567.6 370.0 C568.5 370.0 573.1 366.7 577.8 362.6 Z M927.7 366.5 C927.8 365.9 926.5 364.6 924.7 363.5 C923.0 362.5 919.7 360.5 917.6 359.3 C915.5 358.0 910.5 355.7 906.6 354.1 C902.7 352.5 896.6 349.9 893.0 348.2 C889.4 346.5 880.4 342.9 873.0 340.2 C856.2 334.0 844.1 328.3 837.0 322.9 C834.0 320.7 829.7 318.0 827.5 317.0 C825.3 316.1 822.4 314.1 821.1 312.6 C819.7 311.2 817.6 310.0 816.3 310.0 C811.1 310.0 789.7 323.0 790.2 325.9 C790.6 328.2 811.6 338.3 823.5 342.0 C829.0 343.8 834.6 345.6 836.0 346.1 C837.4 346.6 841.4 347.7 845.0 348.4 C848.6 349.2 855.1 350.7 859.5 351.8 C868.1 354.0 892.7 359.8 907.5 363.2 C912.5 364.3 918.1 365.8 920.0 366.6 C923.9 368.1 927.2 368.0 927.7 366.5 Z M644.0 362.2 C646.6 361.0 647.6 359.7 647.8 357.7 C648.1 355.4 647.6 354.7 644.8 353.6 C643.0 352.9 638.7 352.0 635.4 351.6 C627.4 350.7 626.7 352.2 632.1 358.9 C636.6 364.5 638.3 365.0 644.0 362.2 Z M695.0 362.5 C696.1 361.2 695.9 358.2 694.4 352.8 C693.9 351.0 685.2 348.0 680.6 348.0 C678.0 348.0 675.0 352.0 675.0 355.4 C675.0 357.4 678.9 360.0 682.0 360.0 C683.4 360.0 686.1 360.9 688.0 361.9 C692.3 364.3 693.4 364.4 695.0 362.5 Z M561.8 357.5 C564.4 355.0 570.2 350.4 574.8 347.4 C579.5 344.2 583.0 341.2 583.0 340.2 C583.0 338.0 577.0 332.0 574.8 332.0 C573.8 332.0 571.2 334.5 568.9 337.8 C566.5 340.9 562.0 346.7 558.8 350.6 C553.3 357.3 552.1 359.8 553.7 361.3 C555.1 362.8 557.2 361.8 561.8 357.5 Z M664.7 359.2 C667.5 355.2 670.3 348.4 670.2 345.8 C670.1 338.3 661.7 322.1 653.9 314.2 C648.1 308.2 643.7 305.7 633.5 302.2 C621.3 298.1 600.7 299.1 594.8 304.1 C592.5 306.0 592.5 306.0 596.3 309.6 C599.1 312.2 600.8 313.0 602.3 312.7 C608.0 311.3 619.0 310.9 624.4 311.9 C633.6 313.6 640.1 317.2 646.3 324.0 C656.2 334.9 661.7 349.3 657.8 353.8 C654.2 357.9 655.3 362.0 660.0 362.0 C662.0 362.0 663.4 361.2 664.7 359.2 Z M521.6 357.4 C523.5 355.9 525.0 354.0 525.0 353.1 C525.0 352.2 520.7 347.7 515.5 343.1 C507.0 335.7 497.8 324.4 491.3 313.5 C483.8 300.9 481.2 296.1 480.4 294.0 C479.9 292.6 477.4 287.7 474.8 283.0 C472.3 278.3 468.5 270.3 466.5 265.1 C461.3 251.7 457.2 246.9 453.5 250.0 C451.2 251.9 451.7 254.3 456.1 263.8 C464.2 281.2 466.6 286.9 467.5 291.1 C468.3 294.8 469.2 296.7 475.9 308.0 C482.6 319.5 489.4 329.5 496.4 338.5 C500.1 343.3 516.7 360.0 517.7 360.0 C517.9 360.0 519.7 358.8 521.6 357.4 Z M983.1 358.3 C986.4 354.4 982.1 335.8 975.3 324.1 C971.0 316.8 960.1 305.0 957.7 305.0 C956.8 305.0 955.6 305.9 955.0 307.1 C954.0 308.9 954.4 309.7 958.2 313.3 C967.0 321.8 971.4 330.4 970.8 338.2 C970.4 343.7 968.3 344.2 962.9 339.9 C959.1 336.9 958.6 336.8 955.2 337.9 C953.2 338.5 950.2 339.1 948.6 339.2 C947.0 339.4 945.2 340.3 944.6 341.2 C943.7 342.6 944.3 343.8 948.0 347.6 C955.1 354.8 966.4 359.8 976.1 359.9 C980.2 360.0 982.1 359.5 983.1 358.3 Z M782.0 351.2 C782.0 349.6 779.4 347.1 775.3 344.6 C773.9 343.8 770.0 347.3 770.0 349.5 C770.0 351.0 774.7 352.8 779.2 352.9 C781.3 353.0 782.0 352.5 782.0 351.2 Z M766.4 341.0 C774.4 327.4 790.1 313.2 804.3 306.6 C814.2 302.0 830.7 297.0 836.0 297.0 C840.5 297.0 842.9 294.8 841.0 292.5 C836.8 287.5 808.5 295.2 788.5 306.8 C775.8 314.2 768.0 322.2 761.9 334.3 C760.7 336.6 758.7 339.8 757.4 341.3 C754.7 344.5 754.4 347.0 756.2 348.8 C758.8 351.4 761.3 349.5 766.4 341.0 Z M533.4 341.7 C535.1 339.8 539.6 334.9 543.3 330.7 C547.1 326.5 552.6 321.1 555.6 318.8 C558.6 316.4 561.0 314.0 561.0 313.3 C561.0 312.6 560.1 311.1 558.9 309.9 C557.0 308.0 556.7 308.0 554.7 309.5 C553.5 310.3 550.0 312.7 547.0 314.7 C538.7 320.3 523.0 335.8 523.0 338.6 C523.0 340.7 527.1 345.0 529.2 345.0 C529.8 345.0 531.6 343.5 533.4 341.7 Z M99.8 342.2 C112.5 337.2 124.9 334.7 145.5 333.1 C166.3 331.4 171.1 327.9 160.0 322.6 C154.3 319.9 153.9 319.8 151.5 321.4 C148.2 323.6 143.4 323.4 139.4 320.9 C132.7 316.8 133.9 311.6 143.3 303.8 C150.1 298.3 160.7 292.0 163.5 292.0 C165.5 292.0 170.0 287.6 170.0 285.7 C170.0 284.9 169.2 283.2 168.2 281.9 C166.3 279.7 166.3 279.7 161.8 281.8 C159.4 283.0 157.0 284.0 156.6 284.0 C155.0 284.0 141.7 292.3 133.9 298.2 C122.0 307.1 98.2 332.2 93.9 340.3 C93.0 341.9 93.4 344.0 94.6 344.0 C94.9 344.0 97.2 343.2 99.8 342.2 Z M225.3 342.0 C226.1 341.3 224.7 340.0 212.5 330.4 C207.4 326.5 205.0 325.1 203.5 325.6 C194.8 328.2 190.8 329.0 185.9 329.0 C181.2 329.0 179.7 329.5 176.6 331.9 C174.5 333.6 171.3 335.4 169.4 336.0 C167.0 336.8 166.0 337.7 166.2 338.8 C166.5 340.2 169.3 340.8 183.5 342.1 C200.0 343.6 223.6 343.6 225.3 342.0 Z M272.8 342.2 C273.0 341.5 272.1 341.0 270.6 341.0 C267.9 341.0 267.1 342.5 269.2 343.3 C271.0 344.0 272.3 343.6 272.8 342.2 Z M691.8 343.1 C693.5 342.1 692.2 332.6 688.6 320.0 C684.8 306.3 680.1 288.7 679.5 285.8 C678.4 280.0 677.5 279.8 656.6 280.2 C637.2 280.7 630.9 281.5 609.0 286.6 C587.1 291.7 585.2 292.5 586.3 295.4 C587.1 297.5 589.6 297.4 595.0 294.9 C600.9 292.2 615.7 290.7 624.2 291.9 C631.6 292.9 643.6 297.7 650.5 302.2 C659.0 307.8 668.5 321.1 676.0 337.9 C676.7 339.6 677.8 340.2 684.0 342.2 C689.5 344.1 690.2 344.2 691.8 343.1 Z M257.9 342.1 C258.6 341.6 259.8 338.8 260.5 335.9 C261.9 330.3 264.2 323.5 266.9 316.5 C270.1 308.0 280.6 290.9 286.3 284.5 C292.1 278.1 292.2 277.9 290.5 276.0 C287.4 272.6 284.6 273.5 278.7 280.0 C272.8 286.3 264.0 298.1 264.0 299.7 C264.0 300.1 263.2 301.7 262.2 303.0 C260.4 305.6 259.8 306.9 255.6 318.5 C253.2 324.8 250.0 336.7 250.0 339.0 C250.0 341.9 255.0 343.9 257.9 342.1 Z M243.6 336.6 C244.4 333.2 243.7 332.4 237.2 328.8 C227.4 323.3 210.6 304.1 203.5 290.4 C201.3 286.1 199.1 282.5 198.5 282.3 C197.9 282.1 196.0 282.9 194.2 284.0 C191.5 285.7 191.0 286.5 191.0 289.9 C191.0 293.0 191.7 294.5 194.9 297.8 C197.1 300.0 200.0 302.6 201.4 303.5 C202.8 304.5 204.0 305.7 204.0 306.4 C204.0 310.6 216.0 324.6 224.0 329.8 C232.6 335.4 239.3 339.0 241.2 339.0 C242.2 339.0 243.2 338.0 243.6 336.6 Z M597.7 335.4 C600.0 334.5 602.1 333.2 602.4 332.5 C603.4 329.8 579.7 298.0 576.7 298.0 C572.9 298.0 565.0 303.1 565.0 305.6 C565.0 306.3 567.4 309.7 570.3 313.2 C573.2 316.7 576.7 321.1 578.0 323.0 C581.0 327.4 590.8 337.0 592.3 337.0 C592.9 337.0 595.3 336.3 597.7 335.4 Z M952.3 330.4 C961.0 328.0 961.8 327.1 958.5 323.2 C955.5 319.6 954.0 319.3 950.7 321.5 C946.9 324.0 924.6 325.6 914.2 324.1 C909.4 323.4 904.5 322.4 903.2 321.9 C900.2 320.7 897.0 320.7 897.0 322.0 C897.0 324.6 911.6 330.7 921.0 332.1 C929.0 333.2 945.1 332.3 952.3 330.4 Z M523.8 323.6 C534.4 312.9 549.7 301.5 564.6 293.5 C578.0 286.3 595.1 280.8 619.5 275.8 C632.9 273.1 637.0 272.8 657.5 272.3 C670.1 272.1 681.0 272.3 681.5 272.7 C682.1 273.1 684.5 276.6 686.9 280.3 C697.7 297.1 708.4 307.4 722.5 314.9 C724.7 316.1 726.8 317.0 727.1 317.0 C727.5 317.0 730.6 318.6 734.0 320.5 C737.4 322.4 741.4 324.3 742.9 324.7 C744.3 325.0 746.4 325.9 747.5 326.6 C748.6 327.4 750.7 328.0 752.2 328.0 C756.1 328.0 755.8 325.3 751.8 323.4 C747.0 321.2 735.0 314.7 731.5 312.5 C719.7 304.8 702.4 288.0 692.0 273.9 C688.6 269.3 684.8 265.0 683.7 264.3 C680.5 262.6 652.7 263.5 632.5 266.0 C610.9 268.6 592.2 272.9 578.5 278.2 C559.3 285.8 539.8 297.7 526.9 309.7 C523.9 312.4 518.9 317.1 515.8 320.0 C512.6 322.9 510.0 325.8 510.0 326.4 C510.0 328.2 513.0 332.0 514.4 332.0 C515.0 332.0 519.3 328.2 523.8 323.6 Z M642.5 331.0 C643.4 329.6 638.4 325.3 632.5 322.2 C624.3 318.0 605.0 317.7 605.0 321.8 C605.0 322.7 606.4 325.1 608.0 327.0 C610.8 330.5 610.8 330.5 623.2 331.1 C630.0 331.4 636.9 331.7 638.7 331.8 C640.4 331.9 642.2 331.6 642.5 331.0 Z M248.8 317.0 C252.7 306.3 252.7 306.7 247.5 302.4 C243.0 298.7 230.5 282.3 228.0 276.8 C227.3 275.3 226.1 273.9 225.3 273.5 C223.1 272.7 207.9 278.0 207.2 279.8 C206.1 282.8 217.7 300.7 226.7 309.9 C228.0 311.2 229.0 312.6 229.0 313.1 C229.0 314.7 242.5 324.0 244.5 323.8 C246.0 323.6 247.1 321.8 248.8 317.0 Z M192.5 320.7 C197.0 319.7 198.6 319.0 198.9 317.5 C199.5 314.4 196.2 313.0 188.6 313.0 C177.6 313.0 173.4 311.4 163.5 303.5 C159.8 300.6 159.8 300.6 156.2 302.5 C154.2 303.6 152.5 305.0 152.2 305.7 C151.7 307.4 159.2 314.6 164.3 317.1 C168.1 319.1 179.5 321.8 184.5 321.9 C185.6 321.9 189.2 321.4 192.5 320.7 Z M888.7 318.8 C890.0 317.1 888.0 304.9 886.1 302.6 C883.5 299.5 875.0 301.8 876.3 305.4 C876.5 306.0 877.5 309.1 878.4 312.2 C879.3 315.3 880.8 318.4 881.8 318.9 C884.2 320.3 887.6 320.2 888.7 318.8 Z M518.2 307.4 C528.3 297.4 541.0 287.5 549.5 282.8 C558.6 277.8 578.6 268.7 583.7 267.4 C604.6 261.8 621.9 258.7 648.0 255.9 C660.1 254.6 677.9 254.7 683.0 256.0 C687.1 257.1 688.5 258.4 699.2 271.5 C712.7 288.0 725.7 299.8 737.5 306.5 C740.2 308.1 743.2 309.8 744.0 310.5 C745.8 311.8 755.3 315.6 759.1 316.5 C761.4 317.1 762.8 316.2 768.5 311.1 C772.2 307.8 776.2 304.5 777.5 303.8 C778.7 303.1 783.3 300.5 787.6 298.0 C791.9 295.5 796.8 293.0 798.5 292.4 C802.8 290.9 802.7 288.5 798.3 283.2 C796.1 280.6 793.0 276.4 791.3 273.9 C781.3 259.4 766.3 250.1 745.5 245.7 C723.5 241.0 701.0 239.1 662.5 238.6 C649.2 238.4 609.6 239.9 601.0 241.0 C596.9 241.4 588.8 242.3 583.0 243.0 C572.9 244.1 563.8 245.7 544.5 250.1 C509.3 258.0 482.4 265.3 479.8 267.7 C476.8 270.4 476.3 269.2 490.2 296.0 C496.9 308.8 503.9 319.2 505.6 318.8 C506.4 318.6 512.0 313.5 518.2 307.4 Z M149.1 315.4 C150.2 314.0 150.1 313.5 148.1 311.9 C146.4 310.5 145.4 310.3 143.9 311.0 C141.5 312.3 141.5 314.6 143.8 315.9 C146.2 317.4 147.6 317.2 149.1 315.4 Z M927.1 315.2 C927.6 307.9 920.2 303.0 908.7 303.0 C906.4 303.0 903.0 302.6 901.1 302.0 C896.2 300.6 893.9 302.1 894.7 306.3 C895.7 311.6 896.6 312.6 902.7 314.3 C908.6 316.0 912.4 316.5 921.8 316.8 C926.1 317.0 927.0 316.7 927.1 315.2 Z M870.8 310.6 C871.1 308.4 870.0 306.7 865.7 302.1 C858.5 294.6 856.0 289.6 856.7 284.3 C857.2 280.7 856.9 280.0 854.7 278.6 C853.3 277.6 850.6 276.7 848.7 276.3 C845.8 275.9 845.1 276.1 844.6 277.8 C843.7 280.4 847.7 295.0 850.0 297.5 C851.0 298.6 852.8 301.5 854.0 303.8 C855.8 307.4 857.2 308.7 862.3 311.0 C865.7 312.6 869.0 313.8 869.5 313.6 C870.0 313.5 870.6 312.1 870.8 310.6 Z M312.5 308.1 C324.4 306.5 345.1 302.3 353.0 300.0 C357.1 298.8 363.6 297.0 367.5 296.0 C377.7 293.2 395.0 287.5 406.0 283.4 C411.2 281.4 418.0 278.8 421.0 277.8 C424.0 276.7 427.9 275.2 429.5 274.4 C434.1 272.3 441.2 269.9 444.3 269.3 C448.9 268.4 449.4 265.9 445.8 261.1 C443.6 258.1 442.3 257.1 441.1 257.6 C440.2 258.0 437.7 258.9 435.5 259.7 C433.3 260.4 430.6 261.5 429.5 261.9 C428.4 262.4 420.8 265.1 412.5 267.9 C390.6 275.3 376.6 280.3 366.7 284.4 C352.6 290.2 329.7 297.5 320.0 299.5 C318.1 299.9 314.6 300.8 312.2 301.6 C306.0 303.6 296.4 303.4 291.1 300.9 C286.7 298.9 286.7 298.9 283.3 302.2 C279.8 305.6 279.3 306.9 281.1 308.7 C282.4 310.0 301.9 309.6 312.5 308.1 Z M183.1 301.9 C183.8 300.5 184.1 295.6 183.8 288.1 C183.4 275.4 183.8 276.5 171.4 253.0 C169.5 249.4 167.5 244.6 167.0 242.2 C164.5 232.2 157.7 240.2 150.5 261.5 C147.3 271.2 146.5 277.4 148.4 278.9 C151.4 281.4 156.0 276.8 156.0 271.5 C156.0 267.7 160.1 264.0 164.4 264.0 C170.9 264.0 175.3 271.2 177.1 284.9 C178.0 291.6 178.1 294.9 177.2 297.6 C176.6 299.6 176.4 301.8 176.7 302.6 C177.5 304.8 181.8 304.3 183.1 301.9 Z M972.7 300.6 C977.4 295.3 980.4 288.5 979.0 286.1 C977.0 282.2 973.1 283.7 965.2 291.3 C962.4 294.1 960.0 296.9 960.0 297.5 C960.0 299.0 966.2 303.9 968.1 304.0 C969.1 304.0 971.1 302.5 972.7 300.6 Z M258.4 294.5 C261.2 289.9 261.2 289.9 253.3 282.6 C249.0 278.5 244.8 274.0 244.1 272.6 C243.1 270.9 241.8 270.0 240.3 270.0 C237.1 270.0 234.0 271.7 234.0 273.5 C234.0 275.4 244.4 290.7 248.8 295.2 C250.8 297.3 253.1 299.0 254.0 299.0 C254.8 299.0 256.8 297.0 258.4 294.5 Z M925.0 296.4 C928.7 292.0 917.1 289.4 887.5 288.1 C864.6 287.1 860.9 287.9 866.1 293.1 C867.8 294.8 868.8 295.0 872.8 294.3 C883.6 292.5 904.9 293.8 916.5 297.0 C921.2 298.3 923.7 298.1 925.0 296.4 Z M307.4 295.4 C308.3 295.1 309.0 294.0 309.0 293.0 C309.0 291.2 301.7 283.0 300.0 283.0 C299.5 283.0 297.5 284.4 295.5 286.1 C287.6 293.1 288.6 296.0 299.0 296.0 C302.8 296.0 306.5 295.7 307.4 295.4 Z M326.6 289.5 C328.0 286.0 308.7 266.3 298.9 261.1 C288.3 255.4 283.7 253.2 279.0 251.6 C274.7 250.1 274.4 250.1 272.8 252.1 C268.7 257.0 272.1 261.6 281.5 264.0 C292.2 266.8 301.9 272.9 312.2 283.5 C318.4 289.8 320.0 291.0 322.8 291.0 C324.8 291.0 326.3 290.4 326.6 289.5 Z M814.5 286.8 C815.9 286.2 817.0 285.0 817.0 284.2 C817.0 283.4 814.5 280.0 811.4 276.7 C808.3 273.3 805.2 269.5 804.6 268.0 C802.3 262.8 795.4 253.3 790.1 248.2 C778.6 237.1 758.3 230.7 724.0 227.4 C672.4 222.6 638.5 220.8 620.0 222.2 C593.3 224.0 555.6 228.5 549.8 230.4 C547.4 231.2 538.5 233.3 530.0 235.0 C502.9 240.6 501.6 240.9 495.5 242.9 C481.8 247.5 475.0 250.0 473.0 251.0 C470.6 252.3 470.4 255.7 472.7 258.2 C474.6 260.4 477.1 260.5 480.8 258.6 C484.1 256.9 496.6 253.5 520.0 247.9 C524.1 247.0 533.1 244.8 540.0 243.2 C555.6 239.4 573.3 236.2 582.5 235.5 C586.4 235.3 592.6 234.6 596.5 234.0 C628.3 229.4 690.3 229.7 724.5 234.6 C749.0 238.0 758.7 240.7 769.8 246.7 C783.3 254.1 786.1 256.7 798.0 272.5 C806.4 283.7 810.0 287.7 811.7 288.0 C811.8 288.0 813.1 287.5 814.5 286.8 Z M346.0 284.0 C349.0 282.8 354.1 281.0 357.3 279.9 C364.7 277.5 367.0 276.2 367.0 274.6 C367.0 272.5 357.5 271.8 353.3 273.5 C348.6 275.5 344.6 275.4 338.7 273.3 C333.7 271.5 330.8 268.5 329.7 263.9 C329.3 262.4 328.4 261.0 327.5 260.7 C326.0 260.1 320.0 264.4 320.0 266.2 C320.0 266.7 322.5 270.0 325.6 273.3 C328.7 276.7 332.1 281.2 333.2 283.4 C335.4 287.8 336.5 287.8 346.0 284.0 Z M931.9 281.2 C934.5 276.2 944.2 266.7 951.0 262.7 C957.4 258.8 958.1 256.6 953.0 256.2 C951.1 256.1 944.1 255.2 937.5 254.4 C930.9 253.5 922.5 252.5 918.8 252.3 C910.6 251.7 910.1 252.7 915.9 258.4 C921.4 263.7 924.2 270.0 924.8 278.1 C925.2 284.5 925.4 285.0 927.6 285.0 C929.3 285.0 930.5 284.0 931.9 281.2 Z M836.6 281.9 C837.4 281.3 838.0 279.5 838.0 277.9 C838.0 274.4 836.1 273.8 827.0 274.2 C818.7 274.6 818.0 276.5 824.2 281.0 C827.6 283.5 829.2 284.1 831.8 283.6 C833.7 283.3 835.8 282.6 836.6 281.9 Z M270.7 277.9 C276.6 271.7 277.1 268.5 272.1 268.5 C268.5 268.5 268.5 268.5 265.0 276.2 C263.0 280.7 263.0 283.0 265.0 283.0 C265.5 283.0 268.0 280.7 270.7 277.9 Z M899.8 279.8 C901.6 278.0 901.3 277.2 897.2 274.6 C895.0 273.1 891.7 272.0 889.0 271.8 C885.1 271.5 884.5 271.8 884.2 273.5 C883.8 276.5 887.9 279.8 892.5 280.3 C894.7 280.5 897.0 280.7 897.5 280.8 C898.1 280.9 899.1 280.5 899.8 279.8 Z M879.0 278.5 C879.0 276.8 870.4 269.7 864.9 267.0 C851.9 260.3 834.0 256.4 820.5 257.2 C812.1 257.8 808.0 259.1 808.0 261.3 C808.1 262.0 809.4 264.0 811.0 265.9 C814.0 269.4 814.0 269.4 817.5 267.7 C822.3 265.4 839.0 265.4 846.8 267.6 C854.7 269.9 861.0 273.2 864.3 276.9 C866.8 279.7 867.6 280.0 873.0 280.0 C877.6 280.0 879.0 279.7 879.0 278.5 Z M918.0 278.0 C919.2 275.7 918.0 269.8 915.5 266.4 C913.5 263.5 903.6 256.9 898.0 254.8 C891.8 252.3 873.6 252.3 868.5 254.7 C866.6 255.6 865.0 256.9 865.0 257.6 C865.0 258.2 867.2 260.2 869.8 261.9 C874.4 264.8 874.8 264.9 883.1 264.3 C889.9 263.9 892.2 264.1 894.7 265.4 C896.5 266.3 898.7 267.0 899.8 267.0 C902.7 267.0 905.1 269.3 905.4 272.4 C906.1 278.2 915.6 282.5 918.0 278.0 Z M197.8 275.1 C205.4 271.3 223.3 265.8 233.7 264.1 C244.4 262.4 244.5 262.4 246.5 258.8 C248.1 255.8 248.2 254.9 247.1 253.6 C246.4 252.7 244.4 252.0 242.8 252.0 C238.9 252.0 220.5 255.8 215.5 257.6 C213.3 258.4 209.2 259.6 206.5 260.4 C198.2 262.7 190.6 265.9 189.2 267.7 C187.8 269.6 188.5 272.6 190.8 275.2 C192.7 277.4 193.2 277.4 197.8 275.1 Z M257.6 272.8 C258.6 271.0 260.4 265.2 261.8 260.0 C264.0 251.6 264.4 247.9 264.7 228.4 C265.3 199.2 263.7 190.7 258.1 192.5 C255.1 193.4 254.6 196.8 256.4 203.6 C257.3 206.8 258.3 215.3 258.6 222.5 C259.2 233.9 258.9 237.1 256.7 248.6 C255.3 255.8 253.4 263.5 252.5 265.6 C250.9 269.6 251.2 273.9 253.3 275.2 C255.3 276.5 255.9 276.1 257.6 272.8 Z M167.0 274.1 C167.0 273.5 166.5 272.8 166.0 272.5 C164.5 271.6 161.7 272.8 162.5 274.0 C163.3 275.3 167.0 275.3 167.0 274.1 Z M384.7 265.2 C389.1 262.0 391.9 251.5 390.1 245.8 C389.6 244.0 388.6 240.0 388.0 236.9 C386.4 228.6 385.5 227.7 377.8 227.5 C370.3 227.2 367.9 226.1 358.2 218.5 C351.8 213.5 348.4 209.5 340.3 197.4 C337.5 193.3 332.9 189.8 326.0 186.6 C321.2 184.3 319.2 184.0 309.9 184.0 C298.4 184.0 298.0 183.8 290.2 176.3 C283.9 170.2 274.4 169.7 261.1 174.7 C254.0 177.4 247.7 181.4 242.1 187.0 C226.6 202.4 222.5 212.1 223.3 231.6 C223.8 244.6 224.7 247.0 229.3 247.0 C234.4 247.0 236.4 245.0 235.5 240.9 C235.1 239.0 234.6 233.6 234.3 228.9 C233.0 204.2 247.9 183.5 268.7 181.4 C281.2 180.1 295.2 187.5 301.7 198.8 C303.1 201.4 304.9 204.2 305.5 205.0 C306.7 206.5 312.8 217.5 315.8 223.5 C320.7 233.4 325.2 235.6 334.8 232.5 C340.3 230.8 340.3 230.8 339.7 225.0 C339.1 218.4 335.0 208.3 332.5 207.4 C331.6 207.0 329.2 207.3 327.1 208.0 C323.9 209.0 322.8 209.0 320.2 207.6 C315.1 205.0 314.5 197.4 319.2 195.3 C322.8 193.6 336.1 200.9 340.0 206.5 C346.3 215.7 347.3 219.9 347.7 238.5 C348.1 258.4 348.2 258.8 351.4 262.3 C353.4 264.5 354.8 265.0 358.3 265.0 C363.2 265.0 364.0 264.1 364.0 258.5 C364.0 254.4 369.4 246.0 373.2 244.2 C378.7 241.6 382.5 246.9 377.9 250.8 C374.6 253.6 372.2 258.2 371.8 262.4 C371.5 265.8 371.9 266.6 374.0 267.7 C377.1 269.2 380.5 268.4 384.7 265.2 Z M1003.8 260.7 C1004.1 257.5 1003.8 257.0 1001.6 256.4 C996.8 255.2 995.6 258.0 999.1 262.4 C1001.8 265.9 1003.4 265.3 1003.8 260.7 Z M406.5 262.1 C409.2 261.0 414.8 258.9 418.8 257.4 C429.4 253.4 428.4 252.4 413.0 251.7 C408.3 251.4 403.5 250.9 402.3 250.5 C399.6 249.6 398.5 251.6 397.5 258.8 C396.8 263.8 396.9 264.0 399.1 264.0 C400.4 264.0 403.7 263.1 406.5 262.1 Z M189.7 258.8 C190.1 258.1 190.3 248.9 190.1 238.5 C189.9 222.2 190.1 218.1 191.9 209.5 C196.3 188.5 201.2 179.8 218.2 163.4 C233.7 148.4 244.0 141.8 261.0 135.9 C269.2 133.1 287.7 130.1 293.2 130.7 C297.2 131.2 298.0 131.0 298.0 129.7 C298.0 128.8 296.3 127.1 294.1 126.1 C290.6 124.2 289.4 124.2 280.9 125.1 C251.7 128.4 250.5 128.7 236.4 136.4 C204.3 154.0 187.3 182.5 183.0 226.2 C181.9 237.5 182.3 256.9 183.7 259.2 C184.4 260.5 188.8 260.1 189.7 258.8 Z M319.1 256.0 C321.9 253.8 324.8 252.0 325.6 252.0 C326.4 252.0 328.7 251.1 330.7 250.0 C332.8 248.9 335.3 248.0 336.2 248.0 C339.0 248.0 341.4 243.6 340.0 241.1 C337.7 236.8 327.5 240.8 315.2 250.8 C310.5 254.6 308.6 257.5 309.5 259.0 C310.7 261.0 314.2 259.9 319.1 256.0 Z M208.5 252.5 C211.2 251.8 214.3 250.9 215.3 250.5 C217.6 249.6 218.4 246.1 217.1 242.6 C215.2 237.8 214.6 223.7 216.0 216.4 C218.2 204.1 222.7 196.4 234.4 184.6 C242.7 176.1 248.9 172.0 259.6 167.9 C269.7 164.0 277.5 163.2 281.9 165.5 C284.0 166.5 285.6 166.8 286.2 166.2 C286.7 165.7 287.5 162.2 288.1 158.4 C288.7 154.1 290.1 149.6 292.0 146.3 C293.6 143.4 294.7 140.4 294.4 139.5 C293.7 137.7 292.2 137.7 281.0 139.1 C253.5 142.5 224.7 161.7 206.1 188.9 C200.3 197.5 195.7 222.8 196.7 240.8 C197.3 252.6 198.5 255.8 201.9 254.5 C202.8 254.1 205.8 253.3 208.5 252.5 Z M857.3 252.4 C861.8 250.9 864.7 248.0 863.6 246.1 C863.3 245.7 859.3 245.0 854.8 244.6 C850.2 244.3 843.4 243.3 839.5 242.4 C835.6 241.5 828.9 240.5 824.5 240.1 C820.1 239.7 814.0 238.6 811.0 237.7 C797.5 233.8 782.0 231.2 782.0 232.8 C782.0 233.4 784.8 235.9 788.2 238.4 C791.7 240.8 796.2 245.0 798.4 247.5 C802.7 252.7 802.4 252.7 817.1 250.1 C821.8 249.2 825.8 249.2 831.1 249.9 C841.4 251.3 851.4 253.0 851.9 253.6 C852.5 254.1 852.0 254.2 857.3 252.4 Z M308.2 248.8 C318.9 239.7 319.3 239.1 317.9 237.1 C317.1 236.1 314.8 233.1 312.8 230.4 C310.8 227.7 306.6 220.7 303.5 214.9 C296.1 200.7 290.8 193.6 285.6 191.1 C279.8 188.4 273.0 187.5 270.7 189.2 C269.1 190.4 269.0 190.9 270.3 194.5 C272.0 199.3 273.0 211.2 273.2 228.0 C273.2 234.9 273.7 241.0 274.2 241.7 C274.7 242.4 277.5 243.6 280.3 244.5 C283.2 245.3 288.6 247.6 292.5 249.5 C296.4 251.3 300.3 252.9 301.3 252.9 C302.4 253.0 305.4 251.1 308.2 248.8 Z M249.1 243.3 C250.8 241.3 251.1 207.7 249.4 206.0 C247.6 204.2 245.0 207.2 243.3 213.5 C241.0 221.6 241.1 239.0 243.4 242.5 C245.3 245.4 247.2 245.7 249.1 243.3 Z M453.5 241.2 C469.0 235.4 470.0 234.9 470.0 232.5 C470.0 231.2 469.3 229.7 468.5 229.0 C466.4 227.3 459.0 227.5 455.4 229.3 C453.8 230.1 449.9 231.3 446.7 231.9 C443.6 232.5 440.2 233.4 439.2 233.9 C436.5 235.3 410.4 238.2 403.2 237.8 C396.3 237.5 395.0 238.3 397.3 241.5 C399.4 244.3 405.6 244.9 426.5 244.5 C444.7 244.2 445.8 244.0 453.5 241.2 Z M493.4 235.9 C501.8 233.8 502.5 232.3 498.6 225.5 C496.2 221.4 492.9 218.8 483.9 213.7 C479.1 211.0 473.6 205.4 471.8 201.4 C469.4 196.1 465.6 197.6 461.7 205.2 C457.8 212.9 458.0 213.8 464.6 218.5 C469.9 222.3 477.5 229.4 479.8 232.6 C482.6 236.7 484.9 238.2 487.5 237.4 C488.6 237.1 491.2 236.4 493.4 235.9 Z M419.4 229.0 C436.6 226.9 439.0 225.9 439.0 221.0 C439.0 217.6 437.1 216.0 432.2 215.0 C424.6 213.5 418.3 211.7 411.8 209.2 C404.0 206.3 403.7 206.4 399.2 214.3 C397.6 217.2 395.3 220.4 394.1 221.4 C393.0 222.5 392.0 224.4 392.0 225.7 C392.0 226.9 392.1 228.0 392.2 228.0 C392.4 228.0 394.3 228.7 396.5 229.5 C401.6 231.3 400.9 231.3 419.4 229.0 Z M518.3 229.6 C521.7 228.8 527.4 227.7 531.0 227.1 C534.6 226.6 541.7 225.0 546.8 223.6 C556.0 221.1 566.5 219.5 592.5 216.4 C607.0 214.7 651.5 214.0 669.5 215.3 C676.2 215.7 681.1 215.6 682.0 215.1 C684.0 213.8 683.0 213.0 678.4 212.4 C676.2 212.1 671.4 211.1 667.5 210.0 C663.6 209.0 656.9 207.4 652.5 206.5 C633.8 202.6 614.0 198.0 608.0 196.2 C599.5 193.7 570.7 186.0 555.0 182.0 C550.3 180.9 543.5 179.0 539.9 178.0 C536.3 176.9 532.2 176.0 530.8 176.0 C528.6 176.0 515.4 172.3 506.5 169.1 C504.9 168.5 500.1 167.1 496.0 165.9 C486.2 163.1 473.7 158.7 467.5 156.0 C464.8 154.8 459.8 152.9 456.5 151.9 C446.8 148.9 446.0 149.4 451.3 155.2 C455.5 159.8 459.2 165.5 461.0 170.0 C463.0 175.3 464.6 176.2 468.4 174.3 C479.4 168.6 500.4 177.0 504.4 188.7 C506.5 194.7 506.4 199.6 504.1 209.4 C502.0 218.0 502.2 219.0 506.6 226.6 C509.5 231.5 509.6 231.6 518.3 229.6 Z M450.7 222.8 C451.3 222.1 452.0 218.2 452.4 214.2 C453.1 205.6 456.0 199.3 461.9 193.2 C468.9 186.0 476.1 184.2 482.0 188.2 C488.0 192.3 489.5 195.3 489.5 203.1 C489.5 210.5 490.5 212.3 494.5 211.8 C497.1 211.4 499.9 203.4 500.0 195.9 C500.0 191.0 499.7 190.1 496.8 187.3 C485.6 176.7 471.5 177.6 457.9 189.8 C452.5 194.6 448.5 201.5 446.4 209.5 C444.9 214.8 444.6 222.2 445.7 223.3 C446.8 224.4 449.7 224.1 450.7 222.8 Z M387.2 216.7 C390.8 214.0 391.8 212.4 393.2 207.5 C397.1 193.5 393.8 175.3 384.7 159.8 C383.5 157.8 380.8 153.3 378.8 149.7 C373.7 141.0 360.4 127.5 350.0 120.8 C342.5 115.9 327.2 108.0 325.2 108.0 C324.8 108.0 323.3 107.4 321.9 106.6 C317.4 104.3 305.8 100.8 299.2 99.9 C295.8 99.4 291.9 98.4 290.7 97.6 C289.5 96.8 287.0 95.9 285.1 95.5 C280.0 94.4 256.0 83.3 247.4 77.9 C245.6 76.8 241.9 75.7 239.1 75.3 C234.4 74.8 233.9 74.9 231.2 77.9 C228.9 80.5 227.9 83.0 226.5 90.0 C225.6 94.9 225.0 99.3 225.3 99.7 C225.6 100.1 226.3 104.7 226.9 109.8 C228.2 120.2 231.3 128.0 234.2 128.0 C237.1 128.0 237.4 125.5 235.1 118.0 C232.4 109.3 232.2 102.9 234.4 99.5 C236.4 96.5 241.7 93.0 244.3 93.0 C246.4 93.0 253.9 96.9 259.5 101.0 C264.2 104.4 275.8 110.3 288.7 115.9 C293.7 118.0 300.5 121.4 303.7 123.3 C306.9 125.1 310.8 127.0 312.3 127.4 C316.1 128.3 315.8 131.3 311.6 133.9 C302.7 139.5 296.3 150.2 295.4 161.2 C294.3 174.8 297.0 177.3 312.8 177.4 C322.9 177.5 323.9 177.7 330.2 180.9 C338.3 185.0 345.6 191.9 352.8 202.3 C356.8 208.0 360.0 211.3 365.2 215.0 C371.6 219.5 372.9 220.0 377.6 220.0 C382.0 220.0 383.5 219.5 387.2 216.7 Z M365.8 204.0 C359.9 198.9 357.5 192.1 356.1 176.5 C354.9 163.6 352.5 156.4 347.6 150.9 C343.7 146.7 343.6 146.2 344.9 144.1 C346.9 141.0 350.8 143.8 356.4 152.4 C361.8 160.6 365.7 164.4 374.9 170.5 C385.7 177.7 389.7 184.8 388.7 195.0 C388.2 199.8 387.6 201.0 384.1 204.2 C380.6 207.5 379.4 208.0 375.3 208.0 C371.1 208.0 369.9 207.4 365.8 204.0 Z M439.9 206.2 C440.4 205.3 441.1 202.8 441.5 200.8 C442.1 197.4 441.9 197.0 438.4 194.6 C436.3 193.2 433.9 192.0 433.2 192.0 C432.4 192.0 426.7 189.5 420.5 186.5 C409.2 181.0 405.1 179.9 403.2 182.2 C401.1 184.9 403.6 187.6 409.8 189.4 C413.1 190.3 416.9 191.9 418.2 193.0 C420.4 194.9 420.4 195.1 418.8 196.3 C417.3 197.5 416.1 197.5 411.4 196.3 C405.3 194.7 403.0 195.1 403.0 197.5 C403.0 199.5 408.0 201.7 420.5 205.1 C432.7 208.4 438.5 208.7 439.9 206.2 Z M483.8 200.1 C484.2 197.7 480.6 193.0 478.4 193.0 C475.3 193.0 476.0 196.9 479.8 201.3 C481.8 203.5 483.4 203.0 483.8 200.1 Z M371.0 195.2 C371.0 189.9 373.3 187.0 377.6 187.0 C379.9 187.0 381.0 186.5 381.0 185.5 C381.0 183.7 374.2 176.0 372.7 176.0 C372.1 176.0 370.7 175.1 369.5 174.0 C368.4 172.9 366.3 171.9 365.0 171.8 C362.2 171.5 362.3 170.5 363.7 185.2 C364.4 192.3 365.0 194.4 366.9 196.4 C370.2 199.9 371.0 199.7 371.0 195.2 Z M444.0 188.2 C444.0 187.7 441.0 184.7 437.4 181.4 C431.6 176.3 430.0 174.1 425.9 165.3 C423.2 159.7 421.0 154.6 421.0 154.0 C421.0 153.4 419.2 151.0 417.0 148.6 C413.9 145.3 411.7 143.9 408.0 143.0 C399.9 141.1 395.6 145.2 402.2 148.6 C407.1 151.0 411.0 155.1 411.0 157.7 C411.0 159.0 410.8 160.0 410.6 160.0 C410.4 160.0 409.5 160.2 408.7 160.5 C407.9 160.9 405.3 159.2 402.5 156.5 C398.8 153.0 396.9 152.0 394.3 152.0 C390.5 152.0 389.9 154.0 392.7 157.9 C393.6 159.2 395.6 162.9 397.1 166.0 C400.3 172.7 403.1 175.0 408.0 175.0 C412.2 175.1 415.0 176.1 430.5 183.4 C442.9 189.2 444.0 189.6 444.0 188.2 Z M454.9 181.4 C456.7 179.1 456.8 177.1 455.0 174.5 C454.6 173.9 453.6 171.4 452.6 168.8 C449.3 159.9 433.3 147.8 429.3 151.2 C428.6 151.8 428.0 152.8 428.0 153.5 C428.0 155.1 434.4 167.4 437.8 172.4 C440.5 176.3 449.5 183.8 451.7 183.9 C452.3 184.0 453.8 182.8 454.9 181.4 Z M424.6 141.1 C423.6 139.5 421.0 139.8 421.0 141.4 C421.0 143.1 423.1 144.1 424.4 143.0 C424.8 142.5 424.9 141.7 424.6 141.1 Z M390.8 140.1 C392.8 138.5 396.3 136.8 398.5 136.3 C403.6 135.2 403.8 132.8 399.0 132.0 C397.1 131.6 392.6 130.2 389.0 128.8 C362.9 118.6 365.0 119.3 365.0 121.4 C365.0 122.2 367.2 124.8 369.9 127.2 C372.6 129.6 376.9 134.1 379.5 137.2 C382.0 140.4 384.8 143.0 385.6 143.0 C386.4 143.0 388.8 141.7 390.8 140.1 Z M249.6 122.1 C250.7 121.0 262.3 119.0 267.4 119.0 C273.1 119.0 271.8 116.1 264.3 112.4 C261.0 110.7 255.4 107.2 252.0 104.7 C242.4 97.5 239.4 98.6 240.2 109.3 C240.9 117.8 243.2 123.0 246.2 123.0 C247.5 123.0 249.0 122.6 249.6 122.1 Z" fill="#1A1613" fill-rule="evenodd"/></svg>