<svg xmlns="http://www.w3.org/2000/svg" viewBox="0 0 540 856" role="img"><path d="M259.0 854.4 C257.6 853.7 254.9 853.0 253.0 853.0 C249.1 853.0 230.0 849.6 223.7 847.9 C221.4 847.2 216.2 845.2 212.2 843.4 C208.2 841.5 204.7 840.0 204.3 840.0 C202.8 840.0 186.2 829.4 184.2 827.1 C180.7 823.3 178.1 816.7 175.8 806.0 C171.6 786.6 174.1 763.7 184.1 730.5 C186.6 722.2 190.7 706.7 192.5 699.0 C194.6 690.1 203.9 663.1 207.7 655.0 C212.6 644.7 214.0 640.3 213.3 638.2 C212.2 635.1 200.1 617.6 195.3 612.2 C190.5 606.9 190.5 606.9 181.0 608.0 C161.0 610.5 144.6 606.7 124.0 594.9 C117.3 591.0 116.6 590.8 111.2 591.5 C108.1 591.9 102.8 592.8 99.5 593.6 C90.3 595.7 70.8 595.4 59.9 593.0 C43.4 589.3 27.3 579.4 18.4 567.6 C14.0 561.7 8.0 550.4 8.0 547.8 C8.0 547.1 7.0 544.0 5.8 541.0 C4.0 536.4 3.6 533.5 3.5 523.5 C3.5 499.8 10.4 480.8 25.5 463.8 C35.2 452.8 42.6 446.8 53.5 441.3 C64.9 435.5 84.4 432.0 89.8 434.9 C93.4 436.8 94.6 436.2 99.1 429.8 C107.0 418.3 126.4 400.9 142.5 390.5 C161.0 378.7 160.1 379.7 156.4 373.8 C155.0 371.6 153.0 367.9 152.0 365.6 C149.9 360.8 144.6 349.2 138.5 336.5 C136.2 331.6 132.8 324.4 131.0 320.5 C129.3 316.6 127.0 311.7 126.0 309.5 C125.0 307.3 123.2 303.2 122.0 300.5 C120.8 297.8 119.2 294.1 118.5 292.5 C116.3 287.7 109.3 264.3 107.1 254.5 C106.0 249.6 104.1 239.7 103.0 232.5 C101.8 225.3 100.0 214.5 98.9 208.3 C97.1 198.5 96.9 194.3 97.3 172.3 C97.7 147.5 97.7 147.5 101.8 132.0 C104.1 123.5 107.1 113.3 108.5 109.5 C110.0 105.7 111.6 100.9 112.2 99.0 C112.8 97.1 113.9 94.6 114.6 93.5 C115.4 92.4 116.0 90.8 116.0 89.9 C116.0 89.0 118.3 83.9 121.1 78.4 C123.9 73.0 126.9 67.2 127.8 65.5 C132.1 57.1 140.3 47.0 150.3 37.4 C166.7 21.8 180.5 13.3 199.0 7.5 C203.7 6.0 209.5 4.2 211.9 3.4 C218.2 1.4 231.1 1.7 241.5 4.0 C259.3 7.9 265.7 11.0 271.7 18.9 C273.8 21.6 276.1 24.1 276.8 24.4 C277.6 24.7 280.3 23.2 282.8 21.1 C285.4 19.0 289.3 16.3 291.5 15.2 C297.4 12.3 308.7 9.0 312.9 9.0 C315.0 9.0 320.1 8.1 324.3 7.1 C332.3 5.0 343.2 4.5 349.0 6.0 C350.9 6.5 356.3 7.4 361.0 8.0 C370.4 9.3 380.7 12.7 390.5 17.7 C403.1 24.2 406.2 26.0 411.0 29.4 C422.4 37.6 437.2 53.8 443.0 64.5 C444.8 67.8 446.6 71.0 447.2 71.7 C449.3 74.3 455.2 90.0 456.7 97.0 C461.5 119.9 459.7 161.8 452.5 191.0 C448.7 206.3 446.1 216.0 445.5 217.0 C445.2 217.5 444.3 220.8 443.5 224.2 C442.7 227.7 441.3 232.8 440.4 235.5 C433.9 254.3 432.9 257.4 431.5 263.9 C430.2 269.3 429.3 272.1 423.5 287.5 C422.1 291.4 420.5 295.9 420.1 297.5 C418.5 303.6 410.7 322.1 401.1 342.3 C398.3 348.2 396.0 353.3 396.0 353.6 C396.0 354.1 394.8 356.7 387.5 372.5 C385.8 376.4 383.7 381.2 383.1 383.3 C382.4 385.4 380.5 388.0 378.9 389.2 C375.2 392.0 375.2 393.3 379.2 397.3 C383.7 401.8 390.9 412.7 396.5 423.5 C399.1 428.4 401.9 433.2 402.6 434.1 C403.5 435.1 406.5 436.0 409.8 436.4 C415.9 437.1 422.9 439.1 429.8 442.1 C432.1 443.2 434.6 444.0 435.3 444.0 C437.8 444.0 453.7 452.7 459.5 457.3 C471.3 466.5 478.9 476.8 489.0 497.6 C492.7 505.0 493.9 518.2 492.1 529.8 C490.7 538.7 484.6 552.3 478.9 559.1 C473.4 565.7 460.1 576.2 452.6 580.0 C437.0 587.7 416.1 590.6 404.7 586.6 C399.8 584.9 399.8 584.9 395.7 587.7 C390.5 591.2 381.5 596.1 373.2 600.0 C362.9 604.8 340.3 606.3 329.3 602.9 C327.5 602.3 325.1 602.2 323.9 602.5 C321.9 603.2 312.0 617.3 312.0 619.5 C312.0 620.0 310.8 622.9 309.3 625.8 C306.6 631.2 306.6 631.2 308.4 635.8 C309.3 638.4 310.7 642.5 311.5 645.0 C312.3 647.5 314.1 652.6 315.5 656.5 C319.2 666.5 322.4 676.9 325.5 689.0 C327.0 694.8 328.8 702.0 329.6 705.0 C331.8 713.5 335.0 736.7 335.0 744.7 C335.0 753.0 331.7 777.8 329.4 786.5 C327.1 795.1 322.1 809.3 321.0 810.4 C319.4 812.0 319.8 814.8 322.0 817.8 C324.5 821.2 325.7 832.8 324.1 838.6 C323.5 840.8 322.0 843.6 320.8 844.7 C318.5 846.8 304.0 851.1 295.0 852.5 C292.5 852.9 289.5 853.8 288.3 854.6 C285.2 856.5 262.6 856.4 259.0 854.4 Z M280.8 845.0 C286.1 844.4 292.5 843.3 295.0 842.6 C297.5 841.8 301.5 840.9 304.0 840.5 C313.9 838.9 318.3 835.2 316.1 830.4 C314.8 827.5 310.9 827.2 303.4 829.5 C290.2 833.4 258.0 833.2 238.5 829.0 C224.4 826.0 207.3 815.5 203.1 807.2 C197.1 795.5 197.9 763.0 204.6 739.5 C206.0 734.5 207.7 727.9 208.5 724.6 C209.3 721.4 210.3 717.6 210.9 716.1 C211.5 714.7 212.7 710.2 213.5 706.1 C214.3 702.0 216.7 694.1 218.6 688.6 C220.6 683.0 222.9 676.7 223.7 674.5 C224.4 672.3 225.7 669.1 226.5 667.3 C227.3 665.6 228.0 663.4 228.0 662.5 C228.0 660.0 223.0 652.0 221.5 652.0 C220.7 652.0 219.2 653.9 218.1 656.2 C214.8 663.2 212.0 670.2 212.0 671.4 C212.0 672.0 211.4 673.7 210.6 675.2 C208.9 678.3 204.1 693.8 201.0 706.0 C199.8 710.7 198.3 715.6 197.7 717.0 C197.2 718.4 196.1 722.0 195.4 725.0 C194.7 728.0 192.7 735.5 191.0 741.5 C185.2 762.9 183.7 771.6 183.6 786.0 C183.6 797.2 183.9 801.0 185.9 808.3 C189.2 820.2 192.3 824.1 202.8 829.7 C205.4 831.1 209.1 833.0 211.0 834.0 C217.4 837.4 223.5 839.8 227.5 840.5 C229.7 840.9 234.0 841.9 237.0 842.7 C248.6 846.0 263.8 846.8 280.8 845.0 Z M274.9 823.1 C276.8 821.9 275.5 818.7 271.9 816.1 C265.7 811.5 262.8 797.1 266.6 789.9 C268.7 785.8 267.3 784.4 260.2 783.7 C248.8 782.5 239.8 776.0 235.0 765.4 C229.0 752.2 232.6 720.7 243.7 690.9 C245.4 686.4 245.4 686.4 242.1 680.6 C238.5 674.4 236.6 673.0 234.5 675.1 C231.8 678.0 223.0 703.6 223.0 708.7 C223.0 710.0 222.4 712.3 221.6 713.8 C220.9 715.3 219.7 718.8 219.1 721.5 C218.5 724.2 217.1 729.6 216.0 733.5 C207.8 761.6 205.0 790.8 209.4 801.4 C213.3 810.8 231.0 819.3 250.5 821.1 C259.3 821.9 269.8 823.2 273.0 823.9 C273.3 823.9 274.1 823.6 274.9 823.1 Z M305.2 815.5 C312.9 805.7 318.1 791.9 322.1 771.6 C323.9 762.1 324.1 758.2 323.7 741.1 C323.4 726.6 322.7 719.2 321.2 712.5 C315.4 686.3 307.4 659.3 302.0 647.5 C300.9 645.3 298.4 638.0 297.0 633.5 C295.2 627.7 282.5 603.8 280.7 602.8 C278.2 601.5 276.9 602.7 273.0 610.6 C269.6 617.2 269.6 617.2 272.8 623.4 C274.6 626.9 276.0 630.2 276.0 630.7 C276.0 631.3 278.2 636.2 281.0 641.7 C283.7 647.1 286.9 654.2 288.0 657.5 C291.7 668.3 294.8 677.4 295.8 681.0 C296.4 682.9 298.1 687.6 299.5 691.5 C310.0 719.4 310.8 723.6 311.2 747.1 C311.5 766.5 311.5 766.5 308.8 771.6 C304.1 780.6 295.7 785.2 288.7 782.7 C284.7 781.3 282.0 783.1 278.0 789.6 C275.1 794.5 274.8 795.5 275.2 801.2 C275.6 807.1 275.9 807.6 280.1 811.3 C285.2 815.7 293.9 819.7 298.6 819.9 C301.2 820.0 302.3 819.2 305.2 815.5 Z M271.7 775.5 C274.0 773.9 279.3 765.1 280.5 761.0 C280.8 759.6 281.8 757.1 282.5 755.5 C284.3 751.4 286.2 732.3 285.5 725.7 C284.1 714.3 276.6 693.0 274.0 693.0 C273.4 693.0 272.1 695.0 270.9 697.5 C269.0 701.6 268.9 702.2 270.2 703.8 C274.0 708.1 278.0 721.9 278.0 730.8 C278.0 737.0 275.7 746.7 273.0 751.9 C270.4 757.0 265.2 760.2 260.4 759.8 C252.4 759.2 249.9 749.8 251.9 729.3 C253.3 716.2 255.3 709.1 261.8 694.5 C268.1 680.4 269.5 677.9 274.9 671.2 C277.7 667.8 280.0 664.1 280.0 662.9 C280.0 657.1 274.4 654.7 272.1 659.6 C271.5 661.0 269.8 663.7 268.3 665.6 C265.1 669.8 257.6 682.8 254.9 689.0 C249.0 702.1 244.3 720.4 241.9 739.5 C240.8 748.4 240.9 750.3 242.4 756.4 C244.3 763.9 247.8 770.0 251.7 772.5 C258.2 776.8 267.8 778.2 271.7 775.5 Z M296.4 770.6 C301.6 765.1 302.1 761.9 300.9 740.0 C300.2 727.2 299.4 719.8 298.5 717.9 C297.7 716.4 296.8 713.3 296.4 710.9 C296.0 708.5 294.9 705.1 293.9 703.4 C292.8 701.7 292.0 698.9 292.0 697.3 C292.0 695.6 291.2 693.2 290.1 691.9 C289.1 690.6 287.9 688.0 287.5 686.2 C286.5 681.4 284.0 677.0 282.4 677.0 C280.6 677.0 280.6 679.8 282.3 681.9 C283.7 683.7 286.5 691.5 287.6 696.9 C287.9 698.8 289.1 701.7 290.1 703.4 C291.1 705.1 292.0 708.0 292.0 709.8 C292.0 711.6 292.8 714.5 293.7 716.3 C295.1 718.9 295.4 722.2 295.4 733.5 C295.3 746.6 295.1 748.1 292.3 756.1 C290.6 760.9 288.7 765.8 288.0 766.9 C286.1 770.6 287.8 773.3 292.4 773.9 C292.9 773.9 294.7 772.5 296.4 770.6 Z M266.2 743.4 C267.7 740.0 268.2 736.6 268.2 730.6 C268.3 721.0 267.5 718.0 265.0 718.0 C263.0 718.0 262.0 720.6 262.0 726.4 C262.0 728.6 261.5 733.2 260.9 736.7 C258.9 747.9 262.3 752.2 266.2 743.4 Z M253.6 670.9 C255.1 667.9 255.1 667.5 252.9 663.6 C251.7 661.3 248.4 656.3 245.6 652.5 C240.0 644.8 240.4 645.4 233.1 632.9 C230.3 628.1 228.0 623.9 228.0 623.5 C228.0 622.5 213.4 604.0 210.8 601.8 C209.7 600.8 208.2 600.0 207.4 600.0 C205.9 600.0 202.0 603.5 202.0 604.9 C202.0 605.4 204.1 608.5 206.8 611.8 C209.4 615.1 213.7 621.4 216.4 625.7 C219.1 630.0 224.7 638.6 228.9 644.8 C233.1 651.0 237.4 657.6 238.5 659.3 C242.5 665.8 249.3 674.0 250.6 674.0 C251.3 674.0 252.7 672.6 253.6 670.9 Z M263.9 654.8 C264.4 653.5 266.2 650.8 267.9 648.6 C271.6 643.9 271.7 642.9 268.5 636.6 C264.2 628.2 261.8 626.8 259.9 631.8 C259.3 633.3 257.1 636.6 254.9 639.2 C252.8 641.8 251.0 644.3 251.0 644.8 C251.0 646.5 260.2 657.0 261.6 657.0 C262.4 657.0 263.4 656.0 263.9 654.8 Z M253.2 624.5 C256.4 619.5 259.4 614.6 259.9 613.5 C260.7 611.7 262.5 608.6 271.6 593.2 C272.6 591.4 275.0 587.6 276.8 584.8 C278.5 582.1 280.0 579.2 280.0 578.5 C280.0 576.6 273.3 571.0 271.0 571.0 C268.2 571.0 256.2 586.5 252.1 595.5 C246.7 607.4 245.6 609.3 240.8 616.3 C239.2 618.5 238.0 621.0 238.0 621.9 C238.0 624.9 244.0 634.1 245.8 633.8 C246.7 633.6 250.0 629.4 253.2 624.5 Z M305.9 610.7 C307.3 607.8 312.8 597.7 318.2 588.3 C323.6 578.8 328.0 570.7 328.0 570.4 C328.0 570.0 330.0 566.4 332.5 562.4 C335.0 558.5 337.0 554.5 337.0 553.6 C337.0 551.0 334.6 551.7 331.3 555.2 C325.4 561.6 302.8 597.0 298.6 606.6 C297.1 610.1 297.0 611.2 298.1 613.1 C300.8 618.3 302.6 617.7 305.9 610.7 Z M233.7 605.2 C234.8 603.7 236.4 601.1 237.4 599.3 C239.0 596.2 238.9 595.9 236.3 590.3 C234.7 587.1 232.7 584.4 231.8 584.2 C230.8 584.0 228.3 585.6 226.2 587.7 C224.0 589.8 221.6 592.1 220.7 592.8 C219.7 593.5 219.0 594.4 219.0 594.8 C219.0 595.3 221.0 598.4 223.5 601.8 C228.5 608.7 230.6 609.4 233.7 605.2 Z M192.8 597.5 C202.9 593.3 209.0 589.9 216.6 584.1 C225.2 577.7 226.9 575.1 225.0 571.4 C222.8 567.3 220.2 566.5 217.1 568.7 C206.5 576.5 200.8 579.6 190.2 583.3 C174.4 588.8 164.6 589.4 153.7 585.7 C149.6 584.3 144.7 582.3 142.7 581.4 C139.1 579.7 139.0 579.7 133.5 582.4 C130.5 584.0 128.0 585.6 128.0 586.1 C128.0 587.8 135.0 591.8 145.0 595.7 C158.9 601.2 157.6 600.9 173.0 600.5 C184.9 600.2 187.2 599.9 192.8 597.5 Z M294.6 593.1 C297.8 588.2 297.5 584.9 293.7 583.9 C288.5 582.5 285.0 589.4 288.0 595.1 C289.6 598.0 291.7 597.4 294.6 593.1 Z M361.6 593.6 C370.5 591.3 374.4 589.4 383.2 583.3 C385.8 581.5 388.4 580.0 388.9 580.0 C390.0 580.0 398.0 571.2 403.0 564.4 C407.5 558.4 412.5 546.3 413.2 539.7 C413.9 533.4 412.3 531.5 406.6 532.4 C402.1 533.2 400.0 534.5 400.0 536.7 C400.0 537.4 398.7 540.9 397.1 544.3 C391.1 557.0 373.8 573.6 362.6 577.4 C359.3 578.5 354.2 579.0 347.1 579.0 C337.7 579.0 336.4 579.2 334.3 581.2 C333.0 582.4 332.0 583.7 332.0 584.2 C332.0 584.7 331.0 586.4 329.8 588.1 C327.2 591.5 328.0 594.0 332.1 595.1 C337.9 596.7 352.6 596.0 361.6 593.6 Z M93.7 585.1 C99.8 584.0 105.7 582.7 106.7 582.2 C107.7 581.7 110.3 580.9 112.5 580.6 C116.9 579.8 138.6 569.3 147.4 563.6 C153.5 559.7 154.2 557.9 150.8 554.3 C148.3 551.6 145.4 551.4 141.3 553.5 C136.9 555.7 123.1 562.1 117.0 564.7 C112.2 566.7 103.5 568.4 86.5 570.5 C83.4 570.9 78.7 570.5 74.5 569.6 C70.6 568.8 65.8 567.9 63.8 567.5 C52.3 565.6 42.2 557.8 36.4 546.3 C32.5 538.5 32.5 538.5 32.5 524.5 C32.5 512.8 32.9 509.3 34.8 503.2 C38.2 492.3 44.2 483.0 51.7 477.0 C61.7 469.0 63.4 468.2 77.2 465.5 C80.2 464.9 83.2 460.3 84.4 454.3 C84.8 452.6 85.8 450.6 86.6 449.9 C88.3 448.5 88.5 444.0 86.8 443.9 C70.2 442.3 50.9 450.3 36.8 464.7 C27.1 474.5 23.7 478.9 21.0 484.8 C19.8 487.4 18.3 490.6 17.5 492.0 C14.0 498.7 11.8 508.8 11.3 520.5 C10.8 531.7 10.9 533.0 13.5 540.5 C18.5 554.9 22.0 561.1 28.9 568.0 C32.6 571.6 37.5 575.7 40.0 577.1 C47.9 581.7 59.2 585.0 70.2 585.9 C75.9 586.3 81.0 586.8 81.5 586.9 C82.0 586.9 87.5 586.1 93.7 585.1 Z M250.6 577.0 C253.0 572.5 253.9 569.6 253.5 567.7 C252.0 559.4 241.1 542.8 229.8 531.7 C220.5 522.6 218.5 521.4 216.1 523.1 C203.9 532.1 201.6 535.1 205.9 536.5 C208.3 537.2 221.4 551.0 225.5 557.1 C227.2 559.5 230.7 564.2 233.3 567.5 C235.9 570.8 239.4 575.9 241.1 578.8 C243.0 582.3 244.6 584.0 245.7 583.8 C246.5 583.6 248.8 580.6 250.6 577.0 Z M167.2 578.8 C167.8 577.2 162.5 569.4 160.3 568.6 C158.4 567.8 151.0 572.4 151.0 574.4 C151.0 576.3 152.9 577.6 157.0 578.8 C161.9 580.2 166.8 580.2 167.2 578.8 Z M429.7 577.6 C450.9 572.4 469.1 558.3 478.2 540.0 C479.8 537.0 481.0 533.6 481.0 532.5 C481.0 531.4 481.7 528.7 482.5 526.5 C485.4 518.3 483.3 503.1 478.1 495.0 C477.2 493.6 475.1 489.8 473.5 486.5 C469.9 479.4 454.7 463.4 448.1 459.9 C425.0 447.5 417.1 445.0 400.6 445.0 C386.3 445.0 372.4 448.4 362.0 454.5 C353.3 459.6 352.0 460.6 352.0 462.0 C352.0 464.0 359.0 471.0 361.1 471.0 C362.0 471.0 364.1 470.3 365.6 469.5 C367.2 468.7 369.7 468.0 371.1 468.0 C372.6 468.0 375.7 467.3 378.1 466.5 C395.5 460.3 417.4 458.7 429.0 462.8 C445.8 468.6 456.2 476.7 464.3 490.3 C468.5 497.5 468.5 497.5 468.5 512.0 C468.4 525.6 468.2 526.8 465.7 532.0 C462.6 538.4 456.9 545.6 450.9 550.6 C446.5 554.2 435.5 560.0 432.9 560.0 C432.1 560.0 429.6 560.7 427.3 561.5 C424.3 562.5 422.3 562.7 420.5 562.0 C418.2 561.1 417.6 561.6 413.0 567.7 C408.1 574.2 406.8 578.3 409.2 579.3 C412.2 580.5 420.6 579.8 429.7 577.6 Z M188.8 575.4 C190.0 574.6 191.0 573.6 191.0 573.1 C191.0 571.5 188.0 565.1 185.7 561.8 C174.5 545.4 166.0 536.3 154.8 528.7 C147.0 523.3 143.9 522.2 142.1 524.4 C141.1 525.6 141.5 526.5 144.3 529.7 C146.2 531.8 149.5 536.0 151.6 539.0 C165.9 559.4 177.8 575.2 179.8 576.8 C181.7 578.2 185.2 577.7 188.8 575.4 Z M305.9 573.5 C310.8 567.9 310.2 566.9 298.8 559.4 C293.1 555.7 285.2 549.3 281.1 545.3 C277.1 541.3 273.2 538.0 272.5 538.0 C270.7 538.0 264.0 545.1 264.0 546.9 C264.0 550.5 277.4 564.3 287.2 570.6 C298.8 578.2 301.4 578.6 305.9 573.5 Z M358.5 568.0 C360.0 567.4 361.0 566.4 360.8 565.8 C360.0 563.5 350.8 558.8 348.4 559.4 C345.9 560.1 341.5 566.4 342.5 568.0 C343.3 569.3 355.1 569.3 358.5 568.0 Z M206.3 565.8 C211.7 562.0 214.0 559.7 214.0 558.1 C214.0 556.0 203.1 545.0 198.6 542.6 C195.2 540.8 195.1 540.8 191.6 543.0 C186.9 545.8 187.0 548.2 192.0 554.8 C194.2 557.7 196.0 560.3 196.0 560.6 C196.0 561.7 201.3 568.0 202.2 568.0 C202.7 568.0 204.5 567.0 206.3 565.8 Z M87.5 561.2 C92.5 560.3 93.0 558.2 89.4 553.3 C87.8 551.2 86.5 549.4 86.4 549.2 C86.3 549.1 82.4 547.6 77.6 546.0 C72.8 544.4 67.4 542.0 65.4 540.6 C54.0 532.9 49.9 515.2 55.9 499.7 C58.6 492.7 68.6 481.5 72.9 480.5 C79.0 479.2 82.2 472.9 77.3 472.2 C73.5 471.6 61.0 478.9 54.5 485.5 C44.4 495.7 39.7 508.2 39.7 524.5 C39.7 532.0 40.2 534.6 42.5 540.2 C47.3 552.1 54.9 557.8 69.5 560.5 C77.6 562.0 81.9 562.2 87.5 561.2 Z M375.4 556.7 C380.2 552.6 379.8 551.0 373.4 548.5 C367.4 546.2 355.7 539.6 350.5 535.6 C348.3 533.9 344.7 531.2 342.4 529.7 C340.2 528.2 337.1 525.6 335.5 524.0 C332.1 520.4 329.5 520.2 327.9 523.2 C327.2 524.5 326.1 525.9 325.4 526.3 C324.6 526.7 324.0 528.2 324.0 529.5 C324.0 532.0 323.8 531.8 350.7 549.1 C355.8 552.3 361.5 555.6 363.4 556.4 C365.2 557.2 367.1 558.3 367.4 558.9 C368.6 560.8 371.4 560.1 375.4 556.7 Z M320.0 552.9 C322.7 549.6 325.0 546.4 325.0 545.8 C325.0 544.0 320.8 540.0 319.0 540.0 C318.1 540.0 316.6 540.8 315.8 541.8 C313.5 544.3 309.0 552.6 309.0 554.3 C309.0 555.6 312.6 558.8 314.2 558.9 C314.6 559.0 317.2 556.3 320.0 552.9 Z M108.8 556.9 C112.6 555.6 113.2 554.0 111.3 550.4 C108.7 545.3 105.2 534.7 104.5 529.5 C104.1 526.8 103.2 521.9 102.4 518.7 C101.5 515.4 101.2 511.4 101.6 509.4 C102.0 507.3 101.8 505.4 101.0 504.5 C99.2 502.3 93.4 502.6 91.1 504.9 C89.0 507.0 89.0 507.7 91.1 519.9 C91.6 522.9 92.0 527.1 92.0 529.2 C92.0 536.4 99.0 553.5 103.2 556.4 C104.4 557.3 105.5 558.0 105.6 558.0 C105.6 558.0 107.1 557.5 108.8 556.9 Z M434.6 548.8 C437.9 547.0 443.8 542.4 448.1 538.0 C455.3 530.8 455.8 530.0 457.5 523.1 C460.0 512.7 459.9 500.7 457.2 495.0 C452.2 484.3 442.3 475.2 430.9 471.0 C424.6 468.7 421.7 469.2 422.2 472.4 C422.4 473.9 423.8 474.9 427.0 476.0 C437.4 479.5 441.9 483.7 444.4 492.4 C447.8 504.2 445.2 515.0 437.2 522.1 C434.6 524.3 430.9 526.9 429.0 527.9 C424.7 529.9 423.0 533.1 423.0 539.3 C423.0 541.9 422.3 545.5 421.4 547.1 C420.2 549.6 420.1 550.4 421.1 551.6 C422.8 553.7 427.2 552.8 434.6 548.8 Z M131.5 547.0 C135.0 545.4 138.3 544.0 138.9 544.0 C139.4 544.0 140.0 543.4 140.3 542.6 C141.1 540.7 134.2 532.0 131.9 532.0 C129.1 532.0 118.0 539.8 118.0 541.8 C118.0 544.4 121.8 550.0 123.5 550.0 C124.4 550.0 128.0 548.6 131.5 547.0 Z M301.2 544.8 C302.5 543.0 305.8 537.9 308.5 533.5 C311.2 529.1 315.4 522.8 317.9 519.5 C320.5 516.2 324.3 510.9 326.5 507.6 C328.6 504.4 332.3 499.6 334.7 497.0 C337.1 494.4 339.0 491.6 339.0 490.9 C339.0 489.0 332.9 483.0 331.0 483.0 C327.8 483.0 304.5 508.8 298.0 519.5 C296.7 521.7 293.7 526.2 291.3 529.5 C288.9 532.7 287.0 536.3 287.0 537.5 C287.0 538.7 289.0 541.1 292.2 543.7 C295.1 546.0 297.8 547.9 298.1 548.0 C298.5 548.0 299.8 546.5 301.2 544.8 Z M388.2 540.5 C392.9 532.7 392.9 533.2 387.5 528.4 C384.7 526.0 381.8 524.0 380.8 524.0 C378.6 524.0 371.0 533.7 371.0 536.6 C371.0 538.4 372.2 539.4 376.2 541.4 C382.9 544.6 385.8 544.4 388.2 540.5 Z M259.7 537.2 C262.0 534.1 265.5 529.7 267.5 527.5 C270.9 523.6 280.0 509.0 280.0 507.2 C280.0 505.6 274.2 500.8 273.1 501.5 C272.5 501.8 269.6 505.4 266.6 509.3 C263.7 513.3 258.1 520.5 254.1 525.4 C250.2 530.3 247.0 535.1 247.0 535.9 C247.0 538.4 251.3 543.0 253.5 543.0 C254.8 543.0 257.0 540.9 259.7 537.2 Z M186.1 536.7 C188.0 535.0 193.4 530.3 198.1 526.4 C202.7 522.5 209.8 516.0 213.9 512.1 C220.8 505.4 221.3 504.6 220.4 502.2 C219.0 498.3 216.4 498.3 208.3 502.6 C198.4 507.8 173.0 527.4 173.0 530.0 C173.0 531.3 180.7 540.0 182.0 540.0 C182.3 540.0 184.1 538.5 186.1 536.7 Z M83.0 535.1 C83.0 531.3 82.5 530.3 75.2 520.8 C72.3 517.1 71.9 515.9 72.3 512.2 C73.2 504.1 79.7 497.5 88.7 495.9 C99.6 493.8 108.9 495.9 115.1 501.7 C118.5 504.8 122.4 504.5 122.8 501.1 C123.1 499.4 122.3 498.0 120.3 496.3 C110.6 488.1 100.8 484.1 90.7 484.0 C81.8 484.0 71.6 491.3 66.2 501.5 C63.9 505.8 63.5 507.7 63.6 515.0 C63.6 521.7 64.0 524.4 65.7 527.5 C69.0 533.8 75.7 538.9 80.8 539.0 C82.7 539.0 83.0 538.5 83.0 535.1 Z M123.1 527.7 C125.5 525.9 130.2 522.7 133.4 520.5 C140.7 515.6 151.7 505.5 152.5 503.0 C153.3 500.5 151.6 497.4 149.0 496.7 C147.6 496.3 145.8 497.1 143.7 499.0 C140.6 501.7 133.3 505.9 119.5 513.0 C112.8 516.5 112.5 516.8 112.6 520.1 C112.8 524.6 115.5 531.0 117.3 531.0 C118.1 531.0 120.7 529.5 123.1 527.7 Z M363.1 528.8 C364.1 527.5 367.6 523.1 370.9 518.9 C376.3 512.0 381.5 507.7 393.2 500.6 C395.4 499.3 396.0 498.2 396.0 495.4 C396.0 491.2 394.3 490.3 390.1 492.5 C386.3 494.4 373.7 505.1 369.2 510.2 C363.9 516.0 356.7 527.9 357.4 529.5 C358.2 531.7 360.9 531.3 363.1 528.8 Z M411.9 523.9 C421.3 522.4 428.7 518.4 433.0 512.5 C436.2 507.9 436.5 507.0 436.4 500.7 C436.2 495.1 435.7 493.1 433.3 489.2 C431.0 485.4 429.8 484.4 427.3 484.2 C422.3 483.7 422.1 486.8 426.4 495.1 C430.6 503.1 430.7 503.8 427.8 507.5 C422.9 513.7 411.4 515.7 401.1 512.1 C395.1 510.0 393.1 510.2 389.5 513.6 C386.1 516.8 386.3 518.4 390.8 521.1 C397.7 525.4 400.4 525.8 411.9 523.9 Z M169.6 521.4 C174.6 517.5 174.1 515.1 167.5 510.5 C161.5 506.4 161.0 506.5 155.2 511.9 C152.2 514.9 152.4 516.8 156.1 518.8 C157.8 519.7 160.2 521.3 161.4 522.2 C164.3 524.6 165.6 524.4 169.6 521.4 Z M234.1 520.8 C233.5 520.1 232.1 518.4 231.1 517.0 C229.6 515.0 228.9 514.8 227.9 515.7 C226.9 516.7 227.0 517.2 228.0 518.5 C228.7 519.3 229.8 520.0 230.5 520.0 C231.2 520.0 232.3 520.7 233.0 521.5 C233.7 522.4 234.5 522.8 234.7 522.6 C235.0 522.3 234.7 521.5 234.1 520.8 Z M350.0 519.8 C352.2 517.2 356.0 510.9 356.0 509.9 C356.0 508.8 351.1 502.0 349.5 500.8 C347.2 499.1 345.2 500.4 340.2 506.6 C334.4 513.7 334.2 515.7 338.9 516.6 C340.6 517.0 342.7 518.1 343.6 519.1 C345.6 521.3 348.4 521.6 350.0 519.8 Z M252.0 513.0 C253.3 509.9 253.1 509.3 245.6 497.5 C241.1 490.5 235.8 482.1 231.8 476.1 C230.9 474.7 228.2 470.2 226.0 466.2 C221.1 457.7 219.0 457.0 213.5 462.4 C209.4 466.3 209.3 467.0 212.4 470.7 C213.7 472.2 218.2 479.4 222.4 486.5 C226.7 493.6 231.4 501.1 232.9 503.0 C234.3 504.9 236.7 508.3 238.2 510.5 C239.7 512.7 242.1 515.8 243.6 517.3 C246.2 520.1 246.2 520.1 248.5 518.0 C249.8 516.8 251.4 514.5 252.0 513.0 Z M189.4 504.8 C193.0 501.9 196.0 498.8 196.0 498.0 C196.0 497.1 193.2 494.6 189.8 492.3 C186.3 490.0 178.7 484.4 172.8 479.8 C149.7 461.8 129.9 448.0 127.0 448.0 C125.9 448.0 123.2 450.5 120.5 454.0 C114.2 462.1 114.5 464.5 122.2 468.5 C129.3 472.2 147.8 484.7 158.7 493.2 C170.2 502.1 181.2 510.0 182.1 510.0 C182.5 510.0 185.8 507.6 189.4 504.8 Z M414.8 505.8 C416.2 504.4 416.3 497.0 415.0 491.5 C414.4 489.3 413.5 483.7 413.0 479.2 C412.1 470.4 411.0 468.0 407.9 468.0 C404.7 468.0 402.7 471.0 403.4 474.9 C405.4 487.9 406.1 498.4 405.0 501.1 C403.1 505.5 404.3 507.0 409.3 507.0 C411.7 507.0 414.1 506.5 414.8 505.8 Z M299.7 500.3 C302.0 497.7 304.0 494.7 304.0 493.7 C304.0 491.6 276.2 464.0 274.0 464.0 C272.1 464.0 263.0 473.0 263.0 475.0 C263.1 478.0 291.1 505.0 294.2 505.0 C294.8 505.0 297.3 502.9 299.7 500.3 Z M368.2 497.5 C370.2 495.5 371.7 493.4 371.4 492.7 C371.1 492.1 368.4 489.6 365.3 487.3 C362.2 485.0 353.7 477.2 346.4 470.0 C339.1 462.9 332.5 457.0 331.8 457.0 C330.3 457.0 326.0 461.0 326.0 462.3 C326.0 462.9 328.4 465.6 331.2 468.5 C334.1 471.3 339.0 476.3 342.0 479.6 C358.0 497.2 361.6 500.8 363.0 500.9 C363.8 500.9 366.2 499.4 368.2 497.5 Z M264.1 497.8 C266.7 494.6 266.5 493.9 261.9 488.6 C258.8 485.1 257.1 484.0 254.9 484.0 C249.5 484.0 250.1 487.6 257.3 498.8 C258.6 500.7 262.0 500.2 264.1 497.8 Z M137.2 494.3 C140.4 491.4 139.3 489.6 131.2 484.3 C113.1 472.4 108.5 470.7 108.5 476.0 C108.5 477.8 109.4 478.9 111.7 480.1 C116.5 482.5 126.1 489.9 128.8 493.2 C131.4 496.4 134.5 496.8 137.2 494.3 Z M208.4 490.9 C209.8 490.2 211.1 489.1 211.4 488.3 C212.1 486.5 203.3 475.0 201.2 475.0 C199.3 475.0 192.0 480.9 192.0 482.4 C192.0 483.6 203.5 491.9 205.2 492.0 C205.6 492.0 207.0 491.5 208.4 490.9 Z M386.4 484.7 C389.7 482.9 392.8 480.8 393.3 479.9 C394.6 477.8 393.4 473.1 391.3 472.3 C389.5 471.6 372.3 475.7 370.2 477.3 C369.6 477.8 369.0 478.6 369.0 479.1 C369.0 480.1 378.8 488.0 379.8 487.9 C380.2 487.9 383.2 486.4 386.4 484.7 Z M252.5 473.8 C255.1 470.9 260.8 464.7 265.1 460.0 C285.7 437.6 288.0 434.7 288.0 432.1 C287.9 429.2 283.9 424.0 281.7 424.0 C280.0 424.0 269.6 435.0 261.3 445.6 C250.2 459.6 249.6 460.3 244.8 465.1 C242.1 467.7 240.0 470.4 240.0 471.0 C240.0 472.6 245.3 479.0 246.6 479.0 C247.2 479.0 249.9 476.6 252.5 473.8 Z M321.8 477.1 C324.5 474.8 324.7 472.0 322.1 472.0 C320.3 472.0 317.0 475.8 317.0 478.0 C317.0 479.6 319.3 479.1 321.8 477.1 Z M310.1 470.8 C313.3 464.4 317.1 458.8 324.7 448.9 C332.7 438.6 344.5 422.3 346.0 419.6 C347.2 417.2 347.1 416.7 345.3 414.2 C341.3 408.9 340.6 409.4 327.3 429.5 C323.7 435.0 318.1 443.1 314.8 447.5 C300.9 466.3 299.0 469.2 299.0 471.4 C299.0 475.2 302.7 478.4 305.8 477.2 C306.5 477.0 308.5 474.1 310.1 470.8 Z M100.0 471.8 C106.9 457.0 117.0 442.4 128.6 430.7 C137.9 421.3 152.6 409.4 160.4 404.9 C167.8 400.6 168.9 399.0 167.0 395.4 C164.7 391.1 161.5 390.2 158.0 392.8 C156.4 394.0 154.7 395.0 154.2 395.0 C153.7 395.0 149.8 397.6 145.4 400.8 C141.0 404.0 136.7 407.1 135.9 407.6 C133.7 408.8 118.7 422.5 113.4 428.1 C105.5 436.3 92.0 458.4 92.0 463.1 C92.0 464.0 91.4 466.5 90.6 468.7 C88.8 473.9 90.0 476.0 94.6 476.0 C97.7 476.0 98.3 475.6 100.0 471.8 Z M192.6 470.2 C196.0 467.1 203.6 460.1 209.4 454.7 C215.3 449.2 220.7 443.6 221.4 442.2 C222.1 440.7 223.1 436.5 223.5 432.7 C224.2 425.3 223.0 423.5 219.1 426.2 C214.1 429.7 176.0 467.9 176.0 469.4 C176.0 471.8 181.0 475.9 184.0 475.9 C185.7 475.9 188.6 474.0 192.6 470.2 Z M297.0 455.8 C300.0 451.3 302.7 447.2 302.9 446.7 C303.4 445.5 297.9 440.0 296.2 440.0 C294.9 440.0 282.0 453.0 281.2 455.1 C280.7 456.4 288.1 464.0 289.9 464.0 C290.9 464.0 293.8 460.7 297.0 455.8 Z M178.2 454.1 C187.4 445.3 187.4 445.3 184.8 437.9 C180.8 426.4 174.9 412.7 173.2 410.8 C171.4 408.6 169.2 408.5 167.1 410.4 C166.2 411.1 162.9 413.5 159.8 415.7 C156.6 417.9 149.3 423.8 143.5 428.9 C131.8 439.2 131.5 440.1 138.8 444.0 C140.8 445.0 147.4 449.7 153.5 454.4 C159.6 459.0 165.5 462.9 166.7 462.9 C168.2 463.0 172.0 460.1 178.2 454.1 Z M241.3 457.5 C244.0 454.1 244.0 454.1 239.9 448.5 C237.6 445.5 235.0 443.0 234.2 443.0 C232.1 443.0 227.0 448.0 227.0 450.0 C227.0 452.7 234.2 461.0 236.5 461.0 C237.6 461.0 239.7 459.4 241.3 457.5 Z M351.7 449.5 C355.5 447.0 359.6 444.7 361.0 444.3 C364.9 443.4 368.0 441.1 368.0 439.2 C368.0 438.2 366.6 436.1 364.9 434.4 C363.2 432.8 361.0 430.0 359.8 428.2 C357.5 424.5 353.5 423.8 352.5 427.0 C352.2 428.0 348.8 432.8 344.9 437.6 C336.8 447.9 336.3 449.9 341.5 452.8 C344.4 454.4 344.3 454.5 351.7 449.5 Z M254.9 440.5 C256.6 438.5 258.0 436.8 258.0 436.5 C258.0 436.3 256.2 434.3 254.1 432.1 C251.9 429.8 249.6 426.3 248.9 424.3 C248.3 422.3 246.3 417.4 244.4 413.4 C239.9 403.4 237.0 393.2 236.3 384.7 C236.0 380.7 235.3 376.9 234.7 376.2 C233.3 374.4 230.2 374.7 225.2 377.1 C220.3 379.5 220.3 379.1 223.4 392.0 C227.7 410.1 245.4 444.0 250.5 444.0 C251.2 444.0 253.2 442.4 254.9 440.5 Z M312.4 433.7 C313.9 431.8 315.0 429.8 315.0 429.1 C315.0 428.5 309.8 422.7 303.4 416.2 C297.0 409.8 290.5 402.6 288.8 400.3 C285.4 395.6 282.7 394.2 280.5 396.0 C278.1 398.0 278.7 399.8 284.7 408.9 C294.6 423.8 306.0 437.0 309.0 437.0 C309.5 437.0 311.0 435.5 312.4 433.7 Z M388.8 436.4 C391.0 435.8 391.7 433.2 390.1 431.5 C389.6 430.9 387.1 426.4 384.5 421.5 C378.7 410.4 371.6 401.6 361.1 392.5 C354.1 386.4 337.5 376.2 334.4 376.0 C333.0 376.0 328.0 383.7 328.0 385.9 C328.0 388.0 331.0 390.8 336.8 394.2 C342.5 397.5 362.9 416.9 369.3 425.0 C377.9 436.1 379.0 437.0 382.9 437.0 C384.9 437.0 387.5 436.7 388.8 436.4 Z M201.4 430.9 C202.8 429.2 204.0 427.1 204.0 426.3 C204.0 424.7 202.1 417.7 199.3 409.0 C195.1 395.7 189.1 371.6 181.5 336.6 C177.0 316.0 173.9 288.4 173.3 262.9 C172.9 246.3 173.0 244.7 175.6 234.9 C177.0 229.2 178.8 223.3 179.6 221.9 C182.4 216.4 189.0 207.3 192.9 203.5 C195.2 201.4 197.0 199.2 197.0 198.8 C197.0 198.4 196.1 197.1 195.1 196.1 C192.8 193.8 185.4 182.5 181.9 176.0 C179.7 172.0 179.1 171.5 176.5 171.8 C159.5 173.7 152.6 169.9 144.9 154.3 C140.5 145.5 140.5 145.5 140.6 133.5 C140.6 123.5 141.0 120.6 142.8 116.3 C146.2 107.9 153.1 98.9 158.6 95.5 C162.9 92.9 164.4 92.5 171.1 92.5 C178.7 92.5 178.7 92.5 188.2 82.0 C199.8 69.2 205.1 64.4 215.5 57.5 C227.0 49.9 230.6 48.2 236.6 47.4 C243.6 46.6 245.0 47.7 245.0 54.1 C245.0 58.4 245.4 59.2 248.3 61.4 C250.2 62.9 252.5 64.0 253.4 64.0 C256.6 64.0 261.0 61.0 264.9 56.0 C268.4 51.6 268.9 50.2 269.5 43.7 C270.3 35.4 269.1 29.6 265.4 24.1 C260.6 16.7 248.2 12.2 230.5 11.3 C214.7 10.5 211.7 11.3 186.5 22.3 C183.8 23.5 179.7 25.8 177.5 27.5 C175.3 29.2 171.5 31.9 169.0 33.5 C161.1 38.8 145.7 54.4 141.5 61.5 C139.3 65.1 136.5 69.8 135.3 71.8 C127.1 85.2 115.1 116.6 110.0 137.8 C105.0 158.6 104.4 193.3 108.6 212.5 C109.5 216.3 110.8 223.3 111.5 228.0 C113.4 240.7 119.4 267.1 122.6 276.5 C127.5 291.2 134.1 306.5 147.1 333.7 C149.8 339.4 152.0 344.3 152.0 344.6 C152.0 345.6 168.3 378.4 169.6 380.0 C170.2 380.8 172.2 384.9 174.0 389.0 C175.8 393.1 178.5 399.2 180.0 402.5 C182.6 408.1 187.1 418.7 189.1 423.7 C190.0 426.2 196.8 434.0 198.0 434.0 C198.5 434.0 200.0 432.6 201.4 430.9 Z M269.0 423.2 C276.6 414.7 276.7 414.6 273.5 410.0 C272.0 407.8 270.1 406.0 269.4 406.0 C267.9 406.0 256.0 415.7 256.0 417.0 C256.0 417.4 257.1 420.1 258.6 422.9 C261.8 429.3 263.6 429.4 269.0 423.2 Z M326.9 411.9 C329.2 408.0 331.0 404.0 331.0 402.9 C331.0 400.3 323.4 396.4 321.4 398.1 C320.6 398.7 320.0 399.8 320.0 400.5 C320.0 401.3 318.4 403.9 316.5 406.4 C314.6 409.0 313.0 411.2 313.0 411.5 C313.0 412.9 319.5 419.0 321.0 419.0 C322.2 419.0 324.2 416.6 326.9 411.9 Z M217.4 413.3 C219.9 409.7 219.9 409.6 218.1 406.6 C216.5 404.0 214.5 396.7 212.4 386.2 C211.5 381.6 204.0 384.8 204.0 389.9 C204.0 391.3 204.6 394.2 205.4 396.5 C206.2 398.7 207.8 403.6 209.0 407.5 C212.4 418.3 213.5 419.0 217.4 413.3 Z M260.5 401.5 C264.2 398.5 267.6 396.0 268.0 396.0 C269.7 396.0 282.9 381.5 284.6 377.8 C286.7 373.2 285.9 372.0 280.7 371.8 C277.2 371.7 276.2 372.5 263.5 385.6 C255.7 393.6 250.0 400.3 250.0 401.4 C250.0 403.0 252.6 407.0 253.6 407.0 C253.7 407.0 256.9 404.5 260.5 401.5 Z M309.9 398.2 C311.1 395.1 312.6 391.6 313.2 390.5 C320.0 379.2 323.1 372.8 325.4 365.3 C327.0 360.5 329.1 354.0 330.1 351.0 C331.1 348.0 332.2 343.7 332.6 341.5 C332.9 339.3 333.9 335.0 334.8 332.0 C336.2 327.5 336.5 321.3 336.5 296.5 C336.5 266.5 336.5 266.5 333.7 259.5 C330.5 251.7 326.5 245.4 323.5 243.4 C321.3 242.0 321.5 241.9 302.5 251.9 C293.1 256.8 282.0 259.3 272.9 258.6 C262.5 257.8 256.9 255.7 247.8 249.4 C243.6 246.4 239.5 244.0 238.7 244.0 C236.2 244.0 231.2 258.2 227.5 276.0 C223.9 293.5 222.8 303.7 222.3 324.6 C221.8 344.4 221.9 346.8 223.4 348.3 C225.6 350.5 226.6 350.4 228.9 348.1 C230.5 346.5 230.6 345.7 229.7 342.2 C228.9 339.3 228.9 334.5 229.7 325.3 C230.6 315.0 231.5 310.6 234.3 303.0 C239.6 288.6 242.4 282.8 246.0 278.6 C249.7 274.4 251.9 274.3 257.4 278.3 C260.2 280.3 261.7 280.5 275.0 280.5 C289.5 280.5 289.5 280.5 298.0 276.6 C302.7 274.5 308.2 272.3 310.4 271.7 C313.8 270.6 314.4 270.7 316.0 272.7 C317.5 274.6 317.9 277.8 318.5 292.2 C319.8 324.6 318.2 344.4 312.8 361.5 C310.5 368.6 309.5 370.9 301.6 384.5 C299.1 388.9 297.0 392.9 297.0 393.5 C297.0 394.7 299.5 398.6 302.3 401.8 C305.7 405.5 307.6 404.6 309.9 398.2 Z M250.6 386.5 C251.4 384.5 249.3 382.0 246.9 382.0 C245.6 382.0 245.0 382.7 245.0 384.3 C245.0 385.6 245.3 387.0 245.7 387.3 C246.9 388.6 250.1 388.0 250.6 386.5 Z M372.1 381.2 C373.3 377.5 379.8 362.9 382.6 357.8 C383.4 356.4 384.0 354.7 384.0 354.1 C384.0 353.5 386.4 348.0 389.4 341.8 C392.3 335.6 397.1 325.1 400.0 318.5 C402.8 311.9 405.8 305.1 406.5 303.5 C407.2 301.9 409.2 296.4 410.8 291.5 C412.5 286.6 415.2 278.7 416.8 274.0 C418.4 269.3 420.8 262.1 422.0 258.0 C426.1 243.7 428.1 237.7 429.9 233.6 C430.9 231.3 432.1 227.9 432.4 226.0 C432.8 224.1 433.7 220.9 434.5 219.0 C436.4 214.0 439.0 205.4 440.6 199.0 C441.3 196.0 442.6 191.0 443.4 188.0 C444.3 185.0 445.0 181.3 445.0 179.8 C445.0 178.4 445.5 175.9 446.1 174.3 C447.9 169.7 450.0 154.5 450.9 138.9 C451.7 126.1 451.6 123.1 449.9 114.4 C448.9 109.0 448.0 103.6 448.0 102.5 C447.9 101.4 447.1 98.7 446.0 96.5 C444.9 94.3 444.0 91.6 444.0 90.5 C443.9 89.4 441.7 84.5 439.0 79.5 C436.2 74.5 433.4 69.1 432.6 67.5 C430.7 63.5 417.1 47.9 413.0 45.0 C411.2 43.7 408.6 41.6 407.2 40.3 C401.1 34.6 382.5 23.0 379.5 23.0 C378.9 23.0 374.4 21.5 369.3 19.6 C361.0 16.5 358.8 16.1 345.3 15.5 C309.2 13.8 289.3 20.7 281.9 37.5 C276.9 48.7 281.1 64.0 289.1 64.0 C292.0 64.0 298.0 61.0 301.8 57.7 C303.5 56.1 304.0 54.6 304.0 50.5 C304.0 42.4 307.8 40.5 312.3 46.3 C314.5 49.2 315.9 49.8 323.1 51.4 C338.7 54.8 361.6 67.8 371.2 78.8 C373.9 81.8 374.1 81.9 380.3 81.3 C387.9 80.6 392.3 82.5 398.6 89.2 C404.3 95.2 406.8 99.2 408.5 104.7 C411.5 114.6 409.5 133.0 404.6 140.8 C400.2 147.8 388.4 156.0 382.8 156.0 C378.7 156.0 377.3 157.8 369.5 172.5 C367.8 175.8 364.2 182.1 361.6 186.5 C356.2 195.5 356.0 194.0 364.4 207.5 C369.5 215.6 370.0 216.7 372.8 225.8 C375.3 234.1 375.5 235.5 375.5 256.0 C375.5 271.7 375.0 281.1 373.6 291.0 C370.9 310.3 365.4 337.8 360.6 355.5 C359.7 358.7 359.0 362.5 359.0 363.8 C359.0 365.1 358.3 367.7 357.4 369.5 C355.2 374.2 355.8 375.8 361.8 380.7 C368.4 386.1 370.5 386.2 372.1 381.2 Z M261.5 375.5 C264.4 372.6 264.6 370.3 262.2 367.0 C260.8 365.0 260.5 362.4 260.6 353.5 C260.6 341.3 261.2 339.5 266.5 335.4 C270.9 332.1 273.7 332.7 278.9 338.0 C284.8 344.1 291.0 345.5 291.0 340.8 C291.0 338.0 284.7 328.9 280.8 326.0 C276.0 322.3 266.3 322.5 259.9 326.3 C253.6 330.0 251.4 332.7 249.6 339.0 C248.1 344.1 248.1 345.3 249.6 355.0 C251.9 369.4 252.7 372.3 255.1 375.4 C257.6 378.6 258.4 378.6 261.5 375.5 Z M208.3 374.6 C211.7 372.6 224.6 368.1 238.0 364.2 C241.4 363.2 241.8 359.6 238.8 357.6 C236.7 356.3 235.4 356.4 225.4 358.5 C211.7 361.3 203.0 363.9 200.8 365.8 C197.7 368.4 199.1 377.0 202.6 377.0 C203.5 377.0 206.0 375.9 208.3 374.6 Z M346.7 367.8 C347.6 366.4 348.2 364.1 353.5 342.5 C355.5 334.2 357.8 325.2 358.6 322.4 C359.4 319.6 360.0 315.6 360.0 313.4 C360.0 311.3 360.7 307.0 361.5 304.0 C363.0 298.7 365.5 278.0 366.7 262.0 C367.5 250.4 365.5 232.3 362.4 223.3 C360.0 216.2 355.4 208.0 353.1 206.5 C351.2 205.4 348.9 207.4 345.5 213.3 C342.1 219.2 338.4 224.5 332.5 231.6 C331.1 233.4 330.0 235.1 330.0 235.5 C330.0 235.9 332.0 239.2 334.3 242.9 C339.0 250.0 341.7 255.3 344.9 264.0 C346.8 269.1 347.0 271.7 347.0 297.6 C347.0 319.1 346.7 326.5 345.6 329.1 C344.9 331.0 343.9 334.9 343.6 337.9 C342.8 343.7 338.7 358.7 337.0 361.9 C336.5 363.0 336.3 364.6 336.6 365.5 C337.8 368.5 345.1 370.2 346.7 367.8 Z M302.3 363.2 C303.8 361.5 304.3 359.7 304.1 357.2 C303.7 352.9 279.2 349.7 268.8 352.6 C266.6 353.2 266.3 359.2 268.3 360.8 C269.0 361.4 275.6 362.5 283.0 363.3 C300.9 365.3 300.5 365.3 302.3 363.2 Z M207.6 353.8 C212.5 351.5 212.5 351.5 213.1 324.5 C213.6 305.2 214.2 295.5 215.4 290.5 C216.2 286.6 217.0 282.1 217.0 280.4 C217.0 278.7 217.7 275.3 218.6 272.9 C219.4 270.5 220.5 266.7 221.0 264.5 C224.1 250.3 227.8 241.5 231.0 240.5 C232.1 240.2 233.0 239.3 233.0 238.6 C233.0 237.8 207.8 211.7 202.6 207.2 C201.9 206.6 197.6 209.2 196.2 210.9 C190.5 217.9 184.4 232.0 182.9 241.2 C181.8 248.4 183.2 287.7 185.0 300.0 C185.6 303.6 186.7 311.0 187.5 316.5 C189.3 328.9 193.7 351.1 195.0 354.6 C195.9 356.9 196.5 357.2 199.4 356.7 C201.2 356.4 204.9 355.1 207.6 353.8 Z M307.1 344.3 C308.2 343.0 308.5 336.8 308.5 313.7 C308.5 280.2 308.7 281.0 300.3 284.8 C294.4 287.5 282.3 290.1 275.4 290.1 C269.7 290.1 258.6 288.3 255.7 286.8 C252.9 285.4 250.3 286.8 248.5 290.8 C247.6 292.8 246.2 295.9 245.5 297.5 C241.2 306.9 239.1 316.4 239.0 326.3 C239.0 333.2 239.2 334.1 240.7 333.8 C241.7 333.6 243.3 331.8 244.2 329.9 C246.2 325.6 251.4 321.4 258.9 318.0 C263.3 316.0 266.0 315.5 272.5 315.5 C279.9 315.6 280.9 315.8 285.7 318.9 C290.5 322.0 292.6 324.4 297.3 332.1 C298.1 333.5 299.1 336.8 299.5 339.3 C300.4 345.5 304.2 347.9 307.1 344.3 Z M285.7 249.6 C298.2 245.4 312.1 237.5 320.4 230.1 C327.0 224.1 337.0 209.1 352.0 182.9 C356.3 175.3 360.1 168.3 360.5 167.1 C361.4 164.2 366.0 156.1 367.1 155.5 C368.6 154.5 368.1 149.4 366.4 147.9 C364.0 145.9 361.0 139.4 361.0 136.2 C361.0 132.6 366.2 125.3 369.6 124.0 C375.9 121.6 383.1 123.9 384.8 128.9 C386.3 133.2 382.6 140.5 379.0 140.5 C376.7 140.5 376.5 140.1 376.2 135.8 C375.8 130.3 374.3 129.6 371.1 133.6 C365.2 141.1 373.0 150.5 383.4 148.6 C388.2 147.7 395.1 141.2 398.5 134.4 C401.2 129.0 401.5 127.6 401.5 118.5 C401.5 109.7 401.1 107.8 398.7 102.5 C392.3 88.9 383.2 84.7 375.0 91.6 C372.5 93.7 372.0 94.9 372.0 98.5 C372.0 103.8 372.8 106.0 374.6 106.0 C375.4 106.0 376.0 105.0 376.0 103.4 C376.0 100.2 377.7 97.0 379.4 97.0 C381.5 97.0 384.0 100.5 384.7 104.4 C385.2 107.7 384.9 108.5 381.9 111.6 C376.5 117.2 370.6 116.1 366.9 108.8 C364.8 104.7 364.7 98.9 366.5 90.2 C367.2 87.2 366.8 86.5 362.9 82.7 C355.8 75.9 345.1 68.3 336.5 64.0 C330.2 60.8 327.0 59.8 321.3 59.3 C314.3 58.7 314.1 58.8 310.2 62.1 C303.8 67.5 294.2 72.0 288.9 72.0 C285.3 72.0 283.4 71.3 280.0 68.8 C277.6 67.0 275.1 65.1 274.4 64.5 C273.5 63.8 272.3 64.3 270.3 66.1 C264.9 71.1 262.3 72.2 255.6 72.3 C247.4 72.4 241.6 69.2 238.0 62.6 C236.7 60.1 235.1 57.9 234.5 57.7 C232.7 57.0 225.4 61.3 215.8 68.6 C206.8 75.5 196.5 86.1 188.6 96.5 C184.9 101.3 184.8 101.7 185.5 107.3 C186.2 114.2 184.9 119.0 180.9 124.1 C177.0 129.1 173.0 130.6 168.0 129.1 C158.7 126.3 157.5 116.5 165.5 110.1 C170.1 106.6 172.9 109.9 169.4 114.8 C167.5 117.6 167.9 121.4 170.3 121.8 C171.4 122.0 173.3 121.2 174.6 119.9 C176.6 118.0 177.0 116.7 177.0 111.5 C177.0 104.4 175.4 101.5 171.0 100.5 C167.3 99.7 160.6 103.3 157.5 107.7 C153.7 112.9 150.6 121.9 149.5 130.5 C148.7 136.9 151.9 149.6 155.7 155.3 C164.1 167.7 177.5 166.5 177.5 153.3 C177.5 148.4 175.4 145.8 172.0 146.7 C170.9 147.0 168.9 146.9 167.5 146.6 C163.5 145.6 164.4 141.0 169.0 138.8 C174.4 136.2 177.1 136.6 181.2 140.5 C186.9 146.1 188.2 149.7 186.9 156.5 C185.9 162.0 186.0 162.6 189.5 171.0 C194.3 182.4 206.2 198.4 223.3 216.3 C255.0 249.6 267.0 256.0 285.7 249.6 Z M272.5 216.5 C267.6 212.0 267.6 212.0 258.4 212.0 C251.4 212.0 249.1 211.7 248.7 210.6 C247.9 208.6 249.7 207.4 256.0 206.0 C264.8 204.0 265.7 203.4 268.4 197.8 C271.4 191.4 274.6 187.8 276.8 188.2 C279.2 188.7 279.4 191.6 277.3 194.7 C274.8 198.3 272.6 205.4 273.3 207.4 C273.6 208.2 275.0 209.6 276.4 210.5 C278.3 211.8 279.3 211.9 280.9 211.0 C283.3 209.8 283.5 207.0 281.8 200.5 C280.7 196.6 280.8 195.8 282.2 194.4 C284.3 192.2 286.8 193.2 287.5 196.5 C287.8 197.9 288.2 200.1 288.5 201.5 C289.2 204.5 291.5 204.7 300.8 202.4 C306.5 201.0 307.4 200.9 308.7 202.3 C311.2 204.8 308.8 207.1 300.9 209.6 C296.8 210.9 292.5 212.0 291.4 212.0 C289.3 212.0 283.0 218.1 283.0 220.0 C283.0 220.6 281.8 221.0 280.2 221.0 C278.4 220.9 275.8 219.4 272.5 216.5 Z M262.7 183.9 C257.7 182.6 257.0 181.3 257.0 174.0 C257.0 166.3 258.7 161.8 265.7 150.4 C268.2 146.5 270.6 141.5 271.1 139.4 C274.1 126.1 268.7 109.1 258.8 100.5 C253.8 96.2 244.4 93.0 236.9 93.0 C229.3 93.0 218.2 95.9 208.7 100.5 C199.6 104.8 195.7 104.8 196.2 100.2 C196.9 94.4 220.7 85.1 235.0 85.0 C264.4 85.0 283.8 108.8 280.0 140.3 C279.0 148.4 278.4 150.3 274.3 157.0 C268.5 166.4 266.0 171.5 266.0 173.5 C266.0 176.4 270.0 177.1 283.9 176.3 C299.5 175.4 300.2 174.9 298.0 167.8 C297.2 165.5 294.6 159.7 292.1 155.0 C287.5 146.5 287.5 146.5 287.2 129.7 C286.8 113.1 286.8 112.9 289.5 107.6 C295.5 95.8 310.5 85.3 323.0 84.3 C329.2 83.8 330.4 84.0 335.2 86.5 C342.0 90.0 351.2 98.8 350.8 101.5 C350.3 105.2 345.6 104.6 340.8 100.2 C332.6 92.7 329.5 92.0 317.7 95.1 C311.6 96.7 301.9 105.3 298.2 112.4 C295.6 117.3 295.5 118.1 295.7 130.3 C296.0 143.1 296.0 143.1 301.4 154.4 C309.8 171.8 310.0 181.5 302.0 183.1 C296.7 184.1 265.9 184.8 262.7 183.9 Z M220.5 144.0 C211.6 142.1 195.6 130.0 196.2 125.6 C196.4 124.1 198.8 122.4 205.0 119.3 C223.0 110.3 235.3 108.6 244.9 113.8 C250.5 116.8 260.0 125.4 260.0 127.5 C260.0 129.1 247.8 139.0 242.3 141.9 C237.5 144.3 226.7 145.4 220.5 144.0 Z M316.4 139.4 C312.5 137.5 307.4 134.0 305.1 131.6 C299.4 125.8 300.0 123.9 308.8 119.7 C315.5 116.5 315.5 116.5 333.0 116.5 C353.3 116.6 355.0 117.0 355.0 122.8 C354.9 134.6 344.5 143.0 330.0 143.0 C324.6 143.0 322.3 142.4 316.4 139.4 Z M234.2 135.6 C236.3 134.9 240.2 132.5 243.0 130.4 C249.6 125.4 249.6 122.5 243.0 119.3 C236.7 116.2 230.2 116.4 220.2 119.9 C205.6 125.0 204.1 127.3 212.4 132.2 C220.2 136.8 227.5 138.0 234.2 135.6 Z M332.4 134.7 C334.0 133.5 334.0 133.3 331.7 132.1 C330.3 131.4 328.5 129.0 327.6 126.8 C326.1 122.7 326.1 122.7 321.0 123.4 C314.3 124.3 313.0 124.9 313.0 127.0 C313.0 129.5 316.0 131.8 322.1 134.0 C328.5 136.3 330.1 136.4 332.4 134.7 Z M343.4 130.1 C346.9 126.4 346.3 124.5 341.1 122.9 C336.5 121.5 333.5 122.3 334.4 124.6 C334.7 125.5 335.0 127.7 335.0 129.6 C335.0 132.7 335.3 133.0 337.8 133.0 C339.6 133.0 341.6 131.9 343.4 130.1 Z M227.8 129.4 C224.4 127.6 224.2 125.6 227.1 123.6 C229.1 122.3 229.6 122.3 232.2 123.6 C234.5 124.8 235.1 125.7 234.8 127.8 C234.4 131.0 231.8 131.7 227.8 129.4 Z" fill="#1A1613" fill-rule="evenodd"/></svg>